<svg version="1.2" xmlns="http://www.w3.org/2000/svg" viewBox="0 0 2091 781" width="2091" height="781">
	<title>2770107_16629 (7)</title>
	<defs>
		<clipPath clipPathUnits="userSpaceOnUse" id="cp1">
			<path d="m5.5 0h2083.03v789.35h-2083.03z"/>
		</clipPath>
	</defs>
	<style>
		.s0 { fill: #155a2a } 
		.s1 { fill: #195933 } 
		.s2 { fill: #1b6a32 } 
		.s3 { fill: #239541 } 
		.s4 { fill: #80ad2b } 
		.s5 { opacity: .5;fill: #217e36 } 
		.s6 { fill: #13511f } 
		.s7 { opacity: .6;fill: #cbd900 } 
		.s8 { opacity: .5;fill: #80ad2b } 
	</style>
	<g>
		<g>
			<g id="Clip-Path: Clip-Path" clip-path="url(#cp1)">
				<g id="Clip-Path">
					<g>
						<g>
							<path class="s0" d="m2296.8 770.9c-14.3-7.1-29.2-15.4-44.6-20.9-13.2-4.4-26.9-5.5-40.1-8.2-11-2.2-22-5.5-30.3-13.2-8.8-7.8-16-16.6-23.1-25.9-8.8-11.6-16.5-23.7-24.8-35.8-6-8.2-11.5-15.4-14.8-24.7q-9.4 1.6-19.3 6c-21.5 7.7-32.5 1.1-39.1-5.5-6.6-6-12.6-8.2-35.2-1.1-22 7.2-42.3 5.5-50.1-3.3-7.7-9.3-12.1-15.4-29.1-13.2-17.6 2.2-33.6-1.7-35.2-11.6-2.2-9.9-14.3-12.1-20.9-29.1-6.1-17.1-3.9-20.9-28.7-15.4-24.7 4.9-50.6-19.3-85.8-38.5-35.2-18.8-46.2-50.1-57.8-67.7-11.5-17.6-41.2-22.6-77-24.8-36.3-2.2-38-7.7-50.1-19.2-12.1-11.6-26.4 9.3-44.6 15.4-18.1 6-20.3 19.2-23.6 29.1-3.9 10.5-18.7 29.2-34.1 38-14.9 8.2-23.7 24.2-40.8 33-17 8.8-41.8 23.1-68.7 11-27-12.6-31.4 6.1-44.1-4.9-13.2-10.5-22-26.5-39.6-24.3-18.1 1.7-15.4-13.7-31.9-15.4-16.5-2.2-17.1-8.8-31.9-27.5-15.4-18.7-29.7-23.1-48.4-15.9-18.7 6.6-52.3 38.5-65 49.5-12.1 11-31.3 9.3-51.1 3.8-19.3-5.5-19.8-3.8-34.7 7.2-14.9 11-35.2 10.5-52.8 16.5-17.6 6.1-31.4-10.4-53.4-6-21.5 3.8-22.6-3.9-41.8-4.4-19.3-0.6-29.2-15.5-41.3-21-11.6-4.9-27.5-16.5-34.7-25.8-7.1-9.4-13.7-13.2-30.8-19.3-17-6-34.1-24.7-49.5-37.9-15.4-13.3-33.6-8.9-61.1-6.7-28 1.7-27.5-15.9-37.9-8.8-11.1 6.6-34.7 21.5-49 43.5-14.9 21.5-13.8 12.7-50.1 36.9-36.9 24.2-38 15.9-90.8 22.5-52.8 6.1-59.4 4.4-59.4 4.4l-6.6 58.9q1.1 0.6 2.7 0.6 0 2.2 0.6 3.3c9.3 19.2 53.9 25.3 72.1 31.9 40.1 13.7 78.7 27.5 120.5 34.1 91.3 14.3 183.8 18.7 275.7 25.9 93.5 7.1 187 20.9 280.6 29.7 43.5 4.4 86.4 6.6 129.9 11 47.8 4.9 94.6 17.6 141.9 25.3 91.9 14.3 187.1 18.2 279.6 26.4q67.1 6.1 134.2 10.5c41.3 2.7 159.6 0 171.2 1.1 86.3 12.1 173.3 13.7 259.7 28 38.5 6.1 77.6 13.8 116.6 16 6.6 0.5 14.3 0 21.5-2.2-28.1-12.7-55.6-27.5-83.1-41.3z"/>
							<path class="s1" d="m2296.3 767.1c-34.7-9.4-69.9-16-105.1-23.1-73.2-14.9-145.9-34.2-218.5-51.8-35.8-8.2-71.5-16.5-107.9-22.5-35.7-5.5-72-10.5-107.8-17.1-17.6-2.7-34.7-8.2-52.8-8.2-13.2 0-26.4 1.1-39.6-1.7-22.6-4.4-35.8-24.8-50.7-41.3 6.1 13.2 12.1 25.9 15.4 39.7 0.6 1.6-1.1 2.7-2.7 2.7-30.8-4.9-61.6-8.2-92.5-11-28-2.2-57.2-2.7-84.7-8.8-25.3-5.5-50.1-18.2-75.9-19.3-27-1.1-47.4 14.3-72.1 20.4-1.7 0.6-2.8-0.5-2.8-2.2-0.5-9.4-8.2-6.6-14.8-5q-8.3 1.1-16.5 3.9-18.7 5.5-36.4 13.8c-14.8 6.6-30.8 14.8-46.7 17.6-5.5 1.1-10.5 0-11.6-6.1-1.1-6.6-0.5-14.3 0.6-21.4q-2.8 6.6-5.5 12.6c-2.8 6.6-6.6 17.1-13.8 20.4-11 5.5-19.3-2.2-30.3-3.3-16.5-1.7-33-3.9-48.9-6.1-30.3-3.8-58.9-8.8-88.1-19.8-28-11-55.6-24.2-84.7-33.6-28.1-8.8-53.9-18.1-79.3-33.5-24.7-14.9-47.8-31.9-73.7-45.2-30.8-15.9-64.9-25.3-97.9-36.3q-40.2-13.7-80.4-26.4c-7.7 7.2-14.3 7.2-40.7 24.8-36.9 24.2-38 15.9-90.8 22.5-52.8 6.1-59.4 4.4-59.4 4.4l-7.2 58.9q1.7 0.6 3.3 0.6 0 2.2 0.6 3.3c9.3 19.2 53.9 25.3 72.1 31.9 40.1 13.7 78.7 27.5 120.5 34.1 91.3 14.3 183.8 18.7 275.7 25.9 93.5 7.1 187 20.9 280.6 29.7 43.5 4.4 86.4 6.6 129.9 11 47.8 4.9 94.6 17.6 141.9 25.3 91.9 14.3 187.1 18.2 279.6 26.4q67.1 6.1 134.2 10.5c41.3 2.7 159.6 0 171.2 1.1 86.3 12.1 173.3 13.7 259.7 28 38.5 6.1 77.6 13.8 116.6 16 6.6 0.5 14.3 0 21.5-2.2-26.4-12.1-51.7-25.3-77.6-38.5q-2.7-0.6-6-1.1z"/>
							<g>
								<path class="s2" d="m2116.3 651.5c-6.6-28.6-29.7-40.7-52.8-56.1q-8.3-5-15.4-11c-9.9 3.3-11-1.1-10.5-8.3q0-0.5 0-1.1-2.2-1.6-3.8-3.8c-5.5-1.1-16 0.5-24.2-1.1-11.6-1.7-20.9 1.6-27.5 10.4-6.7 9.4-13.8 14.3-27.6 13.8-14.3-0.6 16-16 21.5-24.2 5.5-8.8 18.2-13.8 24.8-14.9 7.1-0.5-25.4-22.5-42.4-17.6-16.5 5.5-20.9 6.6-30.8-9.3-9.4-16-20.4-11.1-39.1-16-18.2-5.5-15.9-5.5-27 2.7-10.4 8.9-18.1 2.2-25.8-8.8-7.2-11.5-12.7-10.4-25.9-7.1-13.2 2.7-15.4 9.9-18.7 29.2-3.3 18.7-6-1.1-8.2-22.1-2.2-21.4-7.2-11.5-16.6-25.3-9.3-13.2-18.1-19.2-34.1-15.9-15.9 3.3-29.7-24.2-35.7-44-6.1-20.4-14.9-14.9-24.2-30.9-8.9-16.5-10.5-8.8-9.4 1.1 1.7 9.9-3.3 16.5-8.3 1.1-4.4-15.4-19.8-32.4-27.5-45.1-7.7-12.6-10.4-8.2-11.5 1.7-0.6 10.4-5 14.8-7.2 3.8-1.6-11-4.4-26.9-12.6-20.3-8.3 6.6-7.7-14.3-13.8-3.3-6 10.4-6.6 14.8-6.6 26.4-0.5 12.1-4.9 15.9-13.2 26.4-8.8 9.9-9.4 9.3-5-6.1 4.5-14.8 6.1-25.3 3.4-30.2-2.3-4.4-6.1-6.6-2.3-24.2 3.4-17.7-3.8-5-10.4-1.1-7.2 3.8-17.1 13.2-25.9 26.4-8.8 12.6-9.9 10.4-6.6-1.1 3.3-11.6-17 7.1-31.3 16.5-14.3 9.3-20.4 24.2-36.9 41.2-16 17.1-9.4-2.7-3.3-11 5.5-8.8 5.5-19.8 1.6-14.3-3.8 5.5-10.4 16-25.8 18.7-15.4 2.8-17.1 7.7-38 22.6-20.3 14.9-16.5 4.4-11-5 5-9.3 10.5-15.9-2.7-7.7-13.8 8.8-21 0.6-29.2 11.1-8.8 11-24.2 23.6-26.4 8.2-1.7-14.9-13.8-19.8-23.7-5.5-9.9 14.3-10.4 0-17.6 6.1-7.1 6-3.3 31.9-12.1 48.9-8.8 17.6-3.3-36.3-4.4-44-1.1-7.7-1.1-13.7-19.3-29.7-18.7-16-14.8-36.9-20.3-44-5.5-7.7-7.7-9.9-11 9.9-2.8 19.2-3.3 8.2-12.1-3.3-8.8-12.1-1.1-13.2-14.3-25.9-13.2-12.6-13.8-22-18.2-14.8-4.4 7.1-2.7-2.8-3.3-13.3 0-10.4-22 17.1-25.3 28.1-3.9 11.6-11 23.1-17.1 34.1-5.5 11 1.1-18.1-1.6-24.7-2.2-6.6-2.8 4.9-17.6 12.1-14.9 7.7-20.4 22.5-30.8 31.9-11 8.8 3.3-12.7 6.6-19.3 3.8-7.1 0.5-23.6 8.2-23.6 7.7 0 20.9-21.5 20.4-27-1.1-4.9-10.5 3.9-18.2 12.1-7.7 7.7-29.1 23.1-36.8 24.2-7.2 1.1-14.4 4.4-16.6 16-2.7 11.5-39.6 9.3-45.1 9.9-4.9 1.1-15.9 5.5-14.3 13.7 1.7 8.8-2.7 45.2-6 55.1-3.9 9.9-7.2-20.9-12.1-30.3-5-9.4-2.8-17.6-2.2-30.3 0.5-12.1-22.1-18.1-27-25.3-5.5-7.1-6.1-7.7-9.9 0.6-3.9 7.7-8.3 30.2-5.5 45.6 2.7 15.5 4.9 15.5-3.3 31.4-8.3 16-8.8 1.7-5-13.7 3.9-15.5-7.7-26.5-7.1-36.9 0-9.9-3.3-30.8-8.3-46.8-4.9-15.9-15.9 6.1-20.3 9.4-4.4 2.7-9.4-11-12.1 3.8-2.2 14.3-5 16-16 22-10.5 6.1-16.5 12.7-20.9 19.3-4.4 6.6-2.8-8.8 5.5-20.9 7.7-12.1 3.3-19.3 9.3-25.9 5.6-6 6.7-9.9-4.4-11-11-1.6-14.3 0.6-24.2 12.7-10.4 12.1-23.1 18.1-36.3 21.4-13.7 3.9-15.4 4.4-23.6 14.3-8.8 10.5-23.7 9.4-27.6 1.7-3.3-7.7-12.6-3.9-22 3.8-8.8 7.7-31.3-13.7-41.2-20.9-10.5-7.1-7.2 0-19.8 13.2-13.3 12.7-14.4 1.1-19.3 5.5-4.4 5-6.6 11-17.1 14.9-9.9 3.8-22 11-42.3 35.2-19.8 24.2-54 24.2-66.1 37.4-12.1 13.8-11.5 21.5-55 21.5-16.5 9.9-46.2 5.5-46.8 6.6 0 0-0.5 6-1.6 17.1 0 0 6.6 1.6 59.4-4.4 52.8-6.7 53.9 1.6 90.8-22.6 36.3-24.2 35.2-15.4 50.1-36.9 14.3-22 37.9-36.8 49-43.4 10.4-7.2 9.9 10.4 37.4 8.8 28-2.2 46.2-6.6 61.6 6.6 15.4 13.2 32.5 31.9 49.5 37.9 17.1 6.1 23.7 9.9 30.8 19.3 7.2 9.3 23.1 20.9 34.7 25.8 12.1 5.6 22 20.4 41.3 21 19.2 0.5 20.3 8.2 41.8 4.4 22-4.4 35.8 12.1 53.4 6 17.6-6 37.9-5.5 52.8-16.5 14.9-11 15.4-12.6 34.7-7.1 19.8 5.5 39 7.1 51.1-3.9 12.7-11 46.3-42.9 65-49.5 18.7-7.2 33-2.8 48.4 15.9 14.8 18.7 15.4 25.3 31.9 27.5 16.5 1.7 13.8 17.1 31.9 15.5 17.6-2.2 26.4 13.7 39.6 24.2 12.7 11 17.1-7.7 44.1 4.9 26.9 12.1 51.7-2.2 68.7-11 17.1-8.8 25.9-24.7 40.8-33 15.4-8.8 30.2-27.5 34.1-38 3.3-9.9 5.5-23.1 23.6-29.1 18.2-6.1 32.5-27 44.6-15.4 12.1 11.5 13.8 17 50.1 19.2 35.8 1.7 65.5 6.6 77 24.8 11.6 17.6 22.6 49 57.8 67.7 35.2 19.2 61.1 43.4 85.8 38.5 24.8-5.5 22.6-1.7 28.7 15.4 6.6 17 18.7 18.7 20.9 29.2 1.6 9.9 17.6 13.7 35.2 11.5 17-2.2 21.4 3.9 29.1 13.2 7.8 8.8 28.1 10.5 50.1 3.3 22.6-7.1 28.6-4.9 35.2 1.1 6.6 6.6 17.6 13.2 39.1 5.5q9.9-4.4 18.7-6-1.1-3.3-2.2-7.2z"/>
								<path class="s3" d="m2005.7 536.5q-5.5-3.8-13.7-7.1c-23.7-10-22.6-27-39.1-26.5-16.5 0-34.1 0.6-50.6-9.3-16.5-9.4-39.7-22.6-54.5-18.2-15.4 4.4-33 12.1-46.2 7.7-12.7-4.4-23.7-19.8-39.7-26.4-16.5-6.6-32.4-17.6-32.4-32.4 0-14.9-14.3-33.6-31.9-51.8-18.2-18.7-67.2-48.9-77.6-73.7-11-24.8-22.6-30.3-25.3-38-3.3-8.2-9.4-20.3-35.3-4.4-25.3 16.5-31.3 14.9-34.1 25.3-3.3 10.5-6 16.5-22.5 20.9-17.1 5-32.5 25.4-39.1 36.9-7.1 11.6-29.2 30.3-50.1 31.9-20.9 1.7-35.7 7.2-46.2 13.2-9.9 5.5-13.7 12.7-22.6 10.5-8.8-2.2-39-17.6-46.7-12.1-7.2 5.5-13.2 12.1-25.9 11-12.6-1.7-12.6-12.1-23.1-24.2-11-12.1-42.4-44-51.7-58.4-9.4-14.3-24.2-41.2-40.2-42.9-15.4-1.1-40.7 24.2-52.3 32.5-11 7.7-23.6 14.3-37.4 16-13.7 1.6-16.5 28.6-30.3 33-13.7 3.8-29.1 12.6-38.5 15.4-9.3 2.2-19.2 1.1-28-2.8-8.8-4.4-13.8-10.4-22-19.8-7.7-9.9-20.4-12.6-32.5-16.5-12.1-3.3-26.4-8.8-29.2-18.2-3.3-8.8-16.5-12.6-41.2-1.1-24.8 11.6-36.4 26.5-45.7 32-9.4 6-33.6 17-46.2 24.2-12.1 7.1-22.6 20.9-32 17.6-8.8-2.8-19.2-11-28.6-20.4-8.8-8.8-18.7-2.2-26.9-13.2-7.7-11-15.4-13.7-23.1-7.1-8.3 6.6-14.3 11.5-26.5 13.2-12.1 1.6-26.4 20.3-41.8 36.3-14.8 15.4-38.5 49.5-51.7 54.5-12.7 4.4-26.4 10.4-40.2 18.7-13.7 8.2-39 31.9-55 41.8 43.5 0 42.9-7.7 55-21.5 12.1-13.2 46.3-13.2 66.1-37.4 20.3-24.2 32.4-31.4 42.3-35.2 10.5-3.9 12.7-9.9 17.1-14.9 4.9-4.4 6 7.2 19.3-5.5 12.6-13.2 9.3-20.3 19.8-13.2 9.9 7.2 32.4 28.6 41.2 20.9 9.4-7.7 18.7-11.5 22-3.8 3.9 7.7 18.8 8.8 27.6-1.7 8.2-9.9 9.9-10.4 23.6-14.3 13.2-3.3 25.9-9.3 36.3-21.4 9.9-12.1 13.2-14.3 24.2-12.7 11.1 1.1 10 5 4.4 11-6 6.6-1.6 13.8-9.3 25.9-8.3 12.1-9.9 27.5-5.5 20.9 4.4-6.6 10.4-13.2 20.9-19.3 11-6 13.8-7.7 16-22 2.7-14.8 7.7-1.1 12.1-3.8 4.4-3.3 15.4-25.3 20.3-9.4 5 16 8.3 36.9 8.3 46.8-0.6 10.4 11 21.4 7.1 36.9-3.8 15.4-3.3 29.7 5 13.7 8.2-15.9 6-15.9 3.3-31.4-2.8-14.8 1.6-37.9 5.5-45.6 3.8-8.3 4.4-7.7 9.9-0.6 4.9 7.2 27.5 13.2 27 25.3-0.6 12.7-2.8 20.9 2.2 30.3 4.9 9.4 8.2 40.2 12.1 30.3 3.3-9.9 7.7-46.3 6-54.5-1.6-8.8 9.4-13.2 14.3-14.3 5.5-0.6 42.4 1.6 45.1-9.9 2.2-11.6 9.4-14.9 16.6-16 7.7-1.1 29.1-16.5 36.8-24.2 7.7-8.2 17.1-17 18.2-12.1 0.5 5.5-12.7 27-20.4 27-7.7 0-4.4 16.5-8.2 23.6-3.3 6.6-17.6 28.1-6.6 19.3 10.4-9.4 15.9-24.2 30.8-31.9 14.8-7.2 15.4-18.7 17.6-12.1 2.7 6.6-3.9 35.7 1.6 24.7 6.1-11 13.2-22.5 17.1-34.1 3.3-11 25.3-38.5 25.3-28.1 0.6 10.5-1.1 20.4 3.3 13.3 4.4-7.2 5 2.2 18.2 14.8 13.2 12.7 5.5 13.8 14.3 25.9 8.8 11.5 9.3 23.1 12.1 3.3 3.3-19.8 5.5-17.6 11-9.9 5.5 7.1 1.6 28 20.3 44 18.2 16 18.2 22 19.3 29.7 1.1 7.7-4.4 61.6 4.4 44 8.8-17 5-42.9 12.1-48.9 7.2-6.1 7.7 8.2 17.6-6.1 9.9-14.3 22-9.4 23.7 5.5 2.2 15.4 17.6 2.8 26.4-8.2 8.2-10.5 15.4-2.3 29.2-11.1 13.2-8.2 7.7-1.6 2.7 7.7-5.5 9.4-9.3 19.9 11 5 20.9-14.9 22.6-19.8 38-22.6 15.4-2.7 22-13.2 25.8-18.7 3.9-5.5 3.9 5.5-1.6 14.3-6.1 8.3-12.7 28.1 3.3 11 16.5-17 22.6-31.9 36.9-41.2 14.3-9.4 34.6-27.5 31.3-16.5-3.3 11.5-2.2 13.7 6.6 1.1 8.8-13.2 18.7-22.6 25.9-26.4 6.6-3.9 13.8-16.6 10.4 1.1-3.8 17.6 0 19.8 2.3 24.2 2.7 4.9 1.1 15.4-3.4 30.8-4.4 14.8-3.8 15.9 5 5.5 8.3-10.5 12.7-14.3 13.2-26.4 0-11.6 0.6-16 6.6-26.4 6.1-11 5.5 9.9 13.8 3.3 8.2-6.6 11 9.3 12.6 20.3 2.2 11 6.6 6.6 7.2-3.8 1.1-9.9 3.8-14.3 11.5-1.7 7.7 12.7 23.1 29.7 27.5 45.1 5 15.4 10 8.8 8.3-1.1-1.1-9.9 0.5-17.6 9.4-1.1 9.3 16 18.1 10.5 24.2 30.9 6 19.8 19.8 47.3 35.7 44 16-3.3 24.8 2.7 34.1 15.9 9.4 13.8 14.4 3.9 16.6 25.3 2.2 21 4.9 40.8 8.2 22.1 3.3-19.3 5.5-26.5 18.7-29.2 13.2-3.3 18.7-4.4 25.9 7.1 7.7 11 15.4 17.7 25.8 8.8 11.1-8.2 8.8-8.2 27-2.7 18.7 4.9 29.7 0 39.1 16 9.9 15.9 14.3 14.8 30.8 9.3 17-4.9 49.5 17.1 42.4 17.6-6.6 1.1-19.3 6.1-24.8 14.9-5.5 8.2-35.8 23.6-21.5 24.2 13.8 0.5 20.9-4.4 27.6-13.8 6.6-8.8 15.9-12.1 27.5-10.4 8.2 1.6 18.7 0 24.2 1.6-10.5-11-19.8-22.5-28.1-35.2z"/>
							</g>
						</g>
						<g>
							<path class="s4" d="m2373.8 785.8c-2.2-1.1-746.7-153.5-940.9-172.3-35.8-3.8-71.5-3.3-107.9 0.6q-12.1 3.3-24.7 7.1c-29.7 8.9-58.9 18.8-88.1 29.8-17 6.6-32.4 14.3-50.6 8.8-12.6-3.9-24.8-8.3-37.4-9.4-12.7-1.1-23.7 1.7-35.8 4.4-24.2 5.5-44.5 0-67.7-9.9-26.4-11.5-52.2-25.9-79.2-36.3-24.8-9.9-47.9-22-71-36.3-14.3-8.8-28-17.6-42.9-24.2-14.9-7.2-30.8-11-45.7-17.6-28-11.6-54.5-25.9-80.3-42.4-27.5-17.6-52.3-39.6-79.3-57.2-28.6-18.8-57.2-30.3-89.6-39.1-16-4.4-32-9.4-47.4-15.4-6.6-2.2-13.2-5.5-19.8-6.6-9.3-1.7-15.4 0.5-23.1 6-6 5-14.3 13.2-22.5 11-11.1-2.7-23.2-18.1-34.7-15.4-12.1 2.8-23.1 9.4-34.7 14.9-11.5 5.5-23.1 11-34.6 17-25.9 14.4-51.2 30.9-75.4 48.5-99.1 73.7-184.4 168.3-293.9 226.1-28 14.9-57.2 28.1-86.4 40.2-30.8 12.7-63.2 23.7-93.5 37.4-19.3 8.8-37.4 19.3-57.2 26.4-9.4 3.3-21.5 7.7-32.5 7.7-5 3.9-8.3 9.9-3.3 15.4 9.3 9.9 27.5 12.7 39.6 15.4 17.6 5 36.3 7.2 54.5 9.9 46.2 6.1 93.5 4.5 140.3 7.8-13.2 4.9-26.4 9.3-34.7 22-13.2 19.8 30.3 16.5 38 17 79.2 3.3 158.5-1.6 237.7-4.4 80.9-2.7 160.7-2.2 241-9.9 38.6-3.8 77.1-7.1 115.6-12.1 29.7-3.8 63.8-0.5 91.3-12.6 2.2-0.6 8.8-6.1 6.6-9.4-9.3-12.7-32.4-14.3-48.4-18.2 27.5-2.2 55-7.7 83.1-9.3 36.9-2.8 74.8 0 112.3 0q22 0 44 0 17.6 1.6 34.6 3.3c-11 3.3-21.4 6.6-31.9 12.1-12.6 7.1-25.8 9.9-36.3 20.4-1.1 0.5-3.3 3.8-2.2 5.5 9.4 9.9 24.8 10.4 36.9 12.1 17.6 3.3 34.1 6 51.7 7.1 128.8 10.5 257.5 20.9 386.8 18.7 85.9-1.6 171.7-9.9 257.6-13.7 44.5-2.2 89.7-2.8 134.2-7.2 20.4-1.6 42.4-6.6 62.8-6.6 12.1 0 23.6-1.1 34.6-5.5 2.2-1.1 9.9-7.7 6.1-10.4q-2.8-1.7-5.5-2.8c177.7 2.2 718.1-5.5 649.8-48.4z"/>
							<path class="s5" d="m2373.8 785.8c-2.2-1.1-746.7-153.5-940.9-172.3-35.8-3.8-71.5-3.3-107.9 0.6q-12.1 3.3-24.7 7.1c-29.7 8.9-58.9 18.8-88.1 29.8-17 6.6-32.4 14.3-50.6 8.8-12.6-3.9-24.8-8.3-37.4-9.4-12.7-1.1-23.7 1.7-35.8 4.4-24.2 5.5-44.5 0-67.7-9.9-26.4-11.5-52.2-25.9-79.2-36.3-24.8-9.9-47.9-22-71-36.3-14.3-8.8-28-17.6-42.9-24.2-14.9-7.2-30.8-11-45.7-17.6-28-11.6-54.5-25.9-80.3-42.4-27.5-17.6-52.3-39.6-79.3-57.2-28.6-18.8-57.2-30.3-89.6-39.1-16-4.4-32-9.4-47.4-15.4-6.6-2.2-13.2-5.5-19.8-6.6-9.3-1.7-15.4 0.5-23.1 6-6 5-14.3 13.2-22.5 11-11.1-2.7-23.2-18.1-34.7-15.4-12.1 2.8-23.1 9.4-34.7 14.9-9.3 4.4-18.7 8.8-28 13.7q9.3-1.1 18.1-1.1c1.7 0 2.8 1.7 2.2 3.3-6 19.9-19.2 36.4-31.9 52.9 23.7-16 42.4-39.1 70.4-46.8 2.2-0.6 3.3 1.1 2.8 2.7-5.5 39.7-26.4 73.2-47.3 106.2 14.8-17.6 31.3-33.5 51.7-44 1.6-1.1 3.3 0 3.3 1.7 2.7 45.1-12.1 89.1-22 132-5 19.3-11 34.2-23.1 50.1q-8.3 10.7-14.9 23.1c-1.6 3.3-4.4 7.2-5.5 11-2.2 7.2 5.5 9.4 10.5 11.6 1.1 0.5 2.2 2.7 1.1 3.8-25.3 19.8-60.6 16-90.3 24.8 58.3 23.7 126.6-3.9 184.9 23.7 1.7 1.1 1.1 3.8-0.5 4.4-58.4 15.9-119.4 17-179.4 22-36.3 2.7-72.1 11-108.4 15.9 60.5 0.6 121-0.5 181.6-1.1 36.3 0 73.1-2.7 109.5-3.3 31.3 0 63.2 2.2 91.9 16 1.6 0.5 1.6 3.3 0 3.8-32 20.4-74.9 22.1-111.8 24.8-48.9 3.3-97.3 8.3-146.3 12.1-56.1 5-112.8 9.9-169.5 10.5-27 0-54.5-1.1-81.4-1.1-21.5-0.6-44.1 2.2-64.4-6.1-1.7-0.5-2.8-2.7-1.1-3.8 18.7-17.7 43.4-27.6 67.7-36.4-38.6-0.5-77.6 1.7-116.1 2.2-21 0-41.9 0-62.8-1.6-15.9-1.1-34.1-1.7-49.5-7.2-23.1-8.2-3.3-27.5 8.3-37.9-22.1 12.6-45.7 24.7-71.6 23.6-2.2 0-2.7-2.7-1.6-3.8 8.8-9.9 18.1-18.7 28-27-14.8 7.2-30.2 15.4-45.6 20.9-9.4 3.3-21.5 7.7-32.5 7.7-5 3.9-8.3 9.9-3.3 15.4 9.3 9.9 27.5 12.7 39.6 15.4 17.6 5 36.3 7.2 54.5 9.9 46.2 6.1 93.5 4.5 140.3 7.8-13.2 4.9-26.4 9.9-34.7 22-13.2 19.8 30.3 16.5 38 17 79.2 3.3 158.5-1.6 237.7-4.4 80.9-2.7 160.7-2.2 241-9.9 38.6-3.8 77.1-7.1 115.6-12.1 29.7-3.3 63.8-0.5 91.3-12.6 2.2-0.6 8.8-6.1 6.6-9.4-9.3-12.7-32.4-14.3-48.4-18.2 27.5-2.2 55-7.7 83.1-9.3 36.9-2.8 74.8 0 112.3 0q22 0 44 0 17.6 1.6 34.6 3.3c-11 3.3-21.4 6.6-31.9 12.1-12.6 7.1-25.8 9.9-36.3 20.4-1.1 1.1-3.3 3.8-2.2 5.5 9.4 9.9 24.8 10.4 36.9 12.1 17.6 3.3 34.1 6 51.7 7.1 128.8 10.5 257.5 20.9 386.8 18.7 85.9-1.6 171.7-9.9 257.6-13.7 44.5-2.2 89.7-2.8 134.2-7.2 20.4-1.6 42.4-6.6 62.8-6.6 12.1 0 23.6-1.1 34.6-5.5 2.2-1.1 9.9-7.7 6.1-10.4q-2.8-1.7-5.5-2.8c177.7 2.2 718.1-5.5 649.8-48.4zm-944.8-150.8c-22.5 11.6-44 24.2-65.4 37.4-19.3 11-38.6 24.2-59.5 31.4-39 13.7-82.5 13.2-119.9 31.4 55.5 13.7 124.3-12.7 171.7 26.4 1.1 1.1 0.5 2.2 0 3.3-11.1 13.7-30.9 20.9-46.8 25.8-20.4 6.6-41.3 11.6-62.2 15.4-25.3 4.4-50.1 8.8-75.9 7.7-29.2-1.1-60-9.3-89.2-6 18.7 11 41.8 14.3 56.1 31.9 1.1 1.1 1.1 3.3-1.1 3.9-46.2 10.4-94.6-1.7-141.4-6.1-31.9-2.7-63.3-7.2-95.2-7.7-22.5 0-46.7 7.2-68.2-1.7-1.7-0.5-2.2-2.2-0.6-3.8 31.4-34.7 74.9-61.1 119.5-79.8-22.6 7.2-45.2 14.3-68.8 14.9-2.2 0-3.3-3.3-1.1-4.4 48.9-28.7 102.3-45.2 156.8-60.6 20.4-5.5 39.1-14.3 58.9-21.4 9.3-3.3 30.2-11.6 37.4-0.6 2.7 3.9 3.3 8.8 5.5 12.7 4.4 7.7 10.5 4.4 16.5 0.5 11-6 23.1-9.3 34.7-13.7q14.3-4.4 28.6-9.4c31.4-14.8 63.8-28 97.4-38.5 18.7-5.5 36.3-10.5 55.6-7.2 18.7 3.3 36.8 10 56.1 13.8 1.6 0.6 2.2 3.3 0.5 4.4z"/>
							<path class="s5" d="m2373.8 785.8c-2.2-1.1-746.7-153.5-940.9-172.3q-28.6-2.7-57.2-2.7 19.2 1.1 38.5 3.3c36.8 3.8 71.5 13.8 106.7 24.2 38 11.6 76.5 23.7 116.1 27 33.6 3.3 67.2 2.7 99.6 13.2 2.2 0.5 2.2 3.8 0 4.4-11.5 2.2-23.6 4.9-35.2 7.7 27.5 5.5 55 12.6 82.6 18.7 29.1 6 58.8 9.3 88 14.8 51.2 9.4 103.4 24.8 145.8 57.3 1.7 1.1 1.1 3.8-1.1 3.8-67.7 5-135.3 8.3-202.5 15.4-2.7 0.6-2.7-3.3-0.5-4.4 17-7.1 35.2-13.7 49.5-24.7-65.5 8.8-133.2-3.9-198.1 10.4 8.8 2.8 18.2 5 27 8.3 2.2 0.5 2.2 3.8 0 4.4-7.2 2.7-14.3 4.9-21.5 7.7 5.5 4.4 11.6 8.8 17.6 12.6 1.1 0.6 1.7 2.2 0.6 3.3-8.3 11.6-26.5 13.8-39.1 16-20.9 2.8-41.8 3.3-62.7 3.3-58.9 0.6-117.2 4.4-176.1 6.1-2.2 0.5-2.8-2.8-1.1-3.9 21.4-16 45.1-27.5 69.3-38.5-23.1 1.6-45.7 6-68.2 11-11 2.2-22 4.9-33 6.6-10.5 1.1-24.2 1.6-33.1 8.2-4.9 3.3-3.3 11.1-7.1 15.5-2.8 3.8-2.2 8.2-5 11.5-9.3 10.5-30.8 10.5-42.9 11.6-30.8 2.7-61.1 8.8-91.3 14.8q17.6 0 35.7 0c85.9-1.6 171.7-9.9 257.6-13.7 44.5-2.2 89.7-2.8 134.2-7.2 20.4-1.6 42.4-6.6 62.8-6.6 12.1 0 23.6-1.1 34.6-5.5 2.2-1.1 9.9-7.7 6.1-10.4q-2.8-1.7-5.5-2.8c177.7 2.2 718.1-5.5 649.8-48.4z"/>
							<path class="s5" d="m794.6 801.2q17.6 1.6 34.6 3.3c-11 3.3-21.4 6.6-31.9 12.1-12.6 7.1-25.8 9.9-36.3 20.4-1.1 0.5-3.3 3.8-2.2 5.5q1.7 1.6 3.3 2.7c8.8-8.2 20.9-14.3 30.8-18.7 11.6-5.5 23.7-9.9 34.1-16.5 18.8-12.1 35.8-26.4 53.4-40.2-8.8-2.7-17.6-3.8-26.9-6-1.1 0-2.2-2.8-0.6-3.9 58.9-45.7 134.3-55.6 202.5-80.3 13.2-5 25.9-12.1 39.6-15.4 11-2.8 22-5 33.6-7.2q7.1-1.6 14.3-2.7c-6.1-1.7-12.7-3.3-18.7-3.9-12.7-1.1-23.7 1.7-35.8 4.4-24.2 5.5-44.5 0-67.7-9.9-26.4-11.5-52.2-25.9-79.2-36.3-24.8-9.9-47.9-22-71-36.3-14.3-8.8-28-17.6-42.9-24.2-14.9-7.2-30.8-11-45.7-17.6-28-11.6-54.5-25.9-80.3-42.4-27.5-17.6-52.3-39.6-79.3-57.2-28.6-18.8-57.2-30.3-89.6-39.1-16-4.4-32-9.4-47.4-15.4-6.6-2.2-13.2-5.5-19.8-6.6-9.3-1.7-15.4 0.5-23.1 6-6 5-14.3 13.2-22.5 11q-1.7-0.5-3.9-1.1 1.1 3.9 2.2 7.7c6.6 16.5 21.5 26.5 30.3 41.9 6.6 12.6 9.3 27.5 14.3 40.7 0-19.8-2.2-40.2-6.1-60-0.5-2.2 1.1-3.9 3.3-2.8 26.4 16.6 47.3 40.2 71 61.1 12.7 11 27 22 42.4 29.2 16.5 7.7 32.4 8.2 49.5 11 36.9 6.1 63.8 27.5 92.4 50.1 16.6 12.6 33.6 24.2 51.2 35.2 14.3 8.8 29.7 15.9 41.8 28.6 1.7 1.7 0 4.4-2.2 3.9-28-7.2-56.6-12.7-85.3-17.7 24.3 26.5 110.1 114 62.2 129.9-12.1 3.9-25.3 3.9-38.5 5q-31.4 3.3-62.7 5.5c-45.7 3.3-91.4 5.5-137 7.7-1.7 0-3.3-2.2-2.2-3.9 6.6-9.9 16.5-17.6 24.2-26.9 4.9-6.1 12.6-16 9.3-24.8-2.2-5.5-7.1-10.5-11.5-14.9-7.7-7.7-17.6-14.3-23.7-23.6-7.7-11.6-13.7-24.2-23.7-34.1-2.7 31.3 7.8 61 12.7 91.3 1.1 7.7 3.3 16.5 0 24.2-2.7 6.6-8.8 12.7-13.8 18.7 23.7 9.4 51.2 2.2 74.3 13.8 1.1 1.1 1.1 3.3 0 4.4-19.8 12.1-41.2 22-61 34.6 8.8 1.1 17.6 2.2 25.3 5.5 1.6 1.1 1.6 3.3 0 4.4-12.7 7.8-27 10.5-41.9 11.6-15.4 1.7-31.3 4.4-46.7 7.2-15.4 2.7-30.8 5.5-45.7 9.3 28.6-2.2 57.2-4.9 85.3-8.8 29.7-3.8 63.8-0.5 91.3-12.6 2.2-0.6 8.8-6.1 6.6-9.4-9.3-12.7-32.4-14.3-48.4-18.2 27.5-2.2 55-7.7 83.1-9.3 36.9-2.8 74.8 0 112.3 0q22 0 44 0z"/>
							<g>
							</g>
							<g>
								<path class="s6" d="m2233.5 792.9c0 0-2.2-13.2-8.8-17 0 0 8.3 3.8 9.4 8.2 0 0 0-9.9-0.6-11.5 0 0 4.4 7.1 5 11 0.5 3.8 6-8.3 6-8.3l5 11c0 0 1.1-11.5-1.7-16.5 0 0 8.3 12.7 8.3 16.5 0 0-2.2-17.6-5.5-20.9 0 0 8.2 7.7 8.2 19.8 0 0 2.8-10.4 10.5-11 0 0-6.6 2.8-5 11l5.5-4.4c0 0-4.4 7.7-2.7 11 0 0 2.2 3.9-6.1 3.3-8.8-0.5-27.5-2.2-27.5-2.2z"/>
								<path class="s6" d="m2219.2 796.2c0 0-6.6-4.9-10.4-6 0 0 8.2-1.1 15.4 4.9 0 0-9.9-11.5-17.1-11.5 0 0 11.6-1.1 20.9 9.3 0 0-2.2-9.9-9.3-10.4 0 0 14.3-1.1 16.5 8.8 0 0-2.2-7.7-6.6-10.5 0 0 8.2 2.8 9.3 8.3l0.6-5.5 2.2 6 3.3-5.5 0.5 5c0 0 1.1-6.1 7.7-7.2 0 0-3.3 6.1-2.7 8.8 0 0 2.7-4.9 9.3-5.5 0 0-4.9 5-4.9 7.2 0 0 8.8-7.2 15.4-8.3 0 0-6.1 7.2-6.1 10.5 0 0 3.9-6.6 16-8.3 0 0-7.2 3.3-8.3 5 0 0 6.6-3.3 11.6-1.7 0 0-8.3 0-11 4.4l12.1 0.6h-9.9l2.2 2.2-8.3-0.6 1.1 1.7-8.8-1.7v1.1l-3.8 1.7-7.2-0.6-3.3-1.1-2.7 1.1-2.2-1.1-5 2.2v-2.2l-7.7 2.8 1.7-2.2-6.6 2.2 1.6-1.7-7.7 1.1 1.7-1.6h-10.5z"/>
							</g>
							<g>
								<path class="s6" d="m977.8 855.1c0 0-2.2-12.6-8.8-16.5 0 0 8.3 3.9 9.4 8.3 0 0 0-9.9-0.6-11.6 0 0 4.4 7.2 5 11 0.5 3.9 6-8.2 6-8.2l5 11c0 0 1.1-11.6-1.7-16.5 0 0 8.8 12.6 8.3 15.9 0 0-2.2-17.1-5.5-20.9 0 0 8.2 8.3 8.2 20.4 0 0 2.8-11 10.5-11 0 0-6.6 2.7-5 10.4l5.5-4.4c0 0-4.4 8.3-2.2 11.6 0 0 2.2 3.8-6.6 3.3-8.8-0.6-27.5-2.8-27.5-2.8z"/>
								<path class="s6" d="m963.5 858.4c0 0-6.6-4.9-10.4-5.5 0 0 8.2-1.1 15.4 5 0 0-9.9-11.6-17.1-11.6 0 0 11.6-1.1 20.9 9.4 0 0-1.6-9.9-9.3-10.5 0 0 14.3-1.1 16.5 8.8 0 0-2.2-7.7-6.1-11 0 0 7.7 2.8 8.8 8.3l0.6-5 2.2 6.1 3.3-5.5 0.5 4.9c0 0 1.1-6.6 7.7-7.1 0 0-3.3 5.5-2.7 8.8 0 0 2.7-5 9.3-5.5 0 0-4.9 4.9-4.9 7.1 0 0 8.8-7.1 15.4-8.8 0 0-6.1 7.2-6.1 11 0 0 3.9-7.1 16-8.8 0 0-6.6 3.3-8.3 5.5 0 0 6.6-3.3 11.6-1.6 0 0-8.3 0-11 3.8l12.6 0.6-10.4 0.5 2.2 1.7-8.3-0.6 1.1 1.7-8.8-1.1v1.1l-3.8 1.6-7.2-0.5-3.3-1.1-2.2 0.5-2.7-0.5-5 2.2v-2.2l-7.7 2.7 1.7-2.2-6.6 2.2 1.6-1.6-7.7 1.1 1.7-1.7h-10.5z"/>
							</g>
							<path class="s7" d="m366.5 531c-1.7-12.7-37.4 7.7-40.7 8.8-7.7 3.3-14.9 7.2-22.6 10.5-17.1 7.7-1.7-14.3-1.1-15.4 8.2-14.9 15.4-30.3 20.9-46.8 2.2-6.6 8.3-16.5 0.6-20.9-8.3-5-33.1 15.4-38 17.6-8.3 4.4-22 6.6-33 11 4.4-8.3 9.9-16.5 15.9-24.8 5.5-7.7 12.1-17 10.5-26.9-0.6-1.1-2.2 0-2.8 0-12.1 7.1-22.5 17.6-32.4 27.5-16 15.9-34.1 29.7-48.5 46.7-15.4 18.2-35.2 32-54.4 45.7-20.9 15.4-40.8 33-61.1 49.5-44.6 36.4-91.9 70.5-144.7 93.6q-33.6 14.3-66.6 29.2c-12.7 5.5-28.1 10.4-38.5 20.3-0.6 0.6-2.2 2.8-0.6 2.8 18.7 3.8 42.9-6.6 60.5-13.2 23.2-8.8 45.7-18.2 67.7-29.8q-2.7 2.8-4.9 6.1c-9.9 11-23.1 17.6-31.9 30.3 0 0.5-1.1 2.2 0 2.7 8.8 1.7 15.9 0 24.7-2.2 14.9-3.8 31.4-2.7 46.8-2.7 27.5 0 53.4 6.6 79.2-5 23.1-10.4 45.2-25.3 65-40.7 22-17.1 46.2-34.1 66.5-53.9-2.2 5.5-4.4 11.5-2.7 16.5q0 1.1 1.1 1.1c20.4-2.2 42.9-36.3 56.1-49.6 12.7-12.6 34.1-42.9 49-20.3 2.7 3.8 6.6 10.4 12.7 8.8 12.6-3.3 20.9-19.3 26.9-29.2 8.3-12.6 22.6-31.3 20.4-47.3z"/>
							<path class="s7" d="m1234.8 681.8c-21.5 9.3-41.8 19.2-64.9 25.8-22.6 6.6-45.2 11-68.8 13.2-1.7 0.6-2.8-1.6-1.7-3.3 6.6-11.5 14.9-22 23.1-32.4-26.9 7.7-55.5 13.2-82.5 22.5q-10.5 5-21.5 9.4-3.8 2.2-7.7 4.4c-13.7 8.3-26.9 17.1-41.2 24.8q-0.6 0-1.1 0.5c5.5 0.6 11-1.1 17-2.2 21.5-4.9 1.1 3.9-2.2 5.5q-13.7 5.5-27.5 12.1c-24.2 11.6-46.2 25.9-65.5 45.1-0.5 0.6-2.2 3.3 0 3.9 50.7 3.3 97.4 11.5 148 1.1 1.7-0.6 5-2.8 5-5-1.6-8.8-12.7-11.5-24.2-12.6 14.8-5 29.2-13.8 42.4-21.5 15.4-8.8 31.3-16.5 46.7-24.7 5.5-3.3 24.2-15.4 14.3 0.5-2.2 3.9-4.4 7.7-6 11.6-7.2 16.5 35.8 8.2 41.3 8.2 10.4-0.5 17 1.7 25.8 6.1 1.1 1.1 4.4 3.3 7.2 5.5 6.6-7.7 14.3-14.3 23.1-18.7-20.9-11-43.5-18.7-64.9-28.6-1.7-0.6-1.1-3.3 0.5-3.9 40.2-14.3 82-22 122.2-35.2 35.2-11.6 73.1-26.4 98.5-54.5q0-0.5-0.6-0.5c-45.1 13.7-91.9 23.1-134.8 42.9z"/>
							<g>
								<path class="s6" d="m-71 850.2c0 0-2.2-12.7-8.8-16.5 0 0 8.3 3.8 9.4 8.2 0 0-0.6-9.9-1.1-12.1 0 0 4.9 7.7 5.5 11.6 0.5 3.8 5.5-8.8 5.5-8.8l5.5 11c0 0 1.1-11-1.7-16.6 0 0 8.3 12.7 8.3 16.6 0 0-2.2-17.1-5.5-21 0 0 8.2 8.3 8.2 20.4 0 0 2.8-11 10.5-11 0 0-6.6 2.2-5 10.5l5.5-4.4c0 0-4.4 8.2-2.7 11 0 0 2.2 3.8-6.6 3.8-8.3-0.5-27-2.7-27-2.7z"/>
								<path class="s6" d="m-85.3 853.5c0 0-7.1-5-10.4-5.5 0 0 7.7-1.1 15.4 4.9 0 0-9.9-11.5-17.1-12.1 0 0 11.6-0.5 20.9 9.9 0 0-2.2-10.4-9.3-10.4 0 0 14.3-1.1 16.5 8.2 0 0-2.2-7.7-6.6-10.4 0 0 8.2 2.7 9.3 8.2l0.6-4.9 2.2 6 2.7-5.5 1.1 4.4c0 0 1.1-6 7.7-6.6 0 0-3.3 5.5-2.7 8.8 0 0 2.7-5.5 9.3-5.5 0 0-4.9 4.4-4.9 7.2 0 0 8.8-7.7 15.4-8.8 0 0-6.1 7.1-6.1 11 0 0 3.3-7.2 16-8.8 0 0-7.2 3.3-8.3 5.5 0 0 6.6-3.3 11.6-1.7 0 0-8.3 0-11 3.9l12.1 0.5-9.9 0.6 2.2 1.6-8.3-0.5 1.1 1.6-8.8-1.1-0.5 0.6-3.9 1.6h-6.6l-3.3-1.1-2.7 0.6-2.2-0.6-5.5 2.2v-2.2l-7.7 2.8 2.2-2.2-6.6 1.6 1.6-1.6-8.2 1.1 2.2-1.1-11-0.6z"/>
							</g>
							<path class="s8" d="m499.1 655.9c-3.9-26.4-7.7-53.4-18.7-77.6-13.2-30.2-23.1-61.6-35.2-92.4-6.1-15.4-14.3-44-30.3-51.7-1.7-0.6-5 2.2-5 3.8-1.6 14.3 1.7 28.1 2.2 42.4q0.6 17 2.8 33.5c-0.6 17.1-1.1 33.6-1.7 50.7-0.5 12.6-1.6 25.3-1.6 37.9 0 14.3 5.5 27 7.7 40.8 0.6 3.8 8.3-2.8 8.3-4.4 3.8-19.9 5.5-40.8 6.6-60.6 0.5-4.4 2.7-29.1 6-12.1 2.8 11.6 4.4 22.6 7.7 34.1 5.5 20.4 17.6 39.7 26.4 58.4 9.9 20.3 17.1 44.5 30.3 63.2 0.5 1.1 3.3-1.6 3.3-2.2 2.7-20.9-6.1-43.4-8.8-63.8z"/>
							<path class="s8" d="m693.9 604.2c-13.8-14.3-28.1-27-46.2-34.7-24.3-11-50.7-13.7-74.3-26.4-20.9-11-39.6-28.6-54-47.3-11.5-15.4-20.3-32.5-36.8-42.9-2.2-1.7-5 2.2-5.5 3.8 0 11 3.8 20.4 7.7 30.3 2.2 22 8.2 44.6 13.7 65.5 6.6 23.6 11 35.2 32 49.5 23.1 16.5 42.3 42.4 62.1 63.3 15.4 15.9 30.8 39.6 51.2 49.5 1.7 1.1 3.9-1.7 4.4-2.8 6.1-11-1.1-23.1-2.7-34.6 24.2 2.2 60.5 4.9 80.3-11 23.7-18.7-19.3-49.6-31.9-62.2z"/>
							<path class="s7" d="m296.6 633.4q0-5.5-1.1-10.5c0-2.8-4.4 0-5.5 0.5-11.6 11.1-22.6 24.8-31.4 38.6q-12.1 12.6-23.6 25.3c-4.4 4.4-8.8 8.8-12.1 13.2-6.6 7.7-17.7 8.8-27 11.5-33 10.5-61.1 38-95.2 44.6-1.1 0.6-3.9 2.2-2.8 3.9 5 7.7 14.4 4.9 21.5 8.2-11.5 4.4-27 5-38 7.2-17.6 3.3-35.2 5.5-51.7 11.5-0.5 0.6-4.4 3.3-2.2 3.9 15.4 5.5 36.9 3.8 52.8 2.7 21.5-1.1 43-4.9 63.3-11 25.9-7.7 51.2-13.7 78.7-14.3 19.8 0 43.5 6.1 62.7 0.6 1.7 0 3.3-1.7 3.9-3.3 4.9-18.7-76.5-16-102.4-18.2 13.8-6.6 27.6-13.7 40.8-21.5 11.5-6.6 23.1-12.6 35.2-18.7 6.6-3.8 16.5-6 22.5-11 5-3.8 9.4-8.8 9.9-15.4 0.6-13.2 2.2-26.9 1.7-40.7q0.5 0 0.5-0.5c1.1-3.9 0.6-6.1-0.5-6.6z"/>
							<path class="s8" d="m1798.3 751.1c-13.8-8.8-30.3-9.9-46.8-12.6-20.4-3.3-40.7-7.7-61.6-11.1-20.9-3.3-41.3-7.7-62.2-11.5-13.2-2.2-31.9-2.2-45.7-7.7 10.5-1.7 20.9-2.8 31.4-3.9 12.1-1.1 24.7-6.6 36.8-8.2 1.7-0.6 7.7-6.6 3.9-6.6-14.9-0.6-28.6-6.1-42.9-7.7-19.3-1.7-38.5-3.3-57.8-7.7-14.3-3.3-27.5-9.4-42.4-12.1-14.3-2.8-28.6-1.1-42.9-5.5-9.3-2.2-25.9-17.1-34.7-5-16.5 23.1-47.3 35.8-68.2 55-0.5 0.6-4.4 5-1.1 4.4 4.4 0 8.3-1.1 12.1-2.2q-3.8 3.9-7.1 7.7c-1.1 1.7-2.8 4.4 0.5 3.9 15.4-2.8 29.7-8.8 44-15.4q8.8-4.4 17.6-8.8c-2.2 1.1-15.9 16.5-15.4 15.9-6.6 6.6-12.1 11.6-14.8 20.4 0-1.1 6 23.7 4.9 15.4 1.7 9.4 6.1 19.3 9.4 28.1 1.1 2.2 4.4-0.6 4.9-1.1 8.3-8.3 11-18.2 17.1-28.1 1.6-2.2 9.3-19.8 16.5-14.8 5 3.3 7.2 7.7 12.7 11 12.6 6.6 28 11.5 41.2 17.6 16 7.1 32.5 11 50.1 13.2 15.4 2.2 30.8-5 46.2-8.3 20.9-4.4 42.9-5.5 64.4-6.6 41.8-1.1 84.2 3.3 125.5-1.6 1.6-0.6 7.1-4.4 4.4-6.1z"/>
						</g>
					</g>
				</g>
			</g>
		</g>
	</g>
</svg>