<svg version="1.2" xmlns="http://www.w3.org/2000/svg" viewBox="0 0 378 142" width="2080" height="781">
	<title>2770107_16629</title>
	<defs>
		<clipPath clipPathUnits="userSpaceOnUse" id="cp1">
			<path d="m0 0h378.55v143.45h-378.55z"/>
		</clipPath>
		<clipPath clipPathUnits="userSpaceOnUse" id="cp2">
			<path d="m0 0h378.55v143.45h-378.55z"/>
		</clipPath>
		<clipPath clipPathUnits="userSpaceOnUse" id="cp3">
			<path d="m0 0h378.55v143.45h-378.55z"/>
		</clipPath>
		<clipPath clipPathUnits="userSpaceOnUse" id="cp4">
			<path d="m0 0h378.55v143.45h-378.55z"/>
		</clipPath>
		<clipPath clipPathUnits="userSpaceOnUse" id="cp5">
			<path d="m0 0h378.55v143.45h-378.55z"/>
		</clipPath>
		<clipPath clipPathUnits="userSpaceOnUse" id="cp6">
			<path d="m0 0h378.55v143.45h-378.55z"/>
		</clipPath>
		<clipPath clipPathUnits="userSpaceOnUse" id="cp7">
			<path d="m0 0h378.55v143.45h-378.55z"/>
		</clipPath>
		<clipPath clipPathUnits="userSpaceOnUse" id="cp8">
			<path d="m0 0h378.55v143.45h-378.55z"/>
		</clipPath>
		<clipPath clipPathUnits="userSpaceOnUse" id="cp9">
			<path d="m0 0h378.55v143.45h-378.55z"/>
		</clipPath>
	</defs>
	<style>
		.s0 { fill: #155a2a } 
		.s1 { fill: #195933 } 
		.s2 { fill: #1b6a32 } 
		.s3 { fill: #239541 } 
		.s4 { fill: #80ad2b } 
		.s5 { opacity: .5;fill: #217e36 } 
		.s6 { fill: #13511f } 
		.s7 { opacity: .6;fill: #cbd900 } 
		.s8 { opacity: .5;fill: #80ad2b } 
		.s9 { fill: #172e08 } 
		.s10 { fill: #1f3c0d } 
	</style>
	<g>
		<g>
			<g id="Clip-Path" clip-path="url(#cp1)">
				<g>
					<g>
						<path class="s0" d="m416.4 140.1c-2.6-1.3-5.3-2.8-8.1-3.8-2.4-0.8-4.9-1-7.3-1.5-2-0.4-4-1-5.5-2.4-1.6-1.4-2.9-3-4.2-4.7-1.6-2.1-3-4.3-4.5-6.5-1.1-1.5-2.1-2.8-2.7-4.5q-1.7 0.3-3.5 1.1c-3.9 1.4-5.9 0.2-7.1-1-1.2-1.1-2.3-1.5-6.4-0.2-4 1.3-7.7 1-9.1-0.6-1.4-1.7-2.2-2.8-5.3-2.4-3.2 0.4-6.1-0.3-6.4-2.1-0.4-1.8-2.6-2.2-3.8-5.3-1.1-3.1-0.7-3.8-5.2-2.8-4.5 0.9-9.2-3.5-15.6-7-6.4-3.4-8.4-9.1-10.5-12.3-2.1-3.2-7.5-4.1-14-4.5-6.6-0.4-6.9-1.4-9.1-3.5-2.2-2.1-4.8 1.7-8.1 2.8-3.3 1.1-3.7 3.5-4.3 5.3-0.7 1.9-3.4 5.3-6.2 6.9-2.7 1.5-4.3 4.4-7.4 6-3.1 1.6-7.6 4.2-12.5 2-4.9-2.3-5.7 1.1-8-0.9-2.4-1.9-4-4.8-7.2-4.4-3.3 0.3-2.8-2.5-5.8-2.8-3-0.4-3.1-1.6-5.8-5-2.8-3.4-5.4-4.2-8.8-2.9-3.4 1.2-9.5 7-11.8 9-2.2 2-5.7 1.7-9.3 0.7-3.5-1-3.6-0.7-6.3 1.3-2.7 2-6.4 1.9-9.6 3-3.2 1.1-5.7-1.9-9.7-1.1-3.9 0.7-4.1-0.7-7.6-0.8-3.5-0.1-5.3-2.8-7.5-3.8-2.1-0.9-5-3-6.3-4.7-1.3-1.7-2.5-2.4-5.6-3.5-3.1-1.1-6.2-4.5-9-6.9-2.8-2.4-6.1-1.6-11.1-1.2-5.1 0.3-5-2.9-6.9-1.6-2 1.2-6.3 3.9-8.9 7.9-2.7 3.9-2.5 2.3-9.1 6.7-6.7 4.4-6.9 2.9-16.5 4.1-9.6 1.1-10.8 0.8-10.8 0.8l-1.2 10.7q0.2 0.1 0.5 0.1 0 0.4 0.1 0.6c1.7 3.5 9.8 4.6 13.1 5.8 7.3 2.5 14.3 5 21.9 6.2 16.6 2.6 33.4 3.4 50.1 4.7 17 1.3 34 3.8 51 5.4 7.9 0.8 15.7 1.2 23.6 2 8.7 0.9 17.2 3.2 25.8 4.6 16.7 2.6 34 3.3 50.8 4.8q12.2 1.1 24.4 1.9c7.5 0.5 29 0 31.1 0.2 15.7 2.2 31.5 2.5 47.2 5.1 7 1.1 14.1 2.5 21.2 2.9 1.2 0.1 2.6 0 3.9-0.4-5.1-2.3-10.1-5-15.1-7.5z"/>
						<path class="s1" d="m416.3 139.4c-6.3-1.7-12.7-2.9-19.1-4.2-13.3-2.7-26.5-6.2-39.7-9.4-6.5-1.5-13-3-19.6-4.1-6.5-1-13.1-1.9-19.6-3.1-3.2-0.5-6.3-1.5-9.6-1.5-2.4 0-4.8 0.2-7.2-0.3-4.1-0.8-6.5-4.5-9.2-7.5 1.1 2.4 2.2 4.7 2.8 7.2 0.1 0.3-0.2 0.5-0.5 0.5-5.6-0.9-11.2-1.5-16.8-2-5.1-0.4-10.4-0.5-15.4-1.6-4.6-1-9.1-3.3-13.8-3.5-4.9-0.2-8.6 2.6-13.1 3.7-0.3 0.1-0.5-0.1-0.5-0.4-0.1-1.7-1.5-1.2-2.7-0.9q-1.5 0.2-3 0.7-3.4 1-6.6 2.5c-2.7 1.2-5.6 2.7-8.5 3.2-1 0.2-1.9 0-2.1-1.1-0.2-1.2-0.1-2.6 0.1-3.9q-0.5 1.2-1 2.3c-0.5 1.2-1.2 3.1-2.5 3.7-2 1-3.5-0.4-5.5-0.6-3-0.3-6-0.7-8.9-1.1-5.5-0.7-10.7-1.6-16-3.6-5.1-2-10.1-4.4-15.4-6.1-5.1-1.6-9.8-3.3-14.4-6.1-4.5-2.7-8.7-5.8-13.4-8.2-5.6-2.9-11.8-4.6-17.8-6.6q-7.3-2.5-14.6-4.8c-1.4 1.3-2.6 1.3-7.4 4.5-6.7 4.4-6.9 2.9-16.5 4.1-9.6 1.1-10.8 0.8-10.8 0.8l-1.3 10.7q0.3 0.1 0.6 0.1 0 0.4 0.1 0.6c1.7 3.5 9.8 4.6 13.1 5.8 7.3 2.5 14.3 5 21.9 6.2 16.6 2.6 33.4 3.4 50.1 4.7 17 1.3 34 3.8 51 5.4 7.9 0.8 15.7 1.2 23.6 2 8.7 0.9 17.2 3.2 25.8 4.6 16.7 2.6 34 3.3 50.8 4.8q12.2 1.1 24.4 1.9c7.5 0.5 29 0 31.1 0.2 15.7 2.2 31.5 2.5 47.2 5.1 7 1.1 14.1 2.5 21.2 2.9 1.2 0.1 2.6 0 3.9-0.4-4.8-2.2-9.4-4.6-14.1-7q-0.5-0.1-1.1-0.2z"/>
						<g>
							<path class="s2" d="m383.6 118.4c-1.2-5.2-5.4-7.4-9.6-10.2q-1.5-0.9-2.8-2c-1.8 0.6-2-0.2-1.9-1.5q0-0.1 0-0.2-0.4-0.3-0.7-0.7c-1-0.2-2.9 0.1-4.4-0.2-2.1-0.3-3.8 0.3-5 1.9-1.2 1.7-2.5 2.6-5 2.5-2.6-0.1 2.9-2.9 3.9-4.4 1-1.6 3.3-2.5 4.5-2.7 1.3-0.1-4.6-4.1-7.7-3.2-3 1-3.8 1.2-5.6-1.7-1.7-2.9-3.7-2-7.1-2.9-3.3-1-2.9-1-4.9 0.5-1.9 1.6-3.3 0.4-4.7-1.6-1.3-2.1-2.3-1.9-4.7-1.3-2.4 0.5-2.8 1.8-3.4 5.3-0.6 3.4-1.1-0.2-1.5-4-0.4-3.9-1.3-2.1-3-4.6-1.7-2.4-3.3-3.5-6.2-2.9-2.9 0.6-5.4-4.4-6.5-8-1.1-3.7-2.7-2.7-4.4-5.6-1.6-3-1.9-1.6-1.7 0.2 0.3 1.8-0.6 3-1.5 0.2-0.8-2.8-3.6-5.9-5-8.2-1.4-2.3-1.9-1.5-2.1 0.3-0.1 1.9-0.9 2.7-1.3 0.7-0.3-2-0.8-4.9-2.3-3.7-1.5 1.2-1.4-2.6-2.5-0.6-1.1 1.9-1.2 2.7-1.2 4.8-0.1 2.2-0.9 2.9-2.4 4.8-1.6 1.8-1.7 1.7-0.9-1.1 0.8-2.7 1.1-4.6 0.6-5.5-0.4-0.8-1.1-1.2-0.4-4.4 0.6-3.2-0.7-0.9-1.9-0.2-1.3 0.7-3.1 2.4-4.7 4.8-1.6 2.3-1.8 1.9-1.2-0.2 0.6-2.1-3.1 1.3-5.7 3-2.6 1.7-3.7 4.4-6.7 7.5-2.9 3.1-1.7-0.5-0.6-2 1-1.6 1-3.6 0.3-2.6-0.7 1-1.9 2.9-4.7 3.4-2.8 0.5-3.1 1.4-6.9 4.1-3.7 2.7-3 0.8-2-0.9 0.9-1.7 1.9-2.9-0.5-1.4-2.5 1.6-3.8 0.1-5.3 2-1.6 2-4.4 4.3-4.8 1.5-0.3-2.7-2.5-3.6-4.3-1-1.8 2.6-1.9 0-3.2 1.1-1.3 1.1-0.6 5.8-2.2 8.9-1.6 3.2-0.6-6.6-0.8-8-0.2-1.4-0.2-2.5-3.5-5.4-3.4-2.9-2.7-6.7-3.7-8-1-1.4-1.4-1.8-2 1.8-0.5 3.5-0.6 1.5-2.2-0.6-1.6-2.2-0.2-2.4-2.6-4.7-2.4-2.3-2.5-4-3.3-2.7-0.8 1.3-0.5-0.5-0.6-2.4 0-1.9-4 3.1-4.6 5.1-0.7 2.1-2 4.2-3.1 6.2-1 2 0.2-3.3-0.3-4.5-0.4-1.2-0.5 0.9-3.2 2.2-2.7 1.4-3.7 4.1-5.6 5.8-2 1.6 0.6-2.3 1.2-3.5 0.7-1.3 0.1-4.3 1.5-4.3 1.4 0 3.8-3.9 3.7-4.9-0.2-0.9-1.9 0.7-3.3 2.2-1.4 1.4-5.3 4.2-6.7 4.4-1.3 0.2-2.6 0.8-3 2.9-0.5 2.1-7.2 1.7-8.2 1.8-0.9 0.2-2.9 1-2.6 2.5 0.3 1.6-0.5 8.2-1.1 10-0.7 1.8-1.3-3.8-2.2-5.5-0.9-1.7-0.5-3.2-0.4-5.5 0.1-2.2-4-3.3-4.9-4.6-1-1.3-1.1-1.4-1.8 0.1-0.7 1.4-1.5 5.5-1 8.3 0.5 2.8 0.9 2.8-0.6 5.7-1.5 2.9-1.6 0.3-0.9-2.5 0.7-2.8-1.4-4.8-1.3-6.7 0-1.8-0.6-5.6-1.5-8.5-0.9-2.9-2.9 1.1-3.7 1.7-0.8 0.5-1.7-2-2.2 0.7-0.4 2.6-0.9 2.9-2.9 4-1.9 1.1-3 2.3-3.8 3.5-0.8 1.2-0.5-1.6 1-3.8 1.4-2.2 0.6-3.5 1.7-4.7 1-1.1 1.2-1.8-0.8-2-2-0.3-2.6 0.1-4.4 2.3-1.9 2.2-4.2 3.3-6.6 3.9-2.5 0.7-2.8 0.8-4.3 2.6-1.6 1.9-4.3 1.7-5 0.3-0.6-1.4-2.3-0.7-4 0.7-1.6 1.4-5.7-2.5-7.5-3.8-1.9-1.3-1.3 0-3.6 2.4-2.4 2.3-2.6 0.2-3.5 1-0.8 0.9-1.2 2-3.1 2.7-1.8 0.7-4 2-7.7 6.4-3.6 4.4-9.8 4.4-12 6.8-2.2 2.5-2.1 3.9-10 3.9-3 1.8-8.4 1-8.5 1.2 0 0-0.1 1.1-0.3 3.1 0 0 1.2 0.3 10.8-0.8 9.6-1.2 9.8 0.3 16.5-4.1 6.6-4.4 6.4-2.8 9.1-6.7 2.6-4 6.9-6.7 8.9-7.9 1.9-1.3 1.8 1.9 6.8 1.6 5.1-0.4 8.4-1.2 11.2 1.2 2.8 2.4 5.9 5.8 9 6.9 3.1 1.1 4.3 1.8 5.6 3.5 1.3 1.7 4.2 3.8 6.3 4.7 2.2 1 4 3.7 7.5 3.8 3.5 0.1 3.7 1.5 7.6 0.8 4-0.8 6.5 2.2 9.7 1.1 3.2-1.1 6.9-1 9.6-3 2.7-2 2.8-2.3 6.3-1.3 3.6 1 7.1 1.3 9.3-0.7 2.3-2 8.4-7.8 11.8-9 3.4-1.3 6-0.5 8.8 2.9 2.7 3.4 2.8 4.6 5.8 5 3 0.3 2.5 3.1 5.8 2.8 3.2-0.4 4.8 2.5 7.2 4.4 2.3 2 3.1-1.4 8 0.9 4.9 2.2 9.4-0.4 12.5-2 3.1-1.6 4.7-4.5 7.4-6 2.8-1.6 5.5-5 6.2-6.9 0.6-1.8 1-4.2 4.3-5.3 3.3-1.1 5.9-4.9 8.1-2.8 2.2 2.1 2.5 3.1 9.1 3.5 6.5 0.3 11.9 1.2 14 4.5 2.1 3.2 4.1 8.9 10.5 12.3 6.4 3.5 11.1 7.9 15.6 7 4.5-1 4.1-0.3 5.2 2.8 1.2 3.1 3.4 3.4 3.8 5.3 0.3 1.8 3.2 2.5 6.4 2.1 3.1-0.4 3.9 0.7 5.3 2.4 1.4 1.6 5.1 1.9 9.1 0.6 4.1-1.3 5.2-0.9 6.4 0.2 1.2 1.2 3.2 2.4 7.1 1q1.8-0.8 3.4-1.1-0.2-0.6-0.4-1.3z"/>
							<path class="s3" d="m363.5 97.5q-1-0.7-2.5-1.3c-4.3-1.8-4.1-4.9-7.1-4.8-3 0-6.2 0.1-9.2-1.7-3-1.7-7.2-4.1-9.9-3.3-2.8 0.8-6 2.2-8.4 1.4-2.3-0.8-4.3-3.6-7.2-4.8-3-1.2-5.9-3.2-5.9-5.9 0-2.7-2.6-6.1-5.8-9.4-3.3-3.4-12.2-8.9-14.1-13.4-2-4.5-4.1-5.5-4.6-6.9-0.6-1.5-1.7-3.7-6.4-0.8-4.6 3-5.7 2.7-6.2 4.6-0.6 1.9-1.1 3-4.1 3.8-3.1 0.9-5.9 4.6-7.1 6.7-1.3 2.1-5.3 5.5-9.1 5.8-3.8 0.3-6.5 1.3-8.4 2.4-1.8 1-2.5 2.3-4.1 1.9-1.6-0.4-7.1-3.2-8.5-2.2-1.3 1-2.4 2.2-4.7 2-2.3-0.3-2.3-2.2-4.2-4.4-2-2.2-7.7-8-9.4-10.6-1.7-2.6-4.4-7.5-7.3-7.8-2.8-0.2-7.4 4.4-9.5 5.9-2 1.4-4.3 2.6-6.8 2.9-2.5 0.3-3 5.2-5.5 6-2.5 0.7-5.3 2.3-7 2.8-1.7 0.4-3.5 0.2-5.1-0.5-1.6-0.8-2.5-1.9-4-3.6-1.4-1.8-3.7-2.3-5.9-3-2.2-0.6-4.8-1.6-5.3-3.3-0.6-1.6-3-2.3-7.5-0.2-4.5 2.1-6.6 4.8-8.3 5.8-1.7 1.1-6.1 3.1-8.4 4.4-2.2 1.3-4.1 3.8-5.8 3.2-1.6-0.5-3.5-2-5.2-3.7-1.6-1.6-3.4-0.4-4.9-2.4-1.4-2-2.8-2.5-4.2-1.3-1.5 1.2-2.6 2.1-4.8 2.4-2.2 0.3-4.8 3.7-7.6 6.6-2.7 2.8-7 9-9.4 9.9-2.3 0.8-4.8 1.9-7.3 3.4-2.5 1.5-7.1 5.8-10 7.6 7.9 0 7.8-1.4 10-3.9 2.2-2.4 8.4-2.4 12-6.8 3.7-4.4 5.9-5.7 7.7-6.4 1.9-0.7 2.3-1.8 3.1-2.7 0.9-0.8 1.1 1.3 3.5-1 2.3-2.4 1.7-3.7 3.6-2.4 1.8 1.3 5.9 5.2 7.5 3.8 1.7-1.4 3.4-2.1 4-0.7 0.7 1.4 3.4 1.6 5-0.3 1.5-1.8 1.8-1.9 4.3-2.6 2.4-0.6 4.7-1.7 6.6-3.9 1.8-2.2 2.4-2.6 4.4-2.3 2 0.2 1.8 0.9 0.8 2-1.1 1.2-0.3 2.5-1.7 4.7-1.5 2.2-1.8 5-1 3.8 0.8-1.2 1.9-2.4 3.8-3.5 2-1.1 2.5-1.4 2.9-4 0.5-2.7 1.4-0.2 2.2-0.7 0.8-0.6 2.8-4.6 3.7-1.7 0.9 2.9 1.5 6.7 1.5 8.5-0.1 1.9 2 3.9 1.3 6.7-0.7 2.8-0.6 5.4 0.9 2.5 1.5-2.9 1.1-2.9 0.6-5.7-0.5-2.7 0.3-6.9 1-8.3 0.7-1.5 0.8-1.4 1.8-0.1 0.9 1.3 5 2.4 4.9 4.6-0.1 2.3-0.5 3.8 0.4 5.5 0.9 1.7 1.5 7.3 2.2 5.5 0.6-1.8 1.4-8.4 1.1-9.9-0.3-1.6 1.7-2.4 2.6-2.6 1-0.1 7.7 0.3 8.2-1.8 0.4-2.1 1.7-2.7 3-2.9 1.4-0.2 5.3-3 6.7-4.4 1.4-1.5 3.1-3.1 3.3-2.2 0.1 1-2.3 4.9-3.7 4.9-1.4 0-0.8 3-1.5 4.3-0.6 1.2-3.2 5.1-1.2 3.5 1.9-1.7 2.9-4.4 5.6-5.8 2.7-1.3 2.8-3.4 3.2-2.2 0.5 1.2-0.7 6.5 0.3 4.5 1.1-2 2.4-4.1 3.1-6.2 0.6-2 4.6-7 4.6-5.1 0.1 1.9-0.2 3.7 0.6 2.4 0.8-1.3 0.9 0.4 3.3 2.7 2.4 2.3 1 2.5 2.6 4.7 1.6 2.1 1.7 4.2 2.2 0.6 0.6-3.6 1-3.2 2-1.8 1 1.3 0.3 5.1 3.7 8 3.3 2.9 3.3 4 3.5 5.4 0.2 1.4-0.8 11.2 0.8 8 1.6-3.1 0.9-7.8 2.2-8.9 1.3-1.1 1.4 1.5 3.2-1.1 1.8-2.6 4-1.7 4.3 1 0.4 2.8 3.2 0.5 4.8-1.5 1.5-1.9 2.8-0.4 5.3-2 2.4-1.5 1.4-0.3 0.5 1.4-1 1.7-1.7 3.6 2 0.9 3.8-2.7 4.1-3.6 6.9-4.1 2.8-0.5 4-2.4 4.7-3.4 0.7-1 0.7 1-0.3 2.6-1.1 1.5-2.3 5.1 0.6 2 3-3.1 4.1-5.8 6.7-7.5 2.6-1.7 6.3-5 5.7-3-0.6 2.1-0.4 2.5 1.2 0.2 1.6-2.4 3.4-4.1 4.7-4.8 1.2-0.7 2.5-3 1.9 0.2-0.7 3.2 0 3.6 0.4 4.4 0.5 0.9 0.2 2.8-0.6 5.6-0.8 2.7-0.7 2.9 0.9 1 1.5-1.9 2.3-2.6 2.4-4.8 0-2.1 0.1-2.9 1.2-4.8 1.1-2 1 1.8 2.5 0.6 1.5-1.2 2 1.7 2.3 3.7 0.4 2 1.2 1.2 1.3-0.7 0.2-1.8 0.7-2.6 2.1-0.3 1.4 2.3 4.2 5.4 5 8.2 0.9 2.8 1.8 1.6 1.5-0.2-0.2-1.8 0.1-3.2 1.7-0.2 1.7 2.9 3.3 1.9 4.4 5.6 1.1 3.6 3.6 8.6 6.5 8 2.9-0.6 4.5 0.5 6.2 2.9 1.7 2.5 2.6 0.7 3 4.6 0.4 3.8 0.9 7.4 1.5 4 0.6-3.5 1-4.8 3.4-5.3 2.4-0.6 3.4-0.8 4.7 1.3 1.4 2 2.8 3.2 4.7 1.6 2-1.5 1.6-1.5 4.9-0.5 3.4 0.9 5.4 0 7.1 2.9 1.8 2.9 2.6 2.7 5.6 1.7 3.1-0.9 9 3.1 7.7 3.2-1.2 0.2-3.5 1.1-4.5 2.7-1 1.5-6.5 4.3-3.9 4.4 2.5 0.1 3.8-0.8 5-2.5 1.2-1.6 2.9-2.2 5-1.9 1.5 0.3 3.4 0 4.4 0.3-1.9-2-3.6-4.1-5.1-6.4z"/>
						</g>
					</g>
					<g>
						<path class="s4" d="m430.4 142.8c-0.4-0.2-135.7-27.9-171-31.3-6.5-0.7-13-0.6-19.6 0.1q-2.2 0.6-4.5 1.3c-5.4 1.6-10.7 3.4-16 5.4-3.1 1.2-5.9 2.6-9.2 1.6-2.3-0.7-4.5-1.5-6.8-1.7-2.3-0.2-4.3 0.3-6.5 0.8-4.4 1-8.1 0-12.3-1.8-4.8-2.1-9.5-4.7-14.4-6.6-4.5-1.8-8.7-4-12.9-6.6-2.6-1.6-5.1-3.2-7.8-4.4-2.7-1.3-5.6-2-8.3-3.2-5.1-2.1-9.9-4.7-14.6-7.7-5-3.2-9.5-7.2-14.4-10.4-5.2-3.4-10.4-5.5-16.3-7.1-2.9-0.8-5.8-1.7-8.6-2.8-1.2-0.4-2.4-1-3.6-1.2-1.7-0.3-2.8 0.1-4.2 1.1-1.1 0.9-2.6 2.4-4.1 2-2-0.5-4.2-3.3-6.3-2.8-2.2 0.5-4.2 1.7-6.3 2.7-2.1 1-4.2 2-6.3 3.1-4.7 2.6-9.3 5.6-13.7 8.8-18 13.4-33.5 30.6-53.4 41.1-5.1 2.7-10.4 5.1-15.7 7.3-5.6 2.3-11.5 4.3-17 6.8-3.5 1.6-6.8 3.5-10.4 4.8-1.7 0.6-3.9 1.4-5.9 1.4-0.9 0.7-1.5 1.8-0.6 2.8 1.7 1.8 5 2.3 7.2 2.8 3.2 0.9 6.6 1.3 9.9 1.8 8.4 1.1 17 0.8 25.5 1.4-2.4 0.9-4.8 1.7-6.3 4-2.4 3.6 5.5 3 6.9 3.1 14.4 0.6 28.8-0.3 43.2-0.8 14.7-0.5 29.2-0.4 43.8-1.8 7-0.7 14-1.3 21-2.2 5.4-0.7 11.6-0.1 16.6-2.3 0.4-0.1 1.6-1.1 1.2-1.7-1.7-2.3-5.9-2.6-8.8-3.3 5-0.4 10-1.4 15.1-1.7 6.7-0.5 13.6 0 20.4 0q4 0 8 0 3.2 0.3 6.3 0.6c-2 0.6-3.9 1.2-5.8 2.2-2.3 1.3-4.7 1.8-6.6 3.7-0.2 0.1-0.6 0.7-0.4 1 1.7 1.8 4.5 1.9 6.7 2.2 3.2 0.6 6.2 1.1 9.4 1.3 23.4 1.9 46.8 3.8 70.3 3.4 15.6-0.3 31.2-1.8 46.8-2.5 8.1-0.4 16.3-0.5 24.4-1.3 3.7-0.3 7.7-1.2 11.4-1.2 2.2 0 4.3-0.2 6.3-1 0.4-0.2 1.8-1.4 1.1-1.9q-0.5-0.3-1-0.5c32.3 0.4 130.5-1 118.1-8.8z"/>
						<path class="s5" d="m430.4 142.8c-0.4-0.2-135.7-27.9-171-31.3-6.5-0.7-13-0.6-19.6 0.1q-2.2 0.6-4.5 1.3c-5.4 1.6-10.7 3.4-16 5.4-3.1 1.2-5.9 2.6-9.2 1.6-2.3-0.7-4.5-1.5-6.8-1.7-2.3-0.2-4.3 0.3-6.5 0.8-4.4 1-8.1 0-12.3-1.8-4.8-2.1-9.5-4.7-14.4-6.6-4.5-1.8-8.7-4-12.9-6.6-2.6-1.6-5.1-3.2-7.8-4.4-2.7-1.3-5.6-2-8.3-3.2-5.1-2.1-9.9-4.7-14.6-7.7-5-3.2-9.5-7.2-14.4-10.4-5.2-3.4-10.4-5.5-16.3-7.1-2.9-0.8-5.8-1.7-8.6-2.8-1.2-0.4-2.4-1-3.6-1.2-1.7-0.3-2.8 0.1-4.2 1.1-1.1 0.9-2.6 2.4-4.1 2-2-0.5-4.2-3.3-6.3-2.8-2.2 0.5-4.2 1.7-6.3 2.7-1.7 0.8-3.4 1.6-5.1 2.5q1.7-0.2 3.3-0.2c0.3 0 0.5 0.3 0.4 0.6-1.1 3.6-3.5 6.6-5.8 9.6 4.3-2.9 7.7-7.1 12.8-8.5 0.4-0.1 0.6 0.2 0.5 0.5-1 7.2-4.8 13.3-8.6 19.3 2.7-3.2 5.7-6.1 9.4-8 0.3-0.2 0.6 0 0.6 0.3 0.5 8.2-2.2 16.2-4 24-0.9 3.5-2 6.2-4.2 9.1-1 1.3-1.9 2.7-2.7 4.2-0.3 0.6-0.8 1.3-1 2-0.4 1.3 1 1.7 1.9 2.1 0.2 0.1 0.4 0.5 0.2 0.7-4.6 3.6-11 2.9-16.4 4.5 10.6 4.3 23-0.7 33.6 4.3 0.3 0.2 0.2 0.7-0.1 0.8-10.6 2.9-21.7 3.1-32.6 4-6.6 0.5-13.1 2-19.7 2.9 11 0.1 22-0.1 33-0.2 6.6 0 13.3-0.5 19.9-0.6 5.7 0 11.5 0.4 16.7 2.9 0.3 0.1 0.3 0.6 0 0.7-5.8 3.7-13.6 4-20.3 4.5-8.9 0.6-17.7 1.5-26.6 2.2-10.2 0.9-20.5 1.8-30.8 1.9-4.9 0-9.9-0.2-14.8-0.2-3.9-0.1-8 0.4-11.7-1.1-0.3-0.1-0.5-0.5-0.2-0.7 3.4-3.2 7.9-5 12.3-6.6-7-0.1-14.1 0.3-21.1 0.4-3.8 0-7.6 0-11.4-0.3-2.9-0.2-6.2-0.3-9-1.3-4.2-1.5-0.6-5 1.5-6.9-4 2.3-8.3 4.5-13 4.3-0.4 0-0.5-0.5-0.3-0.7 1.6-1.8 3.3-3.4 5.1-4.9-2.7 1.3-5.5 2.8-8.3 3.8-1.7 0.6-3.9 1.4-5.9 1.4-0.9 0.7-1.5 1.8-0.6 2.8 1.7 1.8 5 2.3 7.2 2.8 3.2 0.9 6.6 1.3 9.9 1.8 8.4 1.1 17 0.8 25.5 1.4-2.4 0.9-4.8 1.8-6.3 4-2.4 3.6 5.5 3 6.9 3.1 14.4 0.6 28.8-0.3 43.2-0.8 14.7-0.5 29.2-0.4 43.8-1.8 7-0.7 14-1.3 21-2.2 5.4-0.6 11.6-0.1 16.6-2.3 0.4-0.1 1.6-1.1 1.2-1.7-1.7-2.3-5.9-2.6-8.8-3.3 5-0.4 10-1.4 15.1-1.7 6.7-0.5 13.6 0 20.4 0q4 0 8 0 3.2 0.3 6.3 0.6c-2 0.6-3.9 1.2-5.8 2.2-2.3 1.3-4.7 1.8-6.6 3.7-0.2 0.2-0.6 0.7-0.4 1 1.7 1.8 4.5 1.9 6.7 2.2 3.2 0.6 6.2 1.1 9.4 1.3 23.4 1.9 46.8 3.8 70.3 3.4 15.6-0.3 31.2-1.8 46.8-2.5 8.1-0.4 16.3-0.5 24.4-1.3 3.7-0.3 7.7-1.2 11.4-1.2 2.2 0 4.3-0.2 6.3-1 0.4-0.2 1.8-1.4 1.1-1.9q-0.5-0.3-1-0.5c32.3 0.4 130.5-1 118.1-8.8zm-171.7-27.4c-4.1 2.1-8 4.4-11.9 6.8-3.5 2-7 4.4-10.8 5.7-7.1 2.5-15 2.4-21.8 5.7 10.1 2.5 22.6-2.3 31.2 4.8 0.2 0.2 0.1 0.4 0 0.6-2 2.5-5.6 3.8-8.5 4.7-3.7 1.2-7.5 2.1-11.3 2.8-4.6 0.8-9.1 1.6-13.8 1.4-5.3-0.2-10.9-1.7-16.2-1.1 3.4 2 7.6 2.6 10.2 5.8 0.2 0.2 0.2 0.6-0.2 0.7-8.4 1.9-17.2-0.3-25.7-1.1-5.8-0.5-11.5-1.3-17.3-1.4-4.1 0-8.5 1.3-12.4-0.3-0.3-0.1-0.4-0.4-0.1-0.7 5.7-6.3 13.6-11.1 21.7-14.5-4.1 1.3-8.2 2.6-12.5 2.7-0.4 0-0.6-0.6-0.2-0.8 8.9-5.2 18.6-8.2 28.5-11 3.7-1 7.1-2.6 10.7-3.9 1.7-0.6 5.5-2.1 6.8-0.1 0.5 0.7 0.6 1.6 1 2.3 0.8 1.4 1.9 0.8 3 0.1 2-1.1 4.2-1.7 6.3-2.5q2.6-0.8 5.2-1.7c5.7-2.7 11.6-5.1 17.7-7 3.4-1 6.6-1.9 10.1-1.3 3.4 0.6 6.7 1.8 10.2 2.5 0.3 0.1 0.4 0.6 0.1 0.8z"/>
						<path class="s5" d="m430.4 142.8c-0.4-0.2-135.7-27.9-171-31.3q-5.2-0.5-10.4-0.5 3.5 0.2 7 0.6c6.7 0.7 13 2.5 19.4 4.4 6.9 2.1 13.9 4.3 21.1 4.9 6.1 0.6 12.2 0.5 18.1 2.4 0.4 0.1 0.4 0.7 0 0.8-2.1 0.4-4.3 0.9-6.4 1.4 5 1 10 2.3 15 3.4 5.3 1.1 10.7 1.7 16 2.7 9.3 1.7 18.8 4.5 26.5 10.4 0.3 0.2 0.2 0.7-0.2 0.7-12.3 0.9-24.6 1.5-36.8 2.8-0.5 0.1-0.5-0.6-0.1-0.8 3.1-1.3 6.4-2.5 9-4.5-11.9 1.6-24.2-0.7-36 1.9 1.6 0.5 3.3 0.9 4.9 1.5 0.4 0.1 0.4 0.7 0 0.8-1.3 0.5-2.6 0.9-3.9 1.4 1 0.8 2.1 1.6 3.2 2.3 0.2 0.1 0.3 0.4 0.1 0.6-1.5 2.1-4.8 2.5-7.1 2.9-3.8 0.5-7.6 0.6-11.4 0.6-10.7 0.1-21.3 0.8-32 1.1-0.4 0.1-0.5-0.5-0.2-0.7 3.9-2.9 8.2-5 12.6-7-4.2 0.3-8.3 1.1-12.4 2-2 0.4-4 0.9-6 1.2-1.9 0.2-4.4 0.3-6 1.5-0.9 0.6-0.6 2-1.3 2.8-0.5 0.7-0.4 1.5-0.9 2.1-1.7 1.9-5.6 1.9-7.8 2.1-5.6 0.5-11.1 1.6-16.6 2.7q3.2 0 6.5 0c15.6-0.3 31.2-1.8 46.8-2.5 8.1-0.4 16.3-0.5 24.4-1.3 3.7-0.3 7.7-1.2 11.4-1.2 2.2 0 4.3-0.2 6.3-1 0.4-0.2 1.8-1.4 1.1-1.9q-0.5-0.3-1-0.5c32.3 0.4 130.5-1 118.1-8.8z"/>
						<path class="s5" d="m143.4 145.6q3.2 0.3 6.3 0.6c-2 0.6-3.9 1.2-5.8 2.2-2.3 1.3-4.7 1.8-6.6 3.7-0.2 0.1-0.6 0.7-0.4 1q0.3 0.3 0.6 0.5c1.6-1.5 3.8-2.6 5.6-3.4 2.1-1 4.3-1.8 6.2-3 3.4-2.2 6.5-4.8 9.7-7.3-1.6-0.5-3.2-0.7-4.9-1.1-0.2 0-0.4-0.5-0.1-0.7 10.7-8.3 24.4-10.1 36.8-14.6 2.4-0.9 4.7-2.2 7.2-2.8 2-0.5 4-0.9 6.1-1.3q1.3-0.3 2.6-0.5c-1.1-0.3-2.3-0.6-3.4-0.7-2.3-0.2-4.3 0.3-6.5 0.8-4.4 1-8.1 0-12.3-1.8-4.8-2.1-9.5-4.7-14.4-6.6-4.5-1.8-8.7-4-12.9-6.6-2.6-1.6-5.1-3.2-7.8-4.4-2.7-1.3-5.6-2-8.3-3.2-5.1-2.1-9.9-4.7-14.6-7.7-5-3.2-9.5-7.2-14.4-10.4-5.2-3.4-10.4-5.5-16.3-7.1-2.9-0.8-5.8-1.7-8.6-2.8-1.2-0.4-2.4-1-3.6-1.2-1.7-0.3-2.8 0.1-4.2 1.1-1.1 0.9-2.6 2.4-4.1 2q-0.3-0.1-0.7-0.2 0.2 0.7 0.4 1.4c1.2 3 3.9 4.8 5.5 7.6 1.2 2.3 1.7 5 2.6 7.4 0-3.6-0.4-7.3-1.1-10.9-0.1-0.4 0.2-0.7 0.6-0.5 4.8 3 8.6 7.3 12.9 11.1 2.3 2 4.9 4 7.7 5.3 3 1.4 5.9 1.5 9 2 6.7 1.1 11.6 5 16.8 9.1 3 2.3 6.1 4.4 9.3 6.4 2.6 1.6 5.4 2.9 7.6 5.2 0.3 0.3 0 0.8-0.4 0.7-5.1-1.3-10.3-2.3-15.5-3.2 4.4 4.8 20 20.7 11.3 23.6-2.2 0.7-4.6 0.7-7 0.9q-5.7 0.6-11.4 1c-8.3 0.6-16.6 1-24.9 1.4-0.3 0-0.6-0.4-0.4-0.7 1.2-1.8 3-3.2 4.4-4.9 0.9-1.1 2.3-2.9 1.7-4.5-0.4-1-1.3-1.9-2.1-2.7-1.4-1.4-3.2-2.6-4.3-4.3-1.4-2.1-2.5-4.4-4.3-6.2-0.5 5.7 1.4 11.1 2.3 16.6 0.2 1.4 0.6 3 0 4.4-0.5 1.2-1.6 2.3-2.5 3.4 4.3 1.7 9.3 0.4 13.5 2.5 0.2 0.2 0.2 0.6 0 0.8-3.6 2.2-7.5 4-11.1 6.3 1.6 0.2 3.2 0.4 4.6 1 0.3 0.2 0.3 0.6 0 0.8-2.3 1.4-4.9 1.9-7.6 2.1-2.8 0.3-5.7 0.8-8.5 1.3-2.8 0.5-5.6 1-8.3 1.7 5.2-0.4 10.4-0.9 15.5-1.6 5.4-0.7 11.6-0.1 16.6-2.3 0.4-0.1 1.6-1.1 1.2-1.7-1.7-2.3-5.9-2.6-8.8-3.3 5-0.4 10-1.4 15.1-1.7 6.7-0.5 13.6 0 20.4 0q4 0 8 0z"/>
						<g>
							<path class="s6" d="m117.1 141.3c0-0.1-0.4-2.4-1.6-3.1 0 0 1.5 0.7 1.7 1.5 0 0-0.1-1.8-0.2-2.1 0 0 0.9 1.3 1 2 0.1 0.7 1-1.5 1-1.5l1 2c0 0 0.2-2.1-0.3-3 0 0 1.5 2.3 1.5 3 0 0-0.4-3.2-1-3.8 0 0 1.5 1.4 1.5 3.6 0 0 0.5-1.9 1.9-2 0 0-1.2 0.5-0.9 2l1-0.8c0 0-0.8 1.4-0.5 2 0 0 0.4 0.7-1.2 0.6-1.5-0.1-4.9-0.5-4.9-0.5z"/>
							<path class="s6" d="m114.5 141.9c0 0-1.3-0.9-1.9-1.1 0 0 1.5-0.2 2.8 0.9 0 0-1.8-2.1-3.1-2.1 0 0 2.1-0.2 3.8 1.7 0 0-0.4-1.8-1.7-1.9 0 0 2.6-0.2 3 1.6 0 0-0.4-1.4-1.2-1.9 0 0 1.5 0.5 1.7 1.5l0.1-1 0.4 1.1 0.5-1 0.2 0.9c0 0 0.2-1.1 1.4-1.3 0 0-0.6 1.1-0.5 1.6 0 0 0.5-0.9 1.7-1 0 0-0.9 0.9-0.9 1.3 0 0 1.6-1.3 2.8-1.5 0 0-1.1 1.3-1.1 1.9 0 0 0.6-1.2 2.9-1.5 0 0-1.3 0.6-1.5 0.9 0 0 1.2-0.6 2.1-0.3 0 0-1.5 0-2 0.8l2.2 0.1h-1.8l0.4 0.4-1.5-0.2 0.2 0.4-1.6-0.3-0.1 0.2-0.7 0.3-1.2-0.1-0.6-0.2-0.5 0.2-0.4-0.2-1 0.4v-0.4l-1.4 0.5 0.4-0.4-1.2 0.4 0.3-0.3-1.5 0.2 0.4-0.3h-2z"/>
						</g>
						<g>
							<path class="s6" d="m342.4 139.7c0 0-0.4-2.3-1.5-3 0 0 1.5 0.7 1.7 1.5 0 0-0.1-1.8-0.2-2.1 0 0 0.8 1.3 0.9 2 0.1 0.7 1.1-1.5 1.1-1.5l0.9 2c0 0 0.2-2.1-0.2-3 0 0 1.5 2.3 1.4 3 0 0-0.3-3.2-1-3.9 0 0 1.6 1.5 1.5 3.7 0 0 0.5-2 2-2 0 0-1.2 0.5-0.9 2l1-0.8c0 0-0.8 1.4-0.5 2 0 0 0.4 0.7-1.2 0.6-1.6-0.1-5-0.5-5-0.5z"/>
							<path class="s6" d="m339.8 140.3c0 0-1.2-0.9-1.9-1 0 0 1.5-0.2 2.9 0.9 0 0-1.8-2.1-3.1-2.1 0 0 2.1-0.2 3.8 1.7 0 0-0.4-1.8-1.7-1.9 0 0 2.6-0.2 2.9 1.6 0 0-0.3-1.4-1.1-2 0 0 1.5 0.5 1.6 1.5l0.1-0.9 0.5 1.1 0.5-1 0.1 0.9c0 0 0.3-1.2 1.5-1.3 0 0-0.6 1.1-0.5 1.6 0 0 0.5-0.9 1.6-1 0 0-0.8 0.9-0.8 1.3 0 0 1.5-1.3 2.8-1.6 0 0-1.1 1.3-1.2 2 0 0 0.7-1.3 2.9-1.6 0 0-1.2 0.6-1.4 1 0 0 1.1-0.6 2.1-0.3 0 0-1.5 0-2.1 0.7l2.3 0.1-1.9 0.1 0.5 0.4-1.6-0.2 0.2 0.3-1.6-0.2v0.2l-0.7 0.3-1.2-0.1-0.7-0.2-0.4 0.1-0.4-0.1-1 0.4v-0.4l-1.4 0.5 0.3-0.4-1.2 0.4 0.3-0.3-1.4 0.2 0.4-0.3h-2z"/>
						</g>
						<g>
							<path class="s6" d="m404.9 144.1c0 0-0.4-2.4-1.6-3.1 0 0 1.5 0.7 1.7 1.5 0 0 0-1.8-0.1-2.1 0 0 0.8 1.3 0.9 2 0.1 0.7 1.1-1.5 1.1-1.5l0.9 2c0 0 0.2-2.1-0.3-3 0 0 1.5 2.3 1.5 3 0 0-0.4-3.2-1-3.8 0 0 1.5 1.4 1.5 3.6 0 0 0.5-1.9 1.9-2 0 0-1.2 0.5-0.9 2l1-0.8c0 0-0.8 1.4-0.5 2 0 0 0.4 0.7-1.1 0.6-1.6-0.1-5-0.4-5-0.4z"/>
							<path class="s6" d="m402.3 144.7c0 0-1.2-0.9-1.9-1.1 0 0 1.5-0.2 2.8 0.9 0 0-1.8-2.1-3.1-2.1 0 0 2.1-0.2 3.8 1.7 0 0-0.4-1.8-1.7-1.9 0 0 2.6-0.2 3 1.6 0 0-0.4-1.4-1.2-1.9 0 0 1.5 0.5 1.7 1.5l0.1-1 0.4 1.1 0.6-1 0.1 0.9c0 0 0.2-1.1 1.4-1.3 0 0-0.6 1.1-0.5 1.6 0 0 0.5-0.9 1.7-1 0 0-0.9 0.9-0.9 1.3 0 0 1.6-1.3 2.8-1.5 0 0-1.1 1.3-1.1 1.9 0 0 0.7-1.2 2.9-1.5 0 0-1.3 0.6-1.5 0.9 0 0 1.2-0.6 2.1-0.3 0 0-1.5 0-2 0.8l2.2 0.1h-1.8l0.4 0.4-1.5-0.1 0.2 0.3-1.6-0.3v0.2l-0.7 0.3-1.3-0.1-0.6-0.2-0.5 0.2-0.4-0.2-0.9 0.4v-0.4l-1.4 0.5 0.3-0.4-1.2 0.4 0.3-0.3-1.4 0.2 0.3-0.3h-1.9z"/>
						</g>
						<g>
							<path class="s6" d="m176.7 155.4c0 0-0.4-2.3-1.6-3 0 0 1.5 0.7 1.7 1.5 0 0 0-1.8-0.1-2.1 0 0 0.8 1.3 0.9 2 0.1 0.7 1.1-1.5 1.1-1.5l0.9 2c0 0 0.2-2.1-0.3-3 0 0 1.6 2.3 1.5 2.9 0 0-0.4-3.1-1-3.8 0 0 1.5 1.5 1.5 3.7 0 0 0.5-2 1.9-2 0 0-1.2 0.5-0.9 1.9l1-0.8c0 0-0.8 1.5-0.4 2.1 0 0 0.4 0.7-1.2 0.6-1.6-0.1-5-0.5-5-0.5z"/>
							<path class="s6" d="m174.1 156c0 0-1.2-0.9-1.9-1 0 0 1.5-0.2 2.8 0.9 0 0-1.8-2.1-3.1-2.1 0 0 2.1-0.2 3.8 1.7 0 0-0.3-1.8-1.7-1.9 0 0 2.6-0.2 3 1.6 0 0-0.4-1.4-1.1-2 0 0 1.4 0.5 1.6 1.5l0.1-0.9 0.4 1.1 0.6-1 0.1 0.9c0 0 0.2-1.2 1.4-1.3 0 0-0.6 1-0.5 1.6 0 0 0.5-0.9 1.7-1 0 0-0.9 0.9-0.9 1.3 0 0 1.6-1.3 2.8-1.6 0 0-1.1 1.3-1.1 2 0 0 0.7-1.3 2.9-1.6 0 0-1.2 0.6-1.5 1 0 0 1.2-0.6 2.1-0.3 0 0-1.5 0-2 0.7l2.3 0.1-1.9 0.1 0.4 0.3-1.5-0.1 0.2 0.3-1.6-0.2v0.2l-0.7 0.3-1.3-0.1-0.6-0.2-0.4 0.1-0.5-0.1-0.9 0.4v-0.4l-1.4 0.5 0.3-0.4-1.2 0.4 0.3-0.3-1.4 0.2 0.3-0.3h-1.9z"/>
						</g>
						<path class="s7" d="m65.6 96.5c-0.3-2.3-6.8 1.4-7.4 1.6-1.4 0.6-2.7 1.3-4.1 1.9-3.1 1.4-0.3-2.6-0.2-2.8 1.5-2.7 2.8-5.5 3.8-8.5 0.4-1.2 1.5-3 0.1-3.8-1.5-0.9-6 2.8-6.9 3.2-1.5 0.8-4 1.2-6 2 0.8-1.5 1.8-3 2.9-4.5 1-1.4 2.2-3.1 1.9-4.9-0.1-0.2-0.4 0-0.5 0-2.2 1.3-4.1 3.2-5.9 5-2.9 2.9-6.2 5.4-8.8 8.5-2.8 3.3-6.4 5.8-9.9 8.3-3.8 2.8-7.4 6-11.1 9-8.1 6.6-16.7 12.8-26.3 17q-6.1 2.6-12.1 5.3c-2.3 1-5.1 1.9-7 3.7-0.1 0.1-0.4 0.5-0.1 0.5 3.4 0.7 7.8-1.2 11-2.4 4.2-1.6 8.3-3.3 12.3-5.4q-0.5 0.5-0.9 1.1c-1.8 2-4.2 3.2-5.8 5.5 0 0.1-0.2 0.4 0 0.5 1.6 0.3 2.9 0 4.5-0.4 2.7-0.7 5.7-0.5 8.5-0.5 5 0 9.7 1.2 14.4-0.9 4.2-1.9 8.2-4.6 11.8-7.4 4-3.1 8.4-6.2 12.1-9.8-0.4 1-0.8 2.1-0.5 3q0 0.2 0.2 0.2c3.7-0.4 7.8-6.6 10.2-9 2.3-2.3 6.2-7.8 8.9-3.7 0.5 0.7 1.2 1.9 2.3 1.6 2.3-0.6 3.8-3.5 4.9-5.3 1.5-2.3 4.1-5.7 3.7-8.6z"/>
						<path class="s7" d="m223.4 123.9c-3.9 1.7-7.6 3.5-11.8 4.7-4.1 1.2-8.2 2-12.5 2.4-0.3 0.1-0.5-0.3-0.3-0.6 1.2-2.1 2.7-4 4.2-5.9-4.9 1.4-10.1 2.4-15 4.1q-1.9 0.9-3.9 1.7-0.7 0.4-1.4 0.8c-2.5 1.5-4.9 3.1-7.5 4.5q-0.1 0-0.2 0.1c1 0.1 2-0.2 3.1-0.4 3.9-0.9 0.2 0.7-0.4 1q-2.5 1-5 2.2c-4.4 2.1-8.4 4.7-11.9 8.2-0.1 0.1-0.4 0.6 0 0.7 9.2 0.6 17.7 2.1 26.9 0.2 0.3-0.1 0.9-0.5 0.9-0.9-0.3-1.6-2.3-2.1-4.4-2.3 2.7-0.9 5.3-2.5 7.7-3.9 2.8-1.6 5.7-3 8.5-4.5 1-0.6 4.4-2.8 2.6 0.1-0.4 0.7-0.8 1.4-1.1 2.1-1.3 3 6.5 1.5 7.5 1.5 1.9-0.1 3.1 0.3 4.7 1.1 0.2 0.2 0.8 0.6 1.3 1 1.2-1.4 2.6-2.6 4.2-3.4-3.8-2-7.9-3.4-11.8-5.2-0.3-0.1-0.2-0.6 0.1-0.7 7.3-2.6 14.9-4 22.2-6.4 6.4-2.1 13.3-4.8 17.9-9.9q0-0.1-0.1-0.1c-8.2 2.5-16.7 4.2-24.5 7.8z"/>
						<g>
							<path class="s6" d="m-13.9 154.5c0 0-0.4-2.3-1.6-3 0 0 1.5 0.7 1.7 1.5 0 0-0.1-1.8-0.2-2.2 0 0 0.9 1.4 1 2.1 0.1 0.7 1-1.6 1-1.6l1 2c0 0 0.2-2-0.3-3 0 0 1.5 2.3 1.5 3 0 0-0.4-3.1-1-3.8 0 0 1.5 1.5 1.5 3.7 0 0 0.5-2 1.9-2 0 0-1.2 0.4-0.9 1.9l1-0.8c0 0-0.8 1.5-0.5 2 0 0 0.4 0.7-1.2 0.7-1.5-0.1-4.9-0.5-4.9-0.5z"/>
							<path class="s6" d="m-16.5 155.1c0 0-1.3-0.9-1.9-1 0 0 1.4-0.2 2.8 0.9 0 0-1.8-2.1-3.1-2.2 0 0 2.1-0.1 3.8 1.8 0 0-0.4-1.9-1.7-1.9 0 0 2.6-0.2 3 1.5 0 0-0.4-1.4-1.2-1.9 0 0 1.5 0.5 1.7 1.5l0.1-0.9 0.4 1.1 0.5-1 0.2 0.8c0 0 0.2-1.1 1.4-1.2 0 0-0.6 1-0.5 1.6 0 0 0.5-1 1.7-1 0 0-0.9 0.8-0.9 1.3 0 0 1.6-1.4 2.8-1.6 0 0-1.1 1.3-1.1 2 0 0 0.6-1.3 2.9-1.6 0 0-1.3 0.6-1.5 1 0 0 1.2-0.6 2.1-0.3 0 0-1.5 0-2 0.7l2.2 0.1-1.8 0.1 0.4 0.3-1.5-0.1 0.2 0.3-1.6-0.2-0.1 0.1-0.7 0.3h-1.2l-0.6-0.2-0.5 0.1-0.4-0.1-1 0.4v-0.4l-1.4 0.5 0.4-0.4-1.2 0.3 0.3-0.3-1.5 0.2 0.4-0.2-2-0.1z"/>
						</g>
						<path class="s8" d="m89.7 119.2c-0.7-4.8-1.4-9.7-3.4-14.1-2.4-5.5-4.2-11.2-6.4-16.8-1.1-2.8-2.6-8-5.5-9.4-0.3-0.1-0.9 0.4-0.9 0.7-0.3 2.6 0.3 5.1 0.4 7.7q0.1 3.1 0.5 6.1c-0.1 3.1-0.2 6.1-0.3 9.2-0.1 2.3-0.3 4.6-0.3 6.9 0 2.6 1 4.9 1.4 7.4 0.1 0.7 1.5-0.5 1.5-0.8 0.7-3.6 1-7.4 1.2-11 0.1-0.8 0.5-5.3 1.1-2.2 0.5 2.1 0.8 4.1 1.4 6.2 1 3.7 3.2 7.2 4.8 10.6 1.8 3.7 3.1 8.1 5.5 11.5 0.1 0.2 0.6-0.3 0.6-0.4 0.5-3.8-1.1-7.9-1.6-11.6z"/>
						<path class="s8" d="m125.1 109.8c-2.5-2.6-5.1-4.9-8.4-6.3-4.4-2-9.2-2.5-13.5-4.8-3.8-2-7.2-5.2-9.8-8.6-2.1-2.8-3.7-5.9-6.7-7.8-0.4-0.3-0.9 0.4-1 0.7 0 2 0.7 3.7 1.4 5.5 0.4 4 1.5 8.1 2.5 11.9 1.2 4.3 2 6.4 5.8 9 4.2 3 7.7 7.7 11.3 11.5 2.8 2.9 5.6 7.2 9.3 9 0.3 0.2 0.7-0.3 0.8-0.5 1.1-2-0.2-4.2-0.5-6.3 4.4 0.4 11 0.9 14.6-2 4.3-3.4-3.5-9-5.8-11.3z"/>
						<path class="s7" d="m52.9 115.1q0-1-0.2-1.9c0-0.5-0.8 0-1 0.1-2.1 2-4.1 4.5-5.7 7q-2.2 2.3-4.3 4.6c-0.8 0.8-1.6 1.6-2.2 2.4-1.2 1.4-3.2 1.6-4.9 2.1-6 1.9-11.1 6.9-17.3 8.1-0.2 0.1-0.7 0.4-0.5 0.7 0.9 1.4 2.6 0.9 3.9 1.5-2.1 0.8-4.9 0.9-6.9 1.3-3.2 0.6-6.4 1-9.4 2.1-0.1 0.1-0.8 0.6-0.4 0.7 2.8 1 6.7 0.7 9.6 0.5 3.9-0.2 7.8-0.9 11.5-2 4.7-1.4 9.3-2.5 14.3-2.6 3.6 0 7.9 1.1 11.4 0.1 0.3 0 0.6-0.3 0.7-0.6 0.9-3.4-13.9-2.9-18.6-3.3 2.5-1.2 5-2.5 7.4-3.9 2.1-1.2 4.2-2.3 6.4-3.4 1.2-0.7 3-1.1 4.1-2 0.9-0.7 1.7-1.6 1.8-2.8 0.1-2.4 0.4-4.9 0.3-7.4q0.1 0 0.1-0.1c0.2-0.7 0.1-1.1-0.1-1.2z"/>
						<path class="s8" d="m325.8 136.5c-2.5-1.6-5.5-1.8-8.5-2.3-3.7-0.6-7.4-1.4-11.2-2-3.8-0.6-7.5-1.4-11.3-2.1-2.4-0.4-5.8-0.4-8.3-1.4 1.9-0.3 3.8-0.5 5.7-0.7 2.2-0.2 4.5-1.2 6.7-1.5 0.3-0.1 1.4-1.2 0.7-1.2-2.7-0.1-5.2-1.1-7.8-1.4-3.5-0.3-7-0.6-10.5-1.4-2.6-0.6-5-1.7-7.7-2.2-2.6-0.5-5.2-0.2-7.8-1-1.7-0.4-4.7-3.1-6.3-0.9-3 4.2-8.6 6.5-12.4 10-0.1 0.1-0.8 0.9-0.2 0.8 0.8 0 1.5-0.2 2.2-0.4q-0.7 0.7-1.3 1.4c-0.2 0.3-0.5 0.8 0.1 0.7 2.8-0.5 5.4-1.6 8-2.8q1.6-0.8 3.2-1.6c-0.4 0.2-2.9 3-2.8 2.9-1.2 1.2-2.2 2.1-2.7 3.7 0-0.2 1.1 4.3 0.9 2.8 0.3 1.7 1.1 3.5 1.7 5.1 0.2 0.4 0.8-0.1 0.9-0.2 1.5-1.5 2-3.3 3.1-5.1 0.3-0.4 1.7-3.6 3-2.7 0.9 0.6 1.3 1.4 2.3 2 2.3 1.2 5.1 2.1 7.5 3.2 2.9 1.3 5.9 2 9.1 2.4 2.8 0.4 5.6-0.9 8.4-1.5 3.8-0.8 7.8-1 11.7-1.2 7.6-0.2 15.3 0.6 22.8-0.3 0.3-0.1 1.3-0.8 0.8-1.1z"/>
					</g>
				</g>
			</g>
			<g id="Clip-Path" clip-path="url(#cp2)">
				<path class="s9" d="m407.5 138.5c-0.6 0.4-1.1 0.7-1.7 1 0-0.3-0.2-0.6-0.5-0.6-3.8-0.4-7.8-4.3-10.9-7.7q-0.7-0.8-1.3-1.5-0.5-0.6-1-1.2-1-1.2-2-2.5 0 0 0.1 0c2.1 1 4.3 1.5 6.5 2.4 0.3 0.1 0.5-0.4 0.2-0.6-1.4-0.9-2.9-1.5-4.4-2.2 2.2-0.2 4.4-1.1 5.6-3.1 0.2-0.4-0.2-0.9-0.5-0.7-0.5 0.4-1.1 0.7-1.7 0.9 0-0.3-0.2-0.6-0.5-0.6q-0.6-0.2-1.1-0.4c2.3-0.2 4.5-0.7 6.7-1.5 0.6-0.2 0.5-1.5-0.2-1.4q-0.6 0-1.2 0c-0.1-0.2-0.2-0.4-0.5-0.4-4.4-0.5-8.6-2.7-12.4-5.8q-0.6-0.5-1.2-1.1c4 0.6 8-0.2 11.6-2.9 0.5-0.3 0.2-1.1-0.3-1.1 0-0.3-0.1-0.6-0.4-0.6-3.9 0.4-7.3-0.8-10.3-3 2.2 0 4.3-0.3 6.4-0.9 0.6-0.2 0.6-1.4-0.1-1.4q-0.5-0.1-1.1-0.1 0.2 0 0.4-0.1c0.1 0 0-0.2-0.1-0.2q-0.3 0-0.7-0.1c0 0-0.1-0.1-0.1-0.1q-0.9-0.2-1.8-0.4 0.9-0.2 2-0.7c0.3-0.1 0.1-0.7-0.2-0.6-2.5 0.7-5.3-0.6-7.7-2.5q2 0.4 4.1 0c0.4-0.1 0.4-0.9 0-0.9-2.4-0.2-4.6-1.1-6.6-2.5q1.4 0.1 2.8-0.1c1.9-0.1 3.9-0.6 5.5-1.6 1.2-0.2 2.3-0.6 3.3-1.3 0.1-0.1 0.1-0.3 0-0.3q-1.5-0.1-2.9-0.1c0-0.3-0.2-0.6-0.4-0.6-2.8 0-5.4-0.8-7.6-2.2q-0.6-0.4-1.2-0.8-0.2-0.1-0.3-0.2-0.4-0.3-0.7-0.6 2.4 0.7 5.2 0.6c0.3-0.1 0.3-0.7 0-0.7-2.7-0.1-5.3-1.9-7.6-4.1q1.2 0.6 2.4 0.8 0.2 0.1 0.4 0.1 0.3 0.1 0.6 0.1 0.5 0 1 0 0.2 0 0.4 0 0.4 0 0.9-0.1 0.1 0 0.3-0.1 0.6-0.1 1.3-0.3c0.3-0.1 0.2-0.7-0.1-0.6-2.6 0.5-5.3-1.1-7.6-3.2 1.3 0.3 2.7 0.5 4.2 0.3 0.4 0 0.4-0.8 0-0.9q-0.7-0.1-1.3-0.3-0.3-0.1-0.6-0.2-0.3-0.1-0.7-0.2-0.4-0.2-0.7-0.3-0.2-0.1-0.4-0.2-0.5-0.3-0.9-0.5-0.1-0.1-0.2-0.2-0.8-0.5-1.6-1.2 0 0 0 0c-1.4-1.1-2.6-2.5-3.6-4.1q-0.3-0.6-0.7-1.2-0.3-0.7-0.6-1.4c2.2 2.6 4.9 4.5 7.8 5.6 0.5 0.2 0.7-0.7 0.2-1-2.6-1.6-4.9-4.1-6.8-7.1 2.4 1.5 5 2.3 7.9 2.4q0.1 0 0.2-0.1 0 0 0-0.1 0 0 0-0.1 0.1 0 0.1-0.1 0-0.1-0.1-0.2 0-0.1-0.2-0.1 0 0 0 0-1-0.1-2-0.6 0 0-0.1 0-0.3-0.1-0.5-0.3-0.1 0-0.1 0-0.3-0.2-0.6-0.4-0.1 0-0.1 0-1-0.6-1.9-1.5c-1.9-1.7-3.6-4-5-6.1 1 0.9 2.1 1.6 3.1 1.8 0.2 0.1 0.3-0.2 0.1-0.2-6.6-2.2-7.7-14-9-21q0-0.2-0.1-0.4-0.1 0-0.1 0-0.1-0.2-0.2-0.2 0 0 0 0-0.2-0.1-0.3-0.1-0.1 0-0.2 0-0.1-0.5-0.1-1 0-0.2-0.2-0.4 0 0 0 0c-0.2-0.3-0.8-0.1-0.9 0.4-4.5 14.2-11.5 28.1-24.1 30.5-0.1 0-0.1 0.3 0 0.4 2.4 2.7 6.7 0.9 10.4-1.6q-0.8 0.8-1.7 1.6c-2.1 1.8-4.5 4.4-7 4.8q0 0-0.1 0 0 0 0 0-0.1 0.1-0.1 0.1 0 0 0 0.1c-0.1 0.1-0.1 0.3 0 0.3 0.8 0.4 1.7 0.7 2.8 0.9q0 0 0.1 0 0.9 0.2 1.8 0.3 0.2 0 0.3 0 1 0.1 1.9 0 0.2 0 0.3 0 1 0 2-0.2c-1.2 2.2-2.7 4.2-4.8 5.8q-0.9 0.7-1.8 1.4-0.1 0.1-0.2 0.2-0.9 0.7-1.8 1.3-0.1 0-0.1 0.1-0.5 0.3-1 0.6-0.1 0.1-0.3 0.2-0.4 0.3-0.8 0.5-0.2 0.1-0.4 0.3-0.4 0.1-0.7 0.3-0.3 0.2-0.6 0.3-0.6 0.3-1.2 0.5-0.9 0-1.7 0.1c-0.2 0-0.3 0.3-0.1 0.4q0.2 0.3 0.4 0.5c0 0.2 0 0.4 0.2 0.5q0 0 0 0.1 0.1 0 0.2 0 0.2 0 0.4 0 0.3 0.2 0.7 0.4 0.2 0 0.4 0.1 0.2 0.1 0.4 0.2 0.2 0 0.5 0.1 0.1 0 0.3 0.1 0.3 0.1 0.6 0.1 0.1 0 0.2 0 0.4 0.1 0.8 0.1 0 0 0 0 1.5 0.1 3.1-0.1c-1 1-2 1.8-3.1 2.4q-1.5 0.3-3.2 0c-0.1 0-0.2 0.2-0.1 0.3q0.1 0.1 0.1 0.1c-0.1 0-0.2 0.3-0.1 0.4q0.6 0.6 1.3 0.8 0.2 0.1 0.4 0.2 0 0 0 0 0.9 0.6 1.8 0.8 0 0 0 0 0.3 0 0.7 0.1c-2.4 1.3-5 2.1-7.5 2.1q-0.4 0-0.9-0.1-0.5-0.2-1-0.5c-0.5-0.2-0.9 0.7-0.6 1.2q0.1 0.3 0.3 0.5 0 0 0 0c1.3 2 3.4 3.2 5.7 3.9q0.1 0 0.2 0 0.4 0.1 0.9 0.2 0.5 0.2 1.1 0.3-0.5 0.7-1.1 1.4-0.4 0.5-0.9 1-0.2 0.1-0.3 0.3-0.3 0.3-0.7 0.7-0.2 0.2-0.5 0.4-0.3 0.2-0.6 0.5-0.3 0.3-0.6 0.5-0.2 0.2-0.3 0.3c-1 0.8-2.1 1.5-3.1 2.2q-0.1 0-0.1 0-0.5 0.4-1.1 0.6-0.1 0.1-0.2 0.1-0.5 0.3-1 0.5-0.6 0.3-1.1 0.5c-1.6 0-3.2-0.2-4.7-0.6-0.1 0-0.3 0.1-0.2 0.3 0.5 1 1.1 1.7 1.8 2.2q0.1 0.1 0.1 0.2 0.9 0.6 2 1 0.1 0 0.2 0 0.5 0.2 1.1 0.3-2 0.4-4 0.8c-0.3 0.1-0.2 0.4 0 0.5 2.2 0.5 5.1 0.6 7.9-0.1q-1.2 1-2.3 1.8-1.1 0.9-2.3 1.4c-1.5 0.8-3 1.2-4.6 1.4q-0.1 0-0.3 0-0.7 0.1-1.5 0.1-0.9-0.3-1.9-0.5c-0.1 0-0.2 0.2-0.1 0.4q0 0 0 0c-0.1 0.1-0.1 0.3 0 0.4q0.4 0.4 0.9 0.7 0.2 0.3 0.5 0.6 0.1 0 0.1 0.1 1.1 1.1 2.4 1.9 0.3 0.1 0.5 0.2 0.3 0.2 0.6 0.3 0.6 0.3 1.2 0.5c-2.2-0.1-4.5-0.1-6.4-1.4q-0.5-0.7-0.8-1.5c0-0.3-0.4-0.4-0.5-0.1-0.2 0.9 0.1 1.9 0.6 2.8q0 0 0.1 0.1 0.2 0.4 0.5 0.8 0 0 0.1 0.1 0.1 0.1 0.1 0.2 0.2 0.2 0.4 0.4 0.1 0.1 0.2 0.2 0.2 0.2 0.4 0.4 0.1 0.1 0.2 0.2 0.2 0.2 0.4 0.4 0.3 0.2 0.5 0.4 1.1 0.9 2.3 1.7 0 0 0 0 0.7 0.5 1.4 1-0.6 0.3-1.3 0.6-0.6 0.3-1.2 0.6 0 0-0.1 0-1.3 0.6-2.6 1 0 0 0 0-0.8 0.2-1.6 0.4-0.1 0-0.2 0-0.7 0.1-1.4 0.2-0.2 0-0.3 0-0.7 0.1-1.3 0-0.2 0-0.4 0-0.8 0-1.6-0.2-0.2 0-0.4 0-0.1 0-0.1 0 0 0 0 0 0 0.1 0 0.1-0.1 0.1 0 0.1c2 2 5 2.5 7.7 2.7-2 1.1-4.2 1.8-6.6 2.5-0.1 0-0.1 0.2 0 0.2 3.2 0.2 6.4-0.6 9.2-2.3-1.2 1.2-2.6 2.3-4 3.3-2.4 1.8-5.3 3.8-8.3 3.8q-0.6-0.4-1.2-0.8c-0.3-0.2-0.6 0.2-0.4 0.4q0.3 0.4 0.6 0.8 0 0 0.1 0.1 0.3 0.3 0.5 0.5 0 0 0 0 1.1 1 2.5 1.6 0.5 0.2 1 0.4 0 0 0 0 0 0 0 0 0.5 0.2 1 0.4 0.1 0 0.1 0 0.5 0.1 1.1 0.3 0 0 0.1 0 1.1 0.2 2.3 0.3 0.1 0.1 0.2 0.1 0.4 0 0.9 0 0.3 0.1 0.5 0.1 0.3 0 0.5 0 0.4 0 0.8 0 0 0 0.1 0 0.9 0 1.8 0 0 0 0.1 0c-3.5 1.4-7 1.1-10.6 1.5-0.1 0-0.1 0.3 0.1 0.3q0.6 0.1 1.2 0.2 0.4 0.2 0.7 0.4 0.2 0.1 0.5 0.2 0.1 0 0.2 0 0.3 0.2 0.6 0.2 0.1 0 0.1 0 0.3 0.1 0.7 0.2 0 0 0 0 0 0 0 0c1.2 0.2 2.4 0.2 3.6 0.3 2.5 0.1 5 0 7.5-0.6q1.4 0 2.8 0-0.2 0-0.3-0.1-0.3-0.1-0.4-0.4 1.4-0.4 2.9-1 0 0 0 0 2.6 0 5.3-0.3 0.3 0 0.7 0 0.4 0 0.9 0 0.8-0.1 1.6-0.2-0.8 0.4-1.6 0.7-0.1 0.1-0.3 0.1-0.8 0.3-1.6 0.5 0 0-0.1 0-0.7 0.1-1.4 0.2-1-0.1-1.9-0.2c-0.5-0.1-0.5 0.7-0.2 1q0.4 0.4 0.9 0.7c2.4 1.7 5.1 2.3 7.9 2.2q0 0 0 0 0.7-0.1 1.4-0.2 0.1 0 0.1 0 0.7-0.1 1.4-0.2 0.1 0 0.2 0 0.6-0.1 1.2-0.3 0.1 0 0.2 0c-0.3 0.3 4.3-1 6.1-2.2q0.6-0.3 1.3-0.6c-0.5 7.7-1.8 16.2-1.8 16.2 9.1 3 13-0.3 13-0.3-0.4-3.2-0.5-9.4-0.6-14.7q0.3 0.6 0.7 1.2c0.1 0.2 0.3 0 0.2-0.1q-0.5-1-0.9-2.1 0-0.6 0-1.1 0.2 0.4 0.4 0.7c1.7 2.5 3.9 4.4 5.7 6.8q0.3 0.5 0.6 0.9 0.2 0.2 0.3 0.4 0.2 0.2 0.4 0.4 0.2 0.2 0.4 0.4 0.1 0.1 0.3 0.2c0.4 0.4 0.8 0.7 1.4 0.9 0.1 0.1 0.2-0.1 0.1-0.2-0.6-0.9-1-1.9-1.5-2.8-0.9-2.8-1.1-6.3-1.4-9.1q-0.2-1.3-0.3-2.5 0-0.4-0.1-0.7c1.5 3.5 4.1 6.4 6.3 9.1 0.1 0.1 0.3-0.1 0.2-0.2-1.2-1.5-2.2-3.2-3.2-5 1.5 1.5 3 2.8 4.6 3.8q0.7 0.4 1.4 0.8 0.2 0.1 0.4 0.2 0.6 0.3 1.2 0.5 0.2 0.1 0.5 0.2 0.5 0.2 1.1 0.3 0.3 0.1 0.7 0.2 0.3 0.1 0.7 0.2c2.4 0.5 5 0.8 7.4 1q0.2 0 0.3-0.1 0 0 0 0 0.2-0.1 0.2-0.3 0 0 0 0 0 0 0 0c0.1-0.3 0-0.8-0.3-0.9-1.1-0.5-2.2-0.8-3.3-1.2q-0.3-0.2-0.5-0.4 0 0 0 0-0.1-0.2-0.2-0.2-0.2-0.1-0.3-0.2-1-0.9-2-1.9 0.6 0.4 1.2 0.8 0 0 0 0 0.5 0.3 1.1 0.6 0.1 0.1 0.2 0.1 0.5 0.3 1.1 0.6 0.1 0 0.2 0.1 1.6 0.7 3.3 1.1 0.2 0.1 0.4 0.2 0.5 0.1 0.9 0.2 0.3 0 0.6 0.1 0.4 0 0.8 0.1 0.3 0 0.6 0.1 0.5 0 0.9 0 0.3 0 0.6 0 0.7 0 1.4 0 0.4 0 0.7-0.1 0.4 0 0.8-0.1 0.3 0 0.6-0.1 0.4 0 0.8-0.1 0.3-0.1 0.6-0.2 0.4-0.1 0.8-0.2 0.3-0.1 0.5-0.3 0.8-0.3 1.5-0.6 0.2-0.1 0.4-0.2 0.1 0 0.1-0.1 0.6-0.3 1.1-0.7 0.2-0.1 0.4-0.2 0.7-0.5 1.3-1.1 0.1-0.1 0.2-0.2 0-0.1 0-0.2 0 0 0 0c-0.1-0.2-0.2-0.4-0.4-0.3q-0.4 0.2-0.9 0.4 0 0-0.1-0.1c-2.7-0.2-5.4-1.1-7.9-2.5q-0.2-0.1-0.3-0.2-0.4-0.2-0.7-0.5-0.5-0.4-1.1-0.8 0.9 0.3 1.8 0.7c0.3 0.1 0.5-0.6 0.1-0.7-1.7-0.9-3.6-1.9-5.3-3.3 2.2 0.8 4.4 1.2 6.1 1.2q0.5 0 1.1 0.1 0 0 0.1 0 0.6 0 1.2 0 0.1 0 0.1 0 0.7-0.1 1.4-0.1 0 0 0 0c1.9-0.2 3.9-0.7 5.4-1.8q0 0 0 0 0.5-0.4 1-1 0 0 0 0 0 0 0-0.1 0.4-0.4 0.7-1c0.2-0.4-0.2-0.9-0.5-0.6z"/>
			</g>
			<g id="Clip-Path" clip-path="url(#cp3)">
				<path class="s9" d="m352.7 143.1q-0.6 0.5-1.4 0.8c0-0.2-0.1-0.5-0.4-0.5-3.1-0.3-6.4-3.6-9-6.4q-0.6-0.6-1.1-1.2-0.4-0.5-0.8-1-0.9-1-1.7-2.1 0.1 0 0.1 0c1.8 0.9 3.6 1.3 5.4 2 0.2 0.1 0.4-0.3 0.2-0.5-1.2-0.8-2.4-1.3-3.7-1.8 1.9-0.2 3.7-0.9 4.6-2.6 0.2-0.3-0.1-0.7-0.3-0.5q-0.7 0.4-1.5 0.7c0-0.3-0.1-0.5-0.4-0.6q-0.4-0.1-0.9-0.2c1.9-0.2 3.8-0.6 5.6-1.3 0.5-0.2 0.4-1.2-0.2-1.2q-0.5 0-1 0c-0.1-0.1-0.2-0.3-0.4-0.3-3.7-0.4-7.1-2.2-10.3-4.8q-0.5-0.4-1-0.9c3.3 0.5 6.7-0.2 9.7-2.4 0.3-0.3 0.1-1-0.3-0.9 0-0.3-0.1-0.5-0.3-0.5-3.3 0.3-6.1-0.7-8.6-2.5q2.7 0 5.3-0.8c0.5-0.1 0.5-1.1 0-1.1q-0.5-0.1-1-0.1 0.2 0 0.3-0.1c0.1 0 0.1-0.1 0-0.1q-0.3-0.1-0.6-0.1 0-0.1-0.1-0.1-0.8-0.2-1.5-0.4 0.8-0.2 1.6-0.5c0.3-0.1 0.2-0.6-0.1-0.5-2 0.6-4.4-0.5-6.4-2.1q1.7 0.3 3.4 0c0.4-0.1 0.4-0.7 0-0.8-1.9-0.1-3.8-0.8-5.5-2q1.2 0 2.4-0.1c1.6-0.1 3.2-0.5 4.5-1.3 1-0.2 1.9-0.6 2.8-1.2 0.1 0 0.1-0.1 0-0.1q-1.2-0.1-2.5-0.2c0-0.2-0.1-0.5-0.3-0.5-2.3 0-4.4-0.6-6.3-1.8q-0.5-0.3-1-0.6-0.1-0.1-0.2-0.2-0.3-0.2-0.6-0.5 2 0.6 4.3 0.5c0.3-0.1 0.3-0.6 0-0.6-2.2 0-4.4-1.5-6.3-3.4q1 0.5 2 0.7 0.2 0 0.3 0.1 0.3 0 0.5 0 0.5 0.1 0.9 0.1 0.1 0 0.3-0.1 0.3 0 0.7 0 0.2-0.1 0.3-0.1 0.5-0.1 1.1-0.3c0.2-0.1 0.1-0.6-0.1-0.5-2.1 0.4-4.4-0.9-6.3-2.6q1.7 0.4 3.4 0.2c0.4 0 0.4-0.6 0.1-0.7q-0.6-0.1-1.1-0.2-0.3-0.1-0.5-0.2-0.3-0.1-0.6-0.2-0.3-0.1-0.6-0.3-0.2-0.1-0.3-0.1-0.4-0.2-0.7-0.4-0.1-0.1-0.2-0.2-0.7-0.4-1.4-0.9 0-0.1 0-0.1-1.6-1.4-2.9-3.4-0.3-0.5-0.6-1-0.3-0.5-0.5-1.1c1.8 2.1 4.1 3.7 6.4 4.6 0.4 0.1 0.6-0.6 0.3-0.8-2.3-1.3-4.2-3.5-5.7-5.9 2 1.2 4.1 1.9 6.5 2q0.1-0.1 0.2-0.1 0 0 0-0.1 0 0 0-0.1 0.1 0 0.1 0 0-0.1-0.1-0.2 0-0.1-0.1-0.1-0.1 0-0.1 0-0.8-0.1-1.6-0.5 0 0-0.1 0-0.2-0.1-0.5-0.2 0-0.1 0-0.1-0.3-0.1-0.5-0.3 0 0-0.1 0-0.8-0.5-1.5-1.2c-1.6-1.4-3.1-3.3-4.2-5.1 0.8 0.8 1.7 1.3 2.6 1.5 0.1 0.1 0.2-0.2 0.1-0.2-5.5-1.8-6.5-11.5-7.5-17.4q0-0.2-0.1-0.3 0 0-0.1 0-0.1-0.1-0.2-0.2 0 0 0 0-0.1-0.1-0.2-0.1-0.1 0-0.2 0.1 0-0.4 0-0.9-0.1-0.2-0.2-0.3 0 0 0 0c-0.2-0.2-0.6-0.1-0.8 0.3-3.7 11.8-9.5 23.3-19.9 25.3-0.1 0-0.1 0.2-0.1 0.3 2.1 2.3 5.6 0.8 8.7-1.3q-0.7 0.7-1.5 1.4c-1.6 1.4-3.7 3.6-5.7 3.9q-0.1 0-0.1 0 0 0.1 0 0.1-0.1 0-0.1 0 0 0 0 0c-0.1 0.2-0.1 0.3 0 0.4q1 0.4 2.3 0.7 0 0 0.1 0 0.7 0.2 1.5 0.2 0.1 0 0.3 0 0.8 0.1 1.6 0.1 0.1-0.1 0.2-0.1 0.8 0 1.7-0.2c-1.1 1.9-2.3 3.5-4.1 4.9q-0.7 0.6-1.4 1.1-0.1 0.1-0.2 0.2-0.7 0.5-1.5 1.1-0.1 0-0.1 0.1-0.4 0.2-0.8 0.5-0.1 0.1-0.2 0.1-0.4 0.2-0.7 0.4-0.2 0.2-0.4 0.3-0.3 0.1-0.6 0.3-0.2 0.1-0.4 0.2-0.5 0.2-1 0.4-0.8 0-1.5 0.1c-0.1 0-0.2 0.2-0.1 0.4q0.2 0.1 0.4 0.3c0 0.2 0 0.4 0.2 0.5q0 0 0 0 0 0 0.2 0 0.1 0 0.2 0 0.3 0.2 0.6 0.3 0.2 0.1 0.4 0.2 0.1 0 0.3 0.1 0.2 0 0.4 0.1 0.1 0 0.3 0.1 0.2 0 0.5 0.1 0.1 0 0.1 0 0.4 0 0.7 0.1 0 0 0.1 0 1.2 0 2.5-0.1c-0.8 0.8-1.7 1.5-2.6 1.9q-1.2 0.3-2.6 0.1c-0.1-0.1-0.2 0.1-0.1 0.2q0 0.1 0.1 0.1c-0.1 0-0.2 0.2-0.1 0.3q0.5 0.5 1.1 0.6 0.1 0.2 0.3 0.3 0 0 0 0 0.7 0.4 1.5 0.6 0 0 0 0 0.3 0 0.5 0.1c-1.9 1-4.1 1.7-6.1 1.7q-0.4 0-0.8-0.1-0.4-0.1-0.8-0.3c-0.5-0.3-0.8 0.5-0.5 1q0.1 0.1 0.2 0.3 0 0 0 0.1c1.1 1.6 2.9 2.6 4.7 3.1q0.1 0.1 0.2 0.1 0.4 0.1 0.7 0.2 0.5 0.1 1 0.2-0.5 0.6-1 1.2-0.3 0.4-0.7 0.8-0.1 0.1-0.2 0.2-0.3 0.3-0.6 0.6-0.2 0.1-0.4 0.3-0.2 0.2-0.5 0.5-0.3 0.2-0.5 0.4-0.2 0.1-0.3 0.2c-0.8 0.7-1.7 1.3-2.6 1.8q0 0 0 0.1-0.5 0.2-0.9 0.5-0.1 0-0.2 0.1-0.4 0.2-0.8 0.4-0.5 0.2-1 0.4c-1.3 0-2.6-0.2-3.9-0.5-0.1-0.1-0.2 0.1-0.1 0.2 0.4 0.8 0.9 1.4 1.5 1.9q0 0 0.1 0.1 0.7 0.5 1.6 0.8 0.1 0 0.2 0 0.4 0.2 0.9 0.2-1.7 0.4-3.4 0.8c-0.1 0-0.1 0.3 0.1 0.3 1.8 0.5 4.2 0.5 6.5 0q-1 0.8-1.9 1.5-0.9 0.7-1.9 1.2-1.8 0.8-3.8 1.1-0.1 0-0.3 0-0.6 0.1-1.2 0.1-0.8-0.3-1.6-0.5c-0.1 0-0.1 0.2-0.1 0.4q0 0 0.1 0c-0.1 0.1-0.1 0.2-0.1 0.3q0.4 0.4 0.8 0.6 0.2 0.3 0.4 0.5 0.1 0 0.1 0 0.9 1 2 1.6 0.2 0.1 0.4 0.2 0.2 0.1 0.5 0.3 0.5 0.2 1 0.3c-1.8 0-3.7 0-5.3-1q-0.4-0.7-0.6-1.4c-0.1-0.2-0.4-0.2-0.5 0-0.1 0.8 0.1 1.6 0.5 2.3q0 0 0.1 0.1 0.2 0.3 0.4 0.7 0 0 0.1 0 0 0.1 0.1 0.2 0.1 0.2 0.3 0.3 0.1 0.1 0.2 0.2 0.1 0.2 0.3 0.4 0.1 0 0.1 0.1 0.2 0.2 0.4 0.3 0.2 0.2 0.4 0.4 0.9 0.7 1.9 1.4 0 0 0 0 0.6 0.4 1.2 0.8-0.5 0.3-1.1 0.5-0.5 0.3-1 0.5 0 0-0.1 0-1 0.5-2.1 0.8 0 0-0.1 0-0.6 0.2-1.3 0.3-0.1 0.1-0.1 0.1-0.6 0.1-1.2 0.1-0.1 0-0.2 0-0.6 0.1-1.2 0.1-0.1 0-0.2 0-0.7-0.1-1.4-0.2-0.1 0-0.3-0.1-0.1 0-0.1 0.1 0 0 0 0 0 0 0 0 0 0.1 0 0.2c1.7 1.6 4.1 2 6.4 2.2-1.7 0.9-3.5 1.5-5.5 2-0.1 0-0.1 0.2 0 0.2 2.7 0.2 5.3-0.5 7.6-1.9-0.9 1-2.1 1.9-3.2 2.7-2 1.5-4.4 3.2-6.9 3.2q-0.6-0.3-1.1-0.7c-0.2-0.2-0.4 0.2-0.3 0.4q0.3 0.3 0.5 0.6 0.1 0.1 0.1 0.1 0.2 0.2 0.4 0.4 0 0 0 0 1 0.9 2.1 1.4 0.4 0.2 0.8 0.3 0 0 0 0 0 0 0 0 0.4 0.2 0.9 0.3 0 0 0.1 0 0.4 0.1 0.8 0.2 0.1 0 0.1 0 0.9 0.2 1.9 0.4 0.1 0 0.2 0 0.4 0 0.7 0 0.3 0 0.5 0.1 0.2 0 0.4 0 0.3 0 0.6 0 0.1 0 0.1 0 0.8 0 1.5 0 0 0 0.1 0c-2.9 1.1-5.8 0.9-8.8 1.2-0.1 0 0 0.2 0.1 0.3q0.5 0.1 1 0.2 0.3 0.1 0.6 0.3 0.2 0 0.4 0.1 0.1 0 0.1 0.1 0.3 0.1 0.6 0.1 0 0 0 0 0.3 0.1 0.6 0.1 0 0.1 0 0.1 0 0 0 0c1 0.1 2 0.1 3 0.2 2.1 0.1 4.1 0 6.2-0.5q1.2 0 2.3 0-0.1 0-0.2-0.1-0.3-0.1-0.3-0.3 1.2-0.3 2.3-0.8 0.1 0 0.1 0 2.2 0 4.3-0.3 0.3 0 0.6 0 0.4 0 0.8 0 0.7 0 1.3-0.1-0.6 0.3-1.3 0.6-0.1 0-0.3 0-0.6 0.3-1.3 0.4 0 0-0.1 0-0.5 0.1-1.1 0.2-0.9-0.1-1.7-0.2c-0.3 0-0.4 0.6-0.1 0.9q0.4 0.3 0.8 0.6c1.9 1.4 4.2 1.8 6.5 1.7q0 0 0 0 0.6 0 1.2-0.1 0 0 0.1 0 0.5 0 1.1-0.1 0.1-0.1 0.2-0.1 0.5-0.1 1-0.2 0.1 0 0.1 0c-0.2 0.2 3.6-0.8 5.1-1.8q0.5-0.3 1.1-0.6c-0.4 6.4-1.5 13.5-1.5 13.5 7.5 2.5 10.8-0.2 10.8-0.2-0.3-2.7-0.5-7.9-0.5-12.3q0.3 0.5 0.6 1.1c0 0.1 0.2 0 0.1-0.2q-0.4-0.8-0.7-1.7 0-0.4 0-0.8 0.2 0.2 0.3 0.5c1.5 2.1 3.3 3.6 4.7 5.7q0.3 0.4 0.6 0.7 0.1 0.2 0.2 0.3 0.2 0.2 0.3 0.3 0.2 0.2 0.3 0.4 0.2 0.1 0.3 0.2c0.3 0.3 0.7 0.5 1.1 0.7 0.1 0.1 0.2-0.1 0.1-0.2-0.4-0.7-0.8-1.5-1.2-2.3-0.8-2.4-0.9-5.2-1.2-7.6q-0.1-1-0.2-2 0-0.3-0.1-0.6c1.3 2.9 3.4 5.3 5.2 7.5 0.1 0.1 0.2 0 0.2-0.1-1-1.3-1.8-2.7-2.6-4.1q1.8 1.8 3.8 3.1 0.5 0.4 1.1 0.6 0.2 0.1 0.4 0.2 0.5 0.2 1 0.4 0.1 0.1 0.3 0.2 0.5 0.1 1 0.3 0.3 0.1 0.5 0.1 0.3 0.1 0.6 0.2c2.1 0.4 4.1 0.6 6.2 0.8q0.2 0.1 0.2 0 0.1 0 0.1-0.1 0.1 0 0.1-0.2 0 0 0 0c0.1-0.3 0-0.7-0.3-0.8q-1.3-0.5-2.7-0.9-0.2-0.2-0.4-0.4 0 0 0 0-0.1-0.1-0.2-0.2-0.1 0-0.2-0.1-0.9-0.7-1.7-1.6 0.5 0.4 1 0.6 0 0 0 0.1 0.4 0.2 0.9 0.5 0.1 0 0.2 0.1 0.4 0.2 0.9 0.4 0.1 0 0.2 0.1 1.3 0.6 2.7 1 0.2 0 0.4 0.1 0.3 0.1 0.7 0.1 0.2 0.1 0.5 0.1 0.3 0.1 0.7 0.1 0.2 0.1 0.5 0.1 0.3 0 0.7 0 0.2 0 0.5 0 0.6 0.1 1.2 0 0.2 0 0.5 0 0.3-0.1 0.7-0.1 0.2-0.1 0.5-0.1 0.3-0.1 0.6-0.1 0.3-0.1 0.5-0.2 0.4-0.1 0.7-0.2 0.2-0.1 0.5-0.2 0.6-0.2 1.2-0.5 0.2-0.1 0.3-0.2 0 0 0.1 0 0.4-0.3 0.9-0.6 0.2-0.1 0.3-0.2 0.6-0.4 1.1-0.9 0.1-0.1 0.1-0.2 0.1 0 0-0.1 0 0 0 0c0-0.2-0.1-0.3-0.2-0.3q-0.4 0.2-0.8 0.3 0 0-0.1 0c-2.2-0.2-4.5-0.9-6.5-2.1q-0.2-0.1-0.3-0.2-0.3-0.2-0.6-0.4-0.4-0.3-0.8-0.7 0.7 0.3 1.4 0.6c0.3 0.1 0.4-0.4 0.1-0.6-1.5-0.7-3-1.5-4.4-2.7 1.8 0.7 3.6 1 5 1q0.5 0.1 0.9 0.1 0.1 0 0.1 0 0.5 0 1.1 0 0 0 0 0 0.6-0.1 1.2-0.1 0 0 0 0c1.6-0.2 3.2-0.6 4.4-1.5q0 0 0.1 0 0.4-0.3 0.8-0.8 0 0 0 0 0 0 0-0.1 0.3-0.3 0.6-0.8c0.1-0.3-0.2-0.7-0.5-0.5z"/>
			</g>
			<g id="Clip-Path" clip-path="url(#cp4)">
				<path class="s10" d="m290.3 145.8q-0.4 0.3-0.8 0.5c0-0.1-0.1-0.3-0.3-0.3-1.9-0.2-4-2.3-5.6-4q-0.4-0.4-0.7-0.8-0.3-0.3-0.5-0.6-0.6-0.6-1.1-1.3 0.1 0 0.1 0c1.1 0.5 2.2 0.8 3.4 1.3 0.1 0 0.2-0.3 0.1-0.3-0.8-0.5-1.6-0.9-2.3-1.2 1.1-0.1 2.3-0.5 2.9-1.6 0.1-0.2-0.1-0.5-0.3-0.4q-0.4 0.3-0.9 0.5c0-0.1-0.1-0.3-0.2-0.3q-0.3-0.1-0.6-0.2 1.8-0.2 3.5-0.8c0.3-0.1 0.2-0.8-0.1-0.7q-0.3 0-0.7 0 0-0.2-0.2-0.2c-2.3-0.3-4.5-1.4-6.4-3q-0.3-0.3-0.7-0.6c2.1 0.3 4.2-0.1 6.1-1.5 0.2-0.2 0.1-0.6-0.2-0.6 0-0.1 0-0.3-0.2-0.3-2 0.2-3.8-0.4-5.3-1.5q1.7-0.1 3.3-0.5c0.3-0.1 0.3-0.7-0.1-0.8q-0.3 0-0.6 0 0.1 0 0.2 0c0.1 0 0.1-0.1 0-0.1q-0.2-0.1-0.3-0.1-0.1 0-0.1 0-0.5-0.1-1-0.3 0.6-0.1 1.1-0.3c0.1-0.1 0.1-0.4-0.1-0.3-1.3 0.3-2.8-0.4-4-1.3q1 0.1 2.1-0.1c0.2 0 0.3-0.4 0-0.4-1.2-0.1-2.4-0.6-3.4-1.3q0.7 0 1.5-0.1c1 0 2-0.3 2.8-0.8 0.6-0.1 1.2-0.3 1.7-0.7 0.1 0 0.1-0.1 0-0.1q-0.7-0.1-1.5-0.1c0-0.1-0.1-0.3-0.2-0.3-1.5 0-2.8-0.4-3.9-1.1q-0.4-0.2-0.7-0.4 0-0.1-0.1-0.1-0.2-0.2-0.4-0.3 1.3 0.3 2.7 0.2c0.2 0 0.2-0.3 0-0.3-1.4 0-2.7-1-3.9-2.1q0.6 0.3 1.2 0.4 0.1 0 0.2 0 0.2 0.1 0.4 0.1 0.2 0 0.5 0 0.1 0 0.2 0 0.2 0 0.4-0.1 0.1 0 0.2 0 0.3-0.1 0.7-0.2c0.1 0 0.1-0.3-0.1-0.3-1.3 0.3-2.7-0.6-3.9-1.6q1 0.2 2.1 0.1c0.3 0 0.3-0.4 0.1-0.4q-0.4-0.1-0.7-0.2-0.2 0-0.3-0.1-0.2 0-0.4-0.1-0.2-0.1-0.4-0.2-0.1 0-0.2-0.1-0.2-0.1-0.4-0.2-0.1-0.1-0.1-0.1-0.5-0.3-0.9-0.6 0 0 0 0-1-0.9-1.8-2.2-0.2-0.3-0.4-0.6-0.2-0.4-0.3-0.7c1.1 1.3 2.5 2.3 4 2.9 0.3 0.1 0.4-0.4 0.2-0.5-1.4-0.9-2.6-2.2-3.6-3.7q1.9 1.1 4.1 1.2 0.1 0 0.1 0 0-0.1 0-0.1 0 0 0 0 0-0.1 0-0.1 0 0 0-0.1 0 0-0.1-0.1 0 0 0 0-0.5 0-1-0.2 0 0-0.1-0.1-0.1 0-0.3-0.1 0 0 0 0-0.2-0.1-0.3-0.2 0 0 0 0-0.5-0.4-1-0.8c-1-0.9-1.9-2.1-2.7-3.2 0.6 0.5 1.1 0.9 1.7 1 0.1 0 0.1-0.1 0-0.2-3.4-1.1-4-7.2-4.6-10.8q0-0.1-0.1-0.2 0 0 0 0-0.1-0.1-0.2-0.2 0 0 0 0 0 0-0.1 0-0.1 0-0.1 0 0-0.2-0.1-0.5 0-0.1 0-0.2 0 0 0 0c-0.2-0.2-0.5-0.1-0.5 0.2-2.4 7.3-6 14.6-12.5 15.8-0.1 0-0.1 0.2 0 0.2 1.2 1.4 3.4 0.5 5.3-0.8q-0.4 0.4-0.8 0.8c-1.1 1-2.4 2.3-3.7 2.5q0 0 0 0 0 0 0 0-0.1 0-0.1 0.1 0 0 0 0c0 0.1 0 0.2 0.1 0.2q0.6 0.3 1.4 0.4 0 0 0 0.1 0.5 0 1 0.1 0.1 0 0.1 0 0.5 0 1 0 0.1 0 0.2 0 0.5 0 1-0.1c-0.6 1.1-1.4 2.1-2.5 3q-0.4 0.4-0.9 0.7 0 0.1-0.1 0.1-0.5 0.4-0.9 0.7-0.1 0-0.1 0-0.3 0.2-0.5 0.4-0.1 0-0.2 0.1-0.2 0.1-0.4 0.2-0.1 0.1-0.2 0.2-0.2 0.1-0.4 0.1-0.1 0.1-0.3 0.2-0.3 0.1-0.6 0.3-0.5 0-0.9 0c-0.1 0-0.1 0.1 0 0.2q0.1 0.1 0.2 0.3 0 0.1 0.1 0.2 0 0.1 0 0.1 0 0 0.1 0 0.1 0 0.2 0 0.2 0.1 0.4 0.2 0.1 0 0.2 0.1 0.1 0 0.2 0 0.1 0.1 0.2 0.1 0.1 0 0.2 0 0.1 0.1 0.3 0.1 0.1 0 0.1 0 0.2 0 0.4 0.1 0 0 0 0 0.8 0 1.6-0.1c-0.5 0.5-1 1-1.6 1.2q-0.7 0.2-1.6 0.1c-0.1-0.1-0.1 0.1-0.1 0.1q0 0.1 0.1 0.1c-0.1 0-0.1 0.1-0.1 0.2q0.3 0.3 0.7 0.4 0.1 0 0.2 0.1 0 0 0 0 0.5 0.3 0.9 0.4 0 0 0 0 0.2 0 0.4 0c-1.2 0.7-2.6 1.1-3.9 1.1q-0.2 0-0.5 0-0.2-0.1-0.5-0.3c-0.3-0.1-0.4 0.4-0.3 0.7q0.1 0.1 0.1 0.2 0.1 0 0.1 0c0.6 1.1 1.7 1.7 2.9 2q0 0 0.1 0 0.2 0.1 0.5 0.2 0.3 0 0.6 0.1-0.3 0.4-0.6 0.7-0.2 0.3-0.5 0.5-0.1 0.1-0.1 0.2-0.2 0.2-0.4 0.3-0.1 0.1-0.2 0.2-0.2 0.2-0.4 0.3-0.1 0.2-0.3 0.3-0.1 0.1-0.2 0.1-0.7 0.7-1.6 1.2 0 0 0 0-0.3 0.2-0.6 0.3 0 0-0.1 0.1-0.2 0.1-0.5 0.2-0.3 0.2-0.6 0.3-1.2 0-2.4-0.4c-0.1 0-0.2 0.1-0.1 0.2q0.4 0.7 0.9 1.2 0.1 0 0.1 0 0.5 0.4 1 0.5 0.1 0.1 0.1 0.1 0.3 0.1 0.6 0.1-1.1 0.3-2.1 0.5c-0.1 0-0.1 0.2 0 0.2 1.2 0.3 2.7 0.3 4.1 0q-0.6 0.5-1.2 0.9-0.5 0.4-1.2 0.7-1.1 0.6-2.3 0.7-0.1 0-0.2 0-0.4 0.1-0.8 0.1-0.5-0.2-1-0.3c0 0-0.1 0.1 0 0.2q0 0 0 0.1c-0.1 0-0.1 0.1 0 0.1q0.2 0.3 0.4 0.4 0.2 0.2 0.3 0.3 0 0 0 0 0.6 0.6 1.3 1 0.1 0.1 0.3 0.2 0.1 0 0.3 0.1 0.3 0.1 0.6 0.2c-1.1 0-2.3 0-3.3-0.6q-0.3-0.4-0.4-0.9c-0.1-0.1-0.3-0.1-0.3 0-0.1 0.5 0.1 1 0.3 1.4q0 0.1 0 0.1 0.2 0.2 0.3 0.4 0 0.1 0.1 0.1 0 0 0 0.1 0.1 0.1 0.2 0.2 0.1 0.1 0.1 0.1 0.1 0.1 0.2 0.2 0.1 0.1 0.1 0.1 0.1 0.1 0.3 0.2 0.1 0.1 0.2 0.2 0.6 0.5 1.2 0.9 0 0 0 0 0.4 0.3 0.8 0.5-0.4 0.2-0.7 0.4-0.3 0.1-0.7 0.3 0 0 0 0-0.7 0.3-1.4 0.5 0 0 0 0-0.4 0.1-0.8 0.2-0.1 0-0.1 0-0.4 0-0.7 0.1-0.1 0-0.2 0-0.3 0-0.7 0-0.1 0-0.2 0-0.4 0-0.8-0.1-0.1 0-0.2 0 0 0-0.1 0 0 0 0 0 0 0 0 0 0 0.1 0 0.1c1.1 1 2.6 1.3 4 1.4-1 0.6-2.2 0.9-3.4 1.3 0 0 0 0.1 0 0.1 1.7 0.1 3.3-0.3 4.8-1.2-0.6 0.6-1.3 1.2-2.1 1.7-1.2 0.9-2.7 2-4.3 2q-0.3-0.2-0.6-0.5c-0.2-0.1-0.3 0.1-0.2 0.3q0.1 0.2 0.3 0.4 0 0 0 0 0.2 0.2 0.3 0.3 0 0 0 0 0.6 0.5 1.3 0.8 0.2 0.2 0.5 0.2 0 0 0 0 0 0 0 0 0.3 0.1 0.6 0.2 0 0 0 0 0.3 0.1 0.5 0.2 0.1 0 0.1 0 0.6 0.1 1.2 0.2 0.1 0 0.1 0 0.2 0 0.5 0 0.1 0 0.3 0 0.1 0 0.2 0.1 0.2 0 0.4 0 0 0 0.1 0 0.4 0 0.9 0 0 0 0 0c-1.7 0.7-3.6 0.5-5.4 0.7-0.1 0-0.1 0.2 0 0.2q0.3 0 0.6 0.1 0.2 0.1 0.4 0.2 0.1 0 0.2 0.1 0.1 0 0.1 0 0.2 0.1 0.4 0.1 0 0 0 0 0.2 0.1 0.4 0.1 0 0 0 0 0 0 0 0c0.6 0.1 1.2 0.1 1.8 0.2 1.3 0 2.6 0 3.9-0.3q0.8 0 1.5 0-0.1-0.1-0.2-0.1-0.1-0.1-0.2-0.2 0.8-0.2 1.5-0.5 0 0 0 0 1.4 0 2.8-0.2 0.2 0 0.3 0 0.3 0 0.5 0 0.4 0 0.9-0.1-0.5 0.2-0.9 0.4-0.1 0-0.1 0-0.5 0.2-0.9 0.3 0 0 0 0-0.4 0.1-0.8 0.1-0.5-0.1-1-0.1c-0.2 0-0.2 0.4-0.1 0.5q0.3 0.2 0.5 0.4c1.2 0.9 2.6 1.2 4.1 1.1q0 0 0 0 0.4 0 0.8-0.1 0 0 0 0 0.4 0 0.7-0.1 0.1 0 0.1 0 0.3-0.1 0.7-0.1 0-0.1 0-0.1c-0.1 0.2 2.3-0.4 3.2-1.1q0.4-0.1 0.7-0.3c-0.3 4-1 8.4-1 8.4 4.8 1.6 6.8-0.1 6.8-0.1-0.2-1.7-0.3-4.9-0.3-7.7q0.2 0.3 0.4 0.6c0 0.1 0.1 0.1 0.1 0q-0.3-0.5-0.5-1.1 0-0.3 0-0.5 0.1 0.1 0.2 0.3c0.9 1.3 2 2.3 2.9 3.5q0.2 0.3 0.4 0.5 0.1 0.1 0.1 0.2 0.1 0.1 0.2 0.2 0.1 0.1 0.2 0.2 0.1 0.1 0.2 0.1 0.3 0.3 0.7 0.5c0.1 0 0.1-0.1 0.1-0.1q-0.5-0.7-0.8-1.5c-0.5-1.4-0.6-3.2-0.8-4.7q0-0.6-0.1-1.3 0-0.2 0-0.4c0.7 1.9 2.1 3.4 3.2 4.8 0.1 0 0.2-0.1 0.1-0.1q-0.9-1.2-1.6-2.6 1.1 1.1 2.4 2 0.3 0.2 0.7 0.4 0.1 0 0.2 0.1 0.3 0.1 0.6 0.2 0.1 0.1 0.2 0.1 0.3 0.1 0.6 0.2 0.2 0 0.4 0.1 0.2 0 0.4 0.1c1.2 0.3 2.5 0.4 3.8 0.5q0.1 0 0.2 0 0 0 0 0 0-0.1 0.1-0.2 0 0 0 0 0 0 0 0c0-0.2-0.1-0.4-0.2-0.5q-0.9-0.3-1.7-0.6-0.1-0.1-0.3-0.2 0 0 0 0 0-0.1-0.1-0.1 0-0.1-0.1-0.1-0.6-0.4-1-1 0.2 0.2 0.5 0.4 0.1 0 0.1 0 0.2 0.2 0.5 0.3 0.1 0.1 0.1 0.1 0.3 0.2 0.6 0.3 0 0 0.1 0 0.8 0.4 1.7 0.6 0.1 0.1 0.2 0.1 0.3 0.1 0.5 0.1 0.2 0 0.3 0.1 0.2 0 0.4 0 0.2 0.1 0.4 0.1 0.2 0 0.4 0 0.2 0 0.3 0 0.4 0 0.7 0 0.2 0 0.4 0 0.2-0.1 0.4-0.1 0.2 0 0.3-0.1 0.2 0 0.4 0 0.2-0.1 0.4-0.1 0.2-0.1 0.4-0.1 0.1-0.1 0.3-0.2 0.3-0.1 0.7-0.3 0.1-0.1 0.2-0.1 0.1 0 0.1 0 0.3-0.2 0.6-0.4 0-0.1 0.1-0.1 0.4-0.3 0.7-0.6 0.1 0 0.1-0.1 0 0 0-0.1 0 0 0 0c0-0.1-0.1-0.2-0.2-0.1q-0.2 0.1-0.4 0.1-0.1 0-0.1 0c-1.4-0.1-2.8-0.6-4.1-1.3q-0.1 0-0.2-0.1-0.1-0.1-0.3-0.3-0.3-0.2-0.6-0.4 0.5 0.2 0.9 0.4c0.2 0 0.3-0.3 0.1-0.4-0.9-0.5-1.9-0.9-2.7-1.7 1.1 0.4 2.2 0.6 3.1 0.7q0.3 0 0.6 0 0 0 0 0 0.3 0 0.7 0 0 0 0 0 0.4 0 0.7-0.1 0 0 0 0c1-0.1 2.1-0.3 2.8-0.9q0 0 0 0 0.3-0.2 0.5-0.5 0 0 0.1 0 0 0 0 0 0.2-0.3 0.3-0.6c0.1-0.2-0.1-0.4-0.3-0.3z"/>
			</g>
			<g id="Clip-Path" clip-path="url(#cp5)">
				<path class="s9" d="m312.9 154.4q-0.5 0.4-1 0.7c-0.1-0.2-0.2-0.4-0.4-0.4-2.3-0.2-4.9-2.8-6.9-4.9q-0.4-0.5-0.8-0.9-0.3-0.4-0.7-0.8-0.6-0.8-1.2-1.6 0 0 0 0c1.4 0.6 2.8 1 4.2 1.5 0.1 0.1 0.2-0.3 0.1-0.4-0.9-0.6-1.9-1-2.8-1.4 1.4-0.1 2.8-0.6 3.5-1.9 0.2-0.3-0.1-0.6-0.3-0.5q-0.5 0.4-1.1 0.6c0-0.2-0.1-0.4-0.3-0.4q-0.3-0.1-0.7-0.3 2.2-0.1 4.3-0.9c0.4-0.2 0.3-1-0.1-0.9q-0.4 0-0.8 0c0-0.2-0.1-0.3-0.3-0.3-2.8-0.3-5.5-1.7-7.9-3.7q-0.4-0.3-0.8-0.6c2.6 0.3 5.1-0.2 7.4-1.9 0.3-0.2 0.1-0.7-0.1-0.7 0-0.2-0.1-0.4-0.3-0.4-2.5 0.2-4.7-0.5-6.6-1.9q2.1 0 4.1-0.6c0.4-0.1 0.3-0.9-0.1-0.9q-0.3 0-0.7 0 0.1-0.1 0.2-0.1c0.1 0 0.1-0.1 0-0.1q-0.2-0.1-0.4-0.1-0.1 0-0.1 0-0.6-0.2-1.2-0.4 0.7-0.1 1.3-0.4c0.2-0.1 0.1-0.4-0.1-0.4-1.6 0.5-3.4-0.3-4.9-1.5q1.3 0.2 2.6-0.1c0.3 0 0.3-0.5 0-0.5-1.5-0.1-2.9-0.7-4.2-1.6q0.9 0 1.8-0.1c1.2 0 2.4-0.4 3.5-1 0.7-0.1 1.4-0.4 2.1-0.9 0.1 0 0.1-0.1 0-0.1q-0.9-0.1-1.9-0.1c0-0.2-0.1-0.4-0.2-0.4-1.8 0-3.4-0.5-4.9-1.4q-0.4-0.2-0.8-0.5 0 0-0.1-0.1-0.3-0.2-0.5-0.4 1.6 0.5 3.3 0.4c0.2 0 0.2-0.5 0-0.5-1.6 0-3.3-1.1-4.8-2.6q0.8 0.4 1.5 0.6 0.2 0 0.3 0 0.2 0 0.4 0.1 0.3 0 0.6 0 0.1 0 0.3 0 0.2 0 0.5-0.1 0.1 0 0.3 0 0.3-0.1 0.8-0.3c0.1 0 0.1-0.4-0.1-0.4-1.6 0.4-3.4-0.7-4.8-2q1.2 0.4 2.6 0.2c0.3 0 0.3-0.5 0-0.5q-0.4-0.1-0.8-0.2-0.2-0.1-0.4-0.1-0.2-0.1-0.4-0.2-0.3-0.1-0.5-0.2-0.1-0.1-0.3-0.1-0.2-0.2-0.5-0.4-0.1 0-0.1 0-0.6-0.4-1.1-0.8 0 0 0 0-1.3-1.1-2.2-2.7-0.3-0.3-0.5-0.7-0.2-0.4-0.4-0.9c1.4 1.7 3.1 2.8 5 3.5 0.3 0.2 0.4-0.4 0.1-0.6-1.7-1-3.1-2.6-4.3-4.5q2.3 1.4 5 1.5 0.1 0 0.1 0 0-0.1 0.1-0.1 0 0 0-0.1 0 0 0 0 0-0.1 0-0.1-0.1-0.1-0.2-0.1 0 0 0 0-0.6-0.1-1.2-0.4-0.1 0-0.1 0-0.2-0.1-0.4-0.2 0 0 0 0-0.2-0.1-0.4-0.2 0 0 0-0.1-0.6-0.4-1.2-0.9c-1.3-1.1-2.4-2.6-3.3-3.9 0.7 0.6 1.4 1 2.1 1.2 0.1 0 0.1-0.2 0-0.2-4.2-1.4-4.9-8.9-5.7-13.4q0-0.1-0.1-0.2 0 0 0 0-0.1-0.1-0.2-0.2 0 0 0 0-0.1 0-0.2 0-0.1 0-0.1 0 0-0.3-0.1-0.6 0-0.2-0.1-0.3 0 0 0 0c-0.2-0.2-0.5-0.1-0.6 0.2-2.8 9.1-7.3 18-15.3 19.5-0.1 0-0.1 0.2-0.1 0.3 1.6 1.7 4.3 0.5 6.7-1.1q-0.6 0.6-1.1 1.1c-1.3 1.1-2.9 2.8-4.5 3q0 0 0 0 0 0 0 0-0.1 0.1-0.1 0.1 0 0 0 0c-0.1 0.1-0.1 0.2 0 0.3q0.8 0.3 1.8 0.5 0 0 0.1 0 0.5 0.1 1.1 0.2 0.1 0 0.2 0 0.6 0 1.2 0 0.1 0 0.2 0 0.7 0 1.3-0.1c-0.8 1.4-1.7 2.6-3.1 3.7q-0.5 0.4-1.1 0.9-0.1 0-0.1 0.1-0.6 0.4-1.2 0.8-0.1 0.1-0.1 0.1-0.3 0.2-0.6 0.4-0.1 0.1-0.2 0.1-0.2 0.2-0.5 0.3-0.2 0.1-0.3 0.2-0.2 0.1-0.4 0.2-0.2 0.1-0.4 0.2-0.4 0.2-0.8 0.3-0.6 0-1.1 0c-0.1 0.1-0.1 0.2 0 0.4q0.1 0.1 0.2 0.2c0 0.2 0.1 0.3 0.2 0.4q0 0 0 0 0 0 0.1 0 0.1 0 0.2 0 0.3 0.1 0.5 0.3 0.1 0 0.2 0.1 0.2 0 0.3 0 0.2 0.1 0.3 0.1 0.1 0.1 0.2 0.1 0.2 0 0.4 0.1 0.1 0 0.1 0 0.3 0 0.6 0 0 0 0 0 0.9 0.1 1.9 0c-0.6 0.6-1.3 1.1-2 1.5q-0.9 0.2-2 0c0 0-0.1 0.1 0 0.2q0 0 0 0.1c-0.1 0-0.1 0.1 0 0.2q0.3 0.4 0.8 0.5 0.1 0.1 0.2 0.2 0 0 0 0 0.6 0.3 1.2 0.4 0 0 0 0 0.2 0.1 0.4 0.1c-1.5 0.8-3.2 1.3-4.8 1.4q-0.2-0.1-0.5-0.1-0.3-0.1-0.7-0.3c-0.3-0.2-0.5 0.4-0.3 0.8q0 0.1 0.1 0.2 0 0.1 0 0.1c0.9 1.3 2.2 2 3.6 2.4q0.1 0 0.2 0.1 0.3 0 0.5 0.1 0.4 0.1 0.8 0.1-0.4 0.5-0.8 1-0.2 0.3-0.5 0.6-0.1 0.1-0.2 0.2-0.2 0.2-0.4 0.4-0.2 0.1-0.3 0.3-0.2 0.1-0.4 0.3-0.2 0.2-0.4 0.3-0.1 0.1-0.2 0.2-1 0.8-2 1.4 0 0-0.1 0-0.3 0.2-0.7 0.4 0 0.1-0.1 0.1-0.3 0.2-0.6 0.3-0.4 0.2-0.7 0.3-1.6 0-3-0.4c-0.1 0-0.2 0.1-0.2 0.2q0.5 0.9 1.2 1.4 0 0.1 0.1 0.1 0.6 0.4 1.2 0.7 0.1 0 0.2 0 0.3 0.1 0.6 0.2-1.2 0.3-2.5 0.5c-0.2 0-0.1 0.3 0 0.3 1.4 0.4 3.3 0.4 5 0q-0.7 0.6-1.4 1.1-0.7 0.5-1.5 0.9-1.4 0.7-2.9 0.9-0.1 0-0.2 0-0.5 0-1 0-0.6-0.1-1.2-0.3c-0.1 0-0.1 0.2-0.1 0.3q0.1 0 0.1 0c-0.1 0-0.1 0.2-0.1 0.2q0.3 0.3 0.6 0.5 0.2 0.2 0.4 0.4 0 0 0 0 0.7 0.7 1.6 1.2 0.1 0.1 0.3 0.2 0.1 0.1 0.3 0.2 0.4 0.1 0.8 0.3c-1.4-0.1-2.9-0.1-4-0.9q-0.4-0.5-0.6-1c0-0.2-0.2-0.2-0.3 0-0.1 0.6 0.1 1.2 0.4 1.7q0 0.1 0 0.1 0.2 0.3 0.4 0.5 0 0.1 0 0.1 0.1 0 0.1 0.1 0.1 0.1 0.2 0.3 0.1 0 0.2 0.1 0.1 0.2 0.2 0.3 0.1 0 0.1 0.1 0.2 0.1 0.3 0.2 0.2 0.2 0.4 0.3 0.6 0.5 1.4 1.1 0 0 0 0 0.4 0.3 0.9 0.6-0.4 0.2-0.8 0.4-0.4 0.2-0.8 0.4 0 0 0 0-0.9 0.4-1.7 0.6 0 0 0 0-0.6 0.2-1.1 0.3 0 0-0.1 0-0.4 0.1-0.9 0.1-0.1 0-0.2 0-0.4 0-0.8 0-0.1 0-0.2 0-0.6 0-1.1-0.1-0.1 0-0.2-0.1-0.1 0-0.1 0.1 0 0 0 0 0 0 0 0 0 0.1 0 0.1c1.3 1.3 3.2 1.6 4.9 1.7-1.3 0.7-2.7 1.2-4.2 1.6-0.1 0-0.1 0.1 0 0.1 2 0.2 4.1-0.3 5.9-1.4-0.8 0.8-1.6 1.4-2.5 2.1-1.6 1.1-3.4 2.4-5.3 2.4q-0.4-0.2-0.8-0.5c-0.2-0.1-0.4 0.1-0.3 0.3q0.2 0.2 0.4 0.4 0 0.1 0.1 0.1 0.1 0.2 0.3 0.4 0 0 0 0 0.7 0.6 1.6 1 0.3 0.1 0.6 0.2 0 0 0 0 0 0 0 0 0.3 0.2 0.7 0.3 0 0 0 0 0.4 0.1 0.7 0.1 0 0 0.1 0.1 0.7 0.1 1.4 0.2 0.1 0 0.2 0 0.3 0 0.5 0 0.2 0.1 0.4 0.1 0.1 0 0.3 0 0.2 0 0.5 0 0 0 0.1 0 0.5 0 1.1 0 0 0 0.1 0c-2.2 0.8-4.5 0.7-6.8 0.9 0 0.1 0 0.2 0.1 0.2q0.4 0.1 0.8 0.2 0.2 0.1 0.4 0.2 0.1 0.1 0.3 0.1 0.1 0 0.1 0.1 0.2 0 0.4 0.1 0.1 0 0.1 0 0.2 0 0.4 0.1 0 0 0 0 0 0 0 0c0.8 0.1 1.6 0.1 2.3 0.2 1.6 0.1 3.2 0 4.8-0.4q0.9 0 1.8 0-0.1 0-0.2 0-0.2-0.1-0.2-0.3 0.9-0.3 1.8-0.6 0 0 0 0 1.7 0 3.4-0.3 0.2 0 0.4 0 0.3 0 0.6 0 0.5 0 1-0.1-0.5 0.3-1 0.5-0.1 0-0.2 0.1-0.5 0.1-1 0.2 0 0-0.1 0-0.4 0.1-0.9 0.2-0.6-0.1-1.2-0.1c-0.3-0.1-0.3 0.4-0.1 0.6q0.3 0.3 0.6 0.5c1.5 1 3.2 1.4 5 1.3q0 0 0 0 0.5 0 0.9-0.1 0 0 0.1 0 0.4 0 0.8-0.1 0.1 0 0.2 0 0.4-0.1 0.8-0.2 0 0 0.1 0c-0.2 0.2 2.7-0.6 3.8-1.4q0.5-0.2 0.9-0.4c-0.3 4.9-1.2 10.3-1.2 10.3 5.8 2 8.4-0.1 8.4-0.1-0.3-2.1-0.4-6.1-0.4-9.5q0.2 0.4 0.4 0.8c0.1 0.1 0.2 0.1 0.1-0.1q-0.3-0.6-0.5-1.3 0-0.3 0-0.6 0.1 0.2 0.2 0.4c1.1 1.6 2.5 2.8 3.6 4.4q0.2 0.3 0.5 0.5 0 0.1 0.1 0.2 0.2 0.2 0.3 0.3 0.1 0.1 0.2 0.3 0.1 0 0.2 0.1 0.4 0.3 0.9 0.6c0.1 0 0.1-0.1 0.1-0.2-0.4-0.6-0.7-1.2-1-1.8-0.6-1.8-0.7-3.9-0.9-5.8q-0.1-0.8-0.2-1.6 0-0.2 0-0.4c0.9 2.3 2.6 4.1 4 5.8 0.1 0.1 0.2 0 0.1-0.1-0.7-1-1.4-2.1-2-3.2q1.4 1.4 2.9 2.4 0.5 0.3 0.9 0.5 0.1 0.1 0.3 0.1 0.4 0.2 0.7 0.4 0.2 0 0.3 0.1 0.4 0.1 0.8 0.2 0.2 0.1 0.4 0.1 0.2 0.1 0.4 0.1c1.6 0.4 3.2 0.5 4.8 0.7q0.1 0 0.2-0.1 0 0 0 0 0.1 0 0.1-0.1 0-0.1 0-0.1 0 0 0 0c0-0.2 0-0.5-0.2-0.6q-1.1-0.4-2.1-0.7-0.2-0.1-0.4-0.3 0 0 0 0 0-0.1-0.1-0.1-0.1-0.1-0.1-0.1-0.7-0.6-1.3-1.2 0.3 0.2 0.7 0.5 0 0 0 0 0.4 0.2 0.7 0.4 0.1 0 0.2 0 0.3 0.2 0.6 0.4 0.1 0 0.2 0 1 0.5 2.1 0.8 0.1 0 0.3 0.1 0.3 0 0.5 0.1 0.2 0 0.4 0.1 0.3 0 0.5 0 0.2 0.1 0.4 0.1 0.3 0 0.6 0 0.2 0 0.4 0 0.4 0 0.9 0 0.2 0 0.4 0 0.2 0 0.5-0.1 0.2 0 0.4-0.1 0.2 0 0.5-0.1 0.2 0 0.4-0.1 0.2 0 0.5-0.1 0.2-0.1 0.3-0.2 0.5-0.1 1-0.4 0.1 0 0.3-0.1 0 0 0 0 0.3-0.2 0.7-0.5 0.1-0.1 0.2-0.1 0.5-0.4 0.9-0.7 0.1-0.1 0.1-0.2 0 0 0-0.1 0 0 0 0c0-0.1-0.1-0.2-0.2-0.2q-0.3 0.2-0.6 0.3 0-0.1-0.1-0.1c-1.7-0.1-3.4-0.7-5-1.6q-0.1 0-0.2-0.1-0.3-0.2-0.5-0.3-0.3-0.3-0.6-0.5 0.5 0.2 1.1 0.4c0.2 0.1 0.3-0.4 0.1-0.5-1.2-0.5-2.4-1.1-3.4-2 1.4 0.5 2.8 0.7 3.8 0.7q0.4 0.1 0.7 0.1 0.1 0 0.1 0 0.4 0 0.8 0 0 0 0.1 0 0.4-0.1 0.8-0.1 0 0 0.1 0c1.2-0.1 2.4-0.4 3.4-1.1q0 0 0 0 0.3-0.3 0.6-0.6 0-0.1 0-0.1 0 0 0 0 0.3-0.3 0.5-0.7c0.1-0.2-0.2-0.5-0.4-0.4z"/>
			</g>
			<g id="Clip-Path" clip-path="url(#cp6)">
				<path class="s9" d="m265.5 160q-0.5 0.4-1 0.7c-0.1-0.2-0.2-0.4-0.4-0.4-2.3-0.2-4.9-2.8-6.9-4.9q-0.4-0.5-0.8-0.9-0.3-0.4-0.7-0.8-0.6-0.8-1.2-1.6 0 0 0 0c1.4 0.6 2.8 1 4.2 1.5 0.2 0.1 0.3-0.3 0.1-0.4-0.9-0.6-1.9-1-2.8-1.4 1.4-0.1 2.8-0.6 3.5-1.9 0.2-0.3 0-0.6-0.3-0.5q-0.5 0.4-1.1 0.6c0-0.2-0.1-0.4-0.3-0.4q-0.3-0.1-0.7-0.2 2.2-0.2 4.3-1c0.4-0.2 0.3-1-0.1-0.9q-0.4 0-0.8 0c0-0.2-0.1-0.3-0.3-0.3-2.8-0.3-5.5-1.7-7.9-3.7q-0.4-0.3-0.8-0.6c2.6 0.3 5.2-0.2 7.4-1.9 0.3-0.2 0.1-0.7-0.1-0.7 0-0.2-0.1-0.4-0.3-0.4-2.5 0.2-4.7-0.5-6.6-1.9q2.1 0 4.1-0.6c0.4-0.1 0.4-0.9-0.1-0.9q-0.3 0-0.7 0 0.1-0.1 0.2-0.1c0.1 0 0.1-0.1 0-0.1q-0.2-0.1-0.4-0.1-0.1 0-0.1 0-0.6-0.2-1.2-0.3 0.7-0.2 1.3-0.5c0.2-0.1 0.1-0.4-0.1-0.4-1.6 0.5-3.4-0.3-4.9-1.5q1.3 0.2 2.6-0.1c0.3 0 0.3-0.5 0-0.5-1.5-0.1-2.9-0.7-4.2-1.6q0.9 0 1.8-0.1c1.2 0 2.4-0.4 3.5-1 0.7-0.1 1.4-0.4 2.1-0.9 0.1 0 0.1-0.1 0-0.1q-0.9-0.1-1.9-0.1c0-0.2 0-0.4-0.2-0.4-1.8 0-3.4-0.5-4.9-1.4q-0.4-0.2-0.8-0.5 0 0-0.1-0.1-0.3-0.2-0.5-0.4 1.6 0.5 3.3 0.4c0.2 0 0.2-0.5 0-0.5-1.6 0-3.3-1.1-4.8-2.6q0.8 0.4 1.5 0.6 0.2 0 0.3 0 0.2 0 0.4 0.1 0.3 0 0.6 0 0.1 0 0.3 0 0.2 0 0.5-0.1 0.1 0 0.3 0 0.4-0.1 0.8-0.3c0.1 0 0.1-0.4-0.1-0.4-1.6 0.4-3.4-0.7-4.8-2q1.2 0.4 2.6 0.2c0.3 0 0.3-0.5 0-0.5q-0.4-0.1-0.8-0.2-0.2-0.1-0.4-0.1-0.2-0.1-0.4-0.2-0.3-0.1-0.5-0.2-0.1-0.1-0.3-0.1-0.2-0.2-0.5-0.4-0.1 0-0.1 0-0.6-0.4-1.1-0.8 0 0 0 0-1.3-1.1-2.2-2.7-0.2-0.3-0.5-0.7-0.2-0.4-0.4-0.9c1.4 1.7 3.2 2.8 5 3.5 0.3 0.2 0.4-0.4 0.1-0.6-1.6-1-3.1-2.6-4.3-4.5q2.3 1.4 5 1.5 0.1 0 0.1 0 0-0.1 0.1-0.1 0 0 0-0.1 0 0 0 0 0-0.1 0-0.1-0.1-0.1-0.2-0.1 0 0 0 0-0.6-0.1-1.2-0.4-0.1 0-0.1 0-0.2-0.1-0.4-0.2 0 0 0 0-0.2-0.1-0.4-0.2 0 0 0-0.1-0.6-0.4-1.2-0.9c-1.3-1.1-2.4-2.6-3.3-3.9 0.7 0.6 1.4 1 2.1 1.2 0.1 0 0.1-0.2 0-0.2-4.2-1.4-4.9-8.9-5.7-13.4q0-0.1-0.1-0.2 0 0 0 0-0.1-0.1-0.2-0.2 0 0 0 0-0.1 0-0.2 0-0.1 0-0.1 0 0-0.3-0.1-0.6 0-0.2-0.1-0.3 0 0 0 0c-0.2-0.2-0.5-0.1-0.6 0.2-2.8 9.1-7.3 18-15.3 19.5-0.1 0-0.1 0.2-0.1 0.3 1.6 1.7 4.3 0.5 6.7-1.1q-0.6 0.6-1.1 1.1c-1.3 1.1-2.9 2.8-4.5 3q0 0 0 0 0 0 0 0-0.1 0.1-0.1 0.1 0 0 0 0c-0.1 0.1-0.1 0.2 0 0.3q0.8 0.3 1.8 0.5 0 0 0.1 0 0.5 0.1 1.1 0.2 0.1 0 0.2 0 0.6 0 1.2 0 0.1 0 0.2 0 0.7 0 1.3-0.1c-0.8 1.4-1.7 2.6-3.1 3.7q-0.5 0.4-1.1 0.9-0.1 0-0.1 0.1-0.6 0.4-1.2 0.8 0 0.1-0.1 0.1-0.3 0.2-0.6 0.4-0.1 0.1-0.2 0.1-0.2 0.2-0.5 0.3-0.2 0.1-0.3 0.2-0.2 0.1-0.4 0.2-0.2 0.1-0.4 0.2-0.4 0.2-0.8 0.3-0.5 0-1.1 0c-0.1 0.1-0.1 0.2 0 0.4q0.1 0.1 0.2 0.2c0 0.2 0.1 0.3 0.2 0.4q0 0 0 0 0 0 0.1 0 0.1 0 0.2 0 0.3 0.1 0.5 0.3 0.1 0 0.3 0.1 0.1 0 0.2 0 0.2 0.1 0.3 0.1 0.1 0.1 0.2 0.1 0.2 0 0.4 0.1 0.1 0 0.1 0 0.3 0 0.6 0 0 0 0 0 0.9 0.1 1.9 0c-0.6 0.6-1.3 1.1-2 1.5q-0.9 0.2-2 0c0 0-0.1 0.1 0 0.2q0 0 0 0.1c-0.1 0-0.1 0.1 0 0.2q0.3 0.4 0.8 0.5 0.1 0.1 0.2 0.2 0 0 0.1 0 0.5 0.3 1.1 0.4 0 0 0 0 0.2 0.1 0.4 0.1c-1.5 0.8-3.2 1.3-4.7 1.4q-0.3-0.1-0.6-0.1-0.3-0.1-0.6-0.3c-0.4-0.2-0.6 0.4-0.4 0.8q0 0.1 0.1 0.2 0 0.1 0 0.1c0.9 1.3 2.2 2 3.6 2.4q0.1 0 0.2 0.1 0.3 0 0.6 0.1 0.3 0.1 0.7 0.1-0.4 0.5-0.7 1-0.3 0.3-0.6 0.6-0.1 0.1-0.2 0.2-0.2 0.2-0.4 0.4-0.2 0.1-0.3 0.3-0.2 0.1-0.4 0.3-0.2 0.2-0.4 0.3-0.1 0.1-0.2 0.2-1 0.8-2 1.4 0 0-0.1 0-0.3 0.2-0.7 0.4 0 0.1-0.1 0.1-0.3 0.2-0.6 0.3-0.4 0.2-0.7 0.3-1.6 0-3-0.4c-0.1 0-0.2 0.1-0.2 0.2q0.5 0.9 1.2 1.5 0 0 0.1 0 0.6 0.4 1.2 0.7 0.1 0 0.2 0 0.3 0.1 0.6 0.2-1.2 0.3-2.5 0.5c-0.2 0-0.1 0.3 0 0.3 1.4 0.4 3.3 0.4 5 0q-0.7 0.6-1.4 1.1-0.7 0.5-1.5 0.9-1.4 0.7-2.9 0.9-0.1 0-0.2 0-0.5 0-1 0-0.6-0.1-1.2-0.3c-0.1 0-0.1 0.2-0.1 0.3q0.1 0 0.1 0c-0.1 0-0.1 0.2-0.1 0.2q0.3 0.3 0.6 0.5 0.2 0.2 0.4 0.4 0 0 0 0 0.7 0.7 1.6 1.2 0.1 0.1 0.3 0.2 0.1 0.1 0.3 0.2 0.4 0.1 0.8 0.3c-1.4-0.1-2.8-0.1-4-0.9q-0.4-0.5-0.6-1c0-0.2-0.2-0.2-0.3 0-0.1 0.6 0.1 1.2 0.4 1.7q0 0.1 0 0.1 0.2 0.3 0.4 0.5 0 0.1 0 0.1 0.1 0 0.1 0.1 0.1 0.1 0.2 0.3 0.1 0 0.2 0.1 0.1 0.2 0.2 0.3 0.1 0 0.1 0.1 0.2 0.1 0.3 0.2 0.2 0.2 0.4 0.3 0.6 0.5 1.4 1.1 0 0 0 0 0.4 0.3 0.9 0.6-0.4 0.2-0.8 0.4-0.4 0.2-0.8 0.4 0 0 0 0-0.9 0.4-1.7 0.6 0 0 0 0-0.6 0.2-1.1 0.3 0 0-0.1 0-0.4 0.1-0.9 0.1-0.1 0-0.2 0-0.4 0-0.8 0-0.1 0-0.2 0-0.5 0-1.1-0.1-0.1 0-0.2-0.1-0.1 0-0.1 0.1 0 0 0 0 0 0 0 0 0 0.1 0 0.1c1.3 1.3 3.2 1.6 4.9 1.7-1.3 0.7-2.7 1.2-4.2 1.6-0.1 0 0 0.1 0 0.1 2 0.2 4.1-0.3 5.9-1.4-0.8 0.8-1.6 1.4-2.5 2.1-1.6 1.1-3.4 2.4-5.3 2.4q-0.4-0.2-0.8-0.5c-0.2-0.1-0.4 0.1-0.3 0.3q0.2 0.2 0.4 0.4 0 0.1 0.1 0.1 0.1 0.2 0.3 0.4 0 0 0 0 0.7 0.6 1.6 1 0.3 0.1 0.6 0.2 0 0 0 0 0 0 0 0 0.3 0.2 0.7 0.3 0 0 0 0 0.4 0.1 0.7 0.1 0 0 0.1 0.1 0.7 0.1 1.4 0.2 0.1 0 0.2 0 0.3 0 0.5 0 0.2 0.1 0.4 0.1 0.1 0 0.3 0 0.2 0 0.5 0 0 0 0.1 0 0.5 0 1.1 0 0 0 0.1 0c-2.2 0.8-4.5 0.7-6.7 0.9-0.1 0.1-0.1 0.2 0 0.2q0.4 0.1 0.8 0.2 0.2 0.1 0.4 0.2 0.2 0.1 0.3 0.1 0.1 0 0.1 0.1 0.2 0 0.4 0.1 0.1 0 0.1 0 0.2 0 0.4 0.1 0 0 0 0 0 0 0 0c0.8 0.1 1.6 0.1 2.3 0.2 1.6 0.1 3.2 0 4.8-0.4q0.9 0 1.8 0-0.1 0-0.2 0-0.2-0.1-0.2-0.3 0.9-0.3 1.8-0.6 0 0 0 0 1.7 0 3.4-0.3 0.2 0 0.4 0 0.3 0 0.6 0 0.5 0 1-0.1-0.5 0.3-1 0.5-0.1 0-0.2 0.1-0.5 0.1-1 0.2 0 0-0.1 0-0.4 0.1-0.9 0.2-0.6-0.1-1.2-0.1c-0.3-0.1-0.3 0.4-0.1 0.6q0.3 0.3 0.6 0.5c1.5 1 3.2 1.4 5 1.3q0 0 0 0 0.5 0 0.9-0.1 0.1 0 0.1 0 0.4 0 0.9-0.1 0 0 0.1 0 0.4-0.1 0.8-0.2 0 0 0.1 0c-0.2 0.2 2.7-0.6 3.8-1.4q0.5-0.2 0.9-0.4c-0.3 4.9-1.2 10.3-1.2 10.3 5.8 2 8.4-0.1 8.4-0.1-0.3-2.1-0.4-6.1-0.4-9.5q0.2 0.4 0.4 0.8c0.1 0.1 0.2 0.1 0.1-0.1q-0.3-0.6-0.5-1.3 0-0.3 0-0.6 0.1 0.2 0.2 0.4c1.1 1.6 2.5 2.8 3.6 4.3q0.3 0.4 0.5 0.6 0.1 0.1 0.1 0.2 0.2 0.2 0.3 0.3 0.1 0.1 0.2 0.3 0.1 0 0.2 0.1 0.4 0.3 0.9 0.6c0.1 0 0.1-0.1 0.1-0.2-0.4-0.6-0.7-1.2-1-1.8-0.6-1.8-0.7-3.9-0.9-5.8q-0.1-0.8-0.2-1.6 0-0.2 0-0.4c1 2.3 2.6 4.1 4 5.8 0.1 0.1 0.2 0 0.1-0.1-0.7-1-1.4-2.1-2-3.2q1.4 1.4 2.9 2.4 0.5 0.3 0.9 0.5 0.1 0.1 0.3 0.1 0.4 0.2 0.7 0.4 0.2 0 0.3 0.1 0.4 0.1 0.8 0.2 0.2 0.1 0.4 0.1 0.2 0.1 0.4 0.1c1.6 0.4 3.2 0.5 4.8 0.7q0.1 0 0.2-0.1 0 0 0 0 0.1 0 0.1-0.1 0-0.1 0-0.1 0 0 0 0c0-0.2 0-0.5-0.2-0.6q-1.1-0.4-2.1-0.7-0.2-0.1-0.3-0.3-0.1 0-0.1 0 0-0.1-0.1-0.1-0.1-0.1-0.1-0.1-0.7-0.6-1.3-1.2 0.4 0.2 0.7 0.5 0 0 0 0 0.4 0.2 0.7 0.4 0.1 0 0.2 0 0.3 0.2 0.6 0.4 0.1 0 0.2 0 1 0.5 2.1 0.8 0.1 0 0.3 0.1 0.3 0 0.5 0.1 0.2 0 0.4 0.1 0.3 0 0.5 0 0.2 0.1 0.4 0.1 0.3 0 0.6 0 0.2 0 0.4 0 0.4 0 0.9 0 0.2 0 0.4 0 0.2 0 0.5-0.1 0.2 0 0.4-0.1 0.2 0 0.5-0.1 0.2 0 0.4-0.1 0.2 0 0.5-0.1 0.2-0.1 0.4-0.2 0.4-0.1 0.9-0.4 0.1 0 0.3-0.1 0 0 0 0 0.4-0.2 0.7-0.5 0.1-0.1 0.2-0.1 0.5-0.4 0.9-0.7 0.1-0.1 0.1-0.2 0 0 0-0.1 0 0 0 0c0-0.1-0.1-0.2-0.2-0.2q-0.3 0.2-0.6 0.3 0-0.1-0.1-0.1c-1.7-0.1-3.4-0.7-5-1.6q-0.1 0-0.2-0.1-0.3-0.2-0.5-0.3-0.3-0.3-0.6-0.5 0.5 0.2 1.1 0.4c0.2 0.1 0.3-0.4 0.1-0.5-1.2-0.5-2.4-1.1-3.4-2 1.4 0.5 2.8 0.7 3.8 0.7q0.4 0.1 0.7 0.1 0.1 0 0.1 0 0.4 0 0.8 0 0 0 0.1 0 0.4-0.1 0.8-0.1 0 0 0.1 0c1.2-0.1 2.4-0.4 3.4-1.1q0 0 0 0 0.3-0.3 0.6-0.6 0-0.1 0-0.1 0 0 0 0 0.3-0.3 0.5-0.7c0.1-0.2-0.2-0.5-0.4-0.4z"/>
			</g>
			<g id="Clip-Path" clip-path="url(#cp7)">
				<path class="s10" d="m147.2 143.1q-0.4 0.3-0.9 0.5c0-0.2-0.1-0.3-0.2-0.3-1.8-0.2-3.8-2.2-5.4-3.8q-0.3-0.4-0.6-0.7-0.2-0.3-0.5-0.6-0.5-0.6-1-1.3 0 0 0.1 0c1 0.5 2.1 0.8 3.2 1.2 0.1 0.1 0.2-0.2 0.1-0.3-0.7-0.5-1.5-0.7-2.2-1.1 1.1-0.1 2.2-0.5 2.7-1.5 0.2-0.2 0-0.4-0.2-0.3q-0.4 0.3-0.8 0.4c0-0.1-0.1-0.3-0.3-0.3q-0.2-0.1-0.5-0.2 1.7-0.1 3.3-0.7c0.3-0.1 0.2-0.7-0.1-0.7q-0.3 0-0.6 0-0.1-0.2-0.2-0.2c-2.2-0.3-4.3-1.3-6.1-2.9q-0.4-0.2-0.7-0.5c2 0.3 4-0.1 5.8-1.4 0.2-0.2 0.1-0.6-0.2-0.6 0-0.1 0-0.3-0.2-0.3-1.9 0.2-3.6-0.4-5-1.4q1.6-0.1 3.1-0.5c0.3-0.1 0.3-0.7 0-0.7q-0.3 0-0.6 0 0.1 0 0.2-0.1c0 0 0-0.1 0-0.1q-0.2 0-0.4 0 0 0 0-0.1-0.5-0.1-0.9-0.2 0.4-0.1 1-0.3c0.1-0.1 0-0.4-0.1-0.3-1.2 0.3-2.6-0.3-3.8-1.2q1 0.1 2-0.1c0.2 0 0.2-0.4 0-0.4-1.2-0.1-2.3-0.5-3.3-1.2q0.7 0 1.4-0.1c1 0 1.9-0.3 2.7-0.7 0.6-0.2 1.2-0.4 1.7-0.7 0 0 0-0.1 0-0.1q-0.8-0.1-1.5-0.1c0-0.1 0-0.3-0.2-0.3-1.4 0-2.6-0.4-3.7-1.1q-0.3-0.1-0.6-0.4-0.1 0-0.2-0.1-0.1-0.1-0.3-0.2 1.2 0.3 2.5 0.2c0.2 0 0.2-0.3 0-0.3-1.2 0-2.5-0.9-3.7-2q0.6 0.3 1.2 0.4 0.1 0 0.2 0 0.2 0.1 0.3 0.1 0.3 0 0.5 0 0.1 0 0.2 0 0.2 0 0.4-0.1 0.1 0 0.2 0 0.3-0.1 0.6-0.2c0.2 0 0.1-0.3 0-0.3-1.3 0.3-2.6-0.5-3.8-1.6q1 0.3 2.1 0.2c0.2 0 0.2-0.4 0-0.4q-0.3-0.1-0.7-0.2-0.1 0-0.2-0.1-0.2 0-0.4-0.1-0.2-0.1-0.3-0.1-0.1-0.1-0.2-0.2-0.3-0.1-0.5-0.2 0 0-0.1-0.1-0.4-0.2-0.8-0.5 0 0 0 0-1-0.9-1.7-2.1-0.2-0.3-0.3-0.6-0.2-0.3-0.4-0.7c1.1 1.3 2.4 2.2 3.9 2.8 0.2 0.1 0.3-0.4 0.1-0.5-1.3-0.8-2.5-2-3.4-3.5q1.8 1.1 3.9 1.2 0.1 0 0.1-0.1 0 0 0 0 0 0 0-0.1 0 0 0 0 0-0.1 0-0.1 0-0.1-0.1-0.1 0 0 0 0-0.5 0-1-0.2 0 0 0-0.1-0.1 0-0.3-0.1 0 0 0 0-0.2-0.1-0.3-0.2 0 0-0.1 0-0.4-0.3-0.9-0.7c-0.9-0.9-1.8-2-2.5-3 0.5 0.4 1.1 0.7 1.6 0.9 0.1 0 0.1-0.1 0-0.2-3.2-1.1-3.8-6.8-4.4-10.3q0-0.1-0.1-0.2 0 0 0 0-0.1-0.1-0.1-0.1 0 0 0 0-0.1 0-0.1 0-0.1 0-0.2 0 0-0.3 0-0.5 0-0.1-0.1-0.2 0 0 0 0c-0.1-0.2-0.4-0.1-0.4 0.2-2.3 7-5.7 13.8-11.9 15-0.1 0-0.1 0.1 0 0.2 1.2 1.3 3.3 0.4 5.1-0.8q-0.4 0.4-0.8 0.8c-1 0.9-2.2 2.2-3.5 2.4q0 0 0 0 0 0 0 0-0.1 0-0.1 0 0 0 0 0c0 0.1 0 0.2 0.1 0.2q0.5 0.3 1.3 0.4 0 0 0.1 0.1 0.4 0 0.9 0.1 0 0 0.1 0 0.5 0 1 0 0 0 0.1 0 0.5 0 1-0.1c-0.6 1.1-1.4 2-2.4 2.9q-0.4 0.3-0.9 0.6 0 0.1-0.1 0.1-0.4 0.4-0.9 0.7 0 0 0 0-0.3 0.2-0.5 0.3-0.1 0.1-0.1 0.1-0.2 0.1-0.5 0.3-0.1 0-0.2 0.1-0.1 0.1-0.3 0.2-0.1 0-0.3 0.1-0.3 0.1-0.6 0.3-0.4 0-0.8 0c-0.1 0-0.2 0.1-0.1 0.2q0.1 0.1 0.2 0.2 0 0.2 0.1 0.3 0 0 0 0 0.1 0 0.1 0 0.1 0 0.2 0 0.2 0.1 0.4 0.2 0.1 0 0.2 0.1 0.1 0 0.1 0.1 0.2 0 0.3 0 0.1 0 0.1 0.1 0.2 0 0.4 0 0 0 0.1 0 0.2 0.1 0.4 0.1 0 0 0 0 0.7 0 1.5-0.1c-0.5 0.5-1 0.9-1.6 1.2q-0.7 0.1-1.5 0c-0.1 0-0.1 0.1-0.1 0.2q0.1 0 0.1 0c-0.1 0-0.1 0.1-0.1 0.2q0.3 0.3 0.7 0.4 0.1 0 0.2 0.1 0 0 0 0 0.4 0.3 0.8 0.4 0 0 0.1 0 0.1 0 0.3 0c-1.2 0.7-2.5 1.1-3.7 1.1q-0.2 0-0.4-0.1-0.3-0.1-0.5-0.2c-0.3-0.2-0.5 0.3-0.3 0.6q0 0.1 0.1 0.2 0 0 0 0c0.7 1 1.7 1.6 2.8 1.9q0.1 0 0.1 0 0.2 0.1 0.4 0.1 0.3 0.1 0.6 0.2-0.3 0.3-0.6 0.7-0.2 0.2-0.4 0.4-0.1 0.1-0.1 0.2-0.2 0.2-0.4 0.3-0.1 0.1-0.2 0.2-0.1 0.2-0.3 0.3-0.1 0.1-0.3 0.2-0.1 0.1-0.2 0.2-0.7 0.6-1.5 1.1 0 0 0 0-0.3 0.1-0.6 0.3 0 0-0.1 0-0.2 0.2-0.4 0.3-0.3 0.1-0.6 0.2-1.2 0-2.3-0.3c-0.1 0-0.2 0.1-0.1 0.2q0.3 0.7 0.9 1.1 0 0 0 0 0.5 0.3 1 0.5 0 0 0.1 0 0.3 0.1 0.5 0.2-1 0.2-1.9 0.4c-0.2 0-0.1 0.2 0 0.2 1.1 0.3 2.5 0.3 3.8 0q-0.5 0.5-1.1 0.9-0.5 0.4-1.1 0.7-1.1 0.5-2.3 0.6 0 0-0.1 0-0.4 0.1-0.7 0.1-0.5-0.2-1-0.3c-0.1 0-0.1 0.1-0.1 0.2q0.1 0 0.1 0.1c-0.1 0-0.1 0.1 0 0.1q0.2 0.2 0.4 0.4 0.1 0.1 0.3 0.3 0 0 0 0 0.6 0.6 1.2 0.9 0.1 0.1 0.2 0.2 0.2 0 0.3 0.1 0.3 0.1 0.6 0.2c-1.1 0-2.2 0-3.1-0.6q-0.3-0.4-0.4-0.8c0-0.1-0.2-0.2-0.3 0-0.1 0.4 0.1 0.9 0.3 1.3q0 0.1 0.1 0.1 0.1 0.2 0.2 0.4 0 0 0.1 0 0 0.1 0 0.1 0.1 0.1 0.2 0.2 0.1 0.1 0.1 0.1 0.1 0.2 0.2 0.3 0 0 0.1 0 0.1 0.1 0.2 0.2 0.1 0.1 0.3 0.2 0.5 0.4 1.1 0.9 0 0 0 0 0.3 0.2 0.7 0.4-0.3 0.2-0.7 0.4-0.3 0.1-0.6 0.2 0 0.1 0 0.1-0.6 0.2-1.3 0.4 0 0 0 0-0.4 0.1-0.8 0.2 0 0-0.1 0-0.3 0.1-0.7 0.1-0.1 0-0.1 0-0.3 0.1-0.7 0-0.1 0-0.1 0-0.4 0-0.8-0.1-0.1 0-0.2 0-0.1 0-0.1 0 0 0 0 0.1 0 0 0 0 0 0 0 0.1c1 0.9 2.5 1.2 3.8 1.3-1 0.5-2.1 0.9-3.2 1.2-0.1 0-0.1 0.1 0 0.1 1.5 0.1 3.1-0.3 4.5-1.1-0.6 0.6-1.3 1.1-2 1.6-1.2 0.9-2.6 1.8-4 1.8q-0.4-0.1-0.7-0.4c-0.1 0-0.3 0.1-0.2 0.3q0.2 0.2 0.3 0.3 0.1 0.1 0.1 0.1 0.1 0.1 0.2 0.3 0 0 0 0 0.6 0.4 1.3 0.8 0.2 0.1 0.4 0.1 0 0 0 0 0 0 0.1 0 0.2 0.1 0.5 0.2 0 0 0 0 0.3 0.1 0.5 0.2 0 0 0.1 0 0.5 0.1 1.1 0.1 0.1 0.1 0.1 0.1 0.2 0 0.4 0 0.2 0 0.3 0 0.1 0 0.3 0 0.1 0 0.3 0 0.1 0 0.1 0 0.4 0 0.9 0 0 0 0 0c-1.7 0.7-3.4 0.6-5.2 0.8 0 0 0 0.1 0.1 0.1q0.3 0.1 0.6 0.1 0.1 0.1 0.3 0.2 0.1 0 0.2 0.1 0.1 0 0.1 0 0.2 0.1 0.4 0.1 0 0 0 0 0.2 0.1 0.3 0.1 0 0 0 0 0 0 0 0c0.6 0.1 1.2 0.1 1.8 0.1 1.3 0.1 2.5 0 3.7-0.2q0.7 0 1.4 0-0.1-0.1-0.2-0.1-0.1-0.1-0.2-0.2 0.7-0.2 1.4-0.5 0.1 0 0.1 0 1.3 0 2.6-0.2 0.1 0 0.3 0 0.2 0.1 0.5 0 0.4 0 0.8 0-0.4 0.2-0.8 0.3-0.1 0-0.2 0.1-0.4 0.1-0.8 0.2 0 0 0 0-0.4 0.1-0.7 0.1-0.5 0-1-0.1c-0.2 0-0.2 0.4-0.1 0.5q0.3 0.2 0.5 0.4c1.1 0.8 2.5 1.1 3.9 1q0 0 0 0 0.3 0 0.7-0.1 0 0 0 0 0.4 0 0.7-0.1 0 0 0.1 0 0.3 0 0.6-0.1 0 0 0.1 0c-0.2 0.1 2.1-0.5 3-1.1q0.3-0.2 0.6-0.3c-0.2 3.8-0.9 8-0.9 8 4.5 1.5 6.5-0.2 6.5-0.2-0.2-1.5-0.3-4.6-0.3-7.2q0.1 0.3 0.3 0.6c0 0.1 0.1 0 0.1-0.1q-0.2-0.5-0.4-1 0-0.3 0-0.5 0.1 0.1 0.2 0.3c0.8 1.2 1.9 2.2 2.7 3.4q0.2 0.2 0.4 0.4 0 0.1 0.1 0.2 0.1 0.1 0.2 0.2 0.1 0.1 0.2 0.2 0.1 0 0.1 0.1 0.3 0.3 0.7 0.4c0.1 0.1 0.1 0 0.1-0.1q-0.4-0.7-0.8-1.4c-0.4-1.4-0.5-3-0.7-4.5q0-0.6-0.1-1.2 0-0.1 0-0.3c0.7 1.7 2 3.1 3.1 4.5 0 0 0.1-0.1 0-0.1q-0.8-1.2-1.5-2.5 1 1.1 2.2 1.9 0.4 0.2 0.7 0.4 0.1 0 0.2 0.1 0.3 0.1 0.6 0.2 0.1 0.1 0.2 0.1 0.3 0.1 0.6 0.2 0.2 0 0.3 0.1 0.2 0 0.4 0.1c1.2 0.2 2.4 0.3 3.7 0.5q0 0 0.1-0.1 0 0 0 0 0.1 0 0.1-0.1 0 0 0 0 0 0 0 0c0-0.2 0-0.4-0.2-0.5q-0.8-0.3-1.6-0.6-0.1-0.1-0.3-0.2 0 0 0 0 0-0.1 0-0.1-0.1 0-0.2-0.1-0.5-0.4-1-0.9 0.3 0.2 0.6 0.4 0 0 0 0 0.3 0.1 0.6 0.3 0 0 0.1 0 0.2 0.2 0.5 0.3 0 0 0.1 0.1 0.8 0.3 1.6 0.5 0.1 0.1 0.2 0.1 0.2 0.1 0.5 0.1 0.1 0 0.2 0.1 0.3 0 0.5 0 0.1 0 0.3 0 0.2 0.1 0.4 0.1 0.1 0 0.3 0 0.3 0 0.7 0 0.1 0 0.3-0.1 0.2 0 0.4 0 0.2 0 0.3-0.1 0.2 0 0.4 0 0.1-0.1 0.3-0.1 0.2-0.1 0.4-0.1 0.1-0.1 0.3-0.2 0.3-0.1 0.7-0.3 0.1 0 0.2-0.1 0 0 0 0 0.3-0.2 0.6-0.4 0.1 0 0.1-0.1 0.4-0.2 0.7-0.5 0.1 0 0.1-0.1 0 0 0-0.1 0 0 0 0c0-0.1-0.1-0.2-0.2-0.1q-0.2 0.1-0.4 0.1-0.1 0-0.1 0c-1.3-0.1-2.7-0.5-3.9-1.2q-0.1-0.1-0.1-0.1-0.2-0.1-0.4-0.3-0.2-0.2-0.5-0.4 0.4 0.2 0.9 0.4c0.1 0 0.2-0.3 0-0.4-0.8-0.4-1.8-0.9-2.6-1.6 1.1 0.4 2.2 0.6 3 0.6q0.3 0 0.5 0 0.1 0 0.1 0 0.3 0 0.6 0 0 0 0.1 0 0.3 0 0.6 0 0 0 0 0c1-0.1 1.9-0.3 2.7-0.9q0 0 0 0 0.2-0.2 0.5-0.5 0 0 0 0 0 0 0 0 0.2-0.2 0.3-0.5c0.1-0.2-0.1-0.4-0.2-0.3z"/>
			</g>
			<g id="Clip-Path" clip-path="url(#cp8)">
				<path class="s9" d="m146.5 169.7c-0.5 0.5-1.1 0.8-1.7 1.1 0-0.3-0.2-0.6-0.5-0.7-3.8-0.4-7.9-4.4-11.1-7.8q-0.6-0.8-1.2-1.5-0.6-0.6-1.1-1.2-1-1.2-2-2.6 0 0.1 0.1 0.1c2.1 1 4.4 1.5 6.6 2.4 0.3 0.1 0.4-0.4 0.2-0.6-1.4-1-3-1.6-4.5-2.2 2.3-0.3 4.5-1.1 5.7-3.2 0.2-0.4-0.2-0.9-0.5-0.7-0.6 0.4-1.2 0.7-1.8 0.9 0-0.3-0.1-0.6-0.5-0.6q-0.5-0.2-1.1-0.4c2.3-0.2 4.7-0.7 6.8-1.5 0.7-0.3 0.5-1.5-0.1-1.5q-0.7 0-1.3 0.1c-0.1-0.3-0.2-0.5-0.4-0.5-4.6-0.5-8.8-2.7-12.7-5.8q-0.6-0.5-1.2-1.1c4.1 0.5 8.2-0.3 11.8-3 0.5-0.3 0.2-1.1-0.3-1.1 0-0.3-0.1-0.6-0.4-0.6-4 0.3-7.4-0.9-10.5-3q3.3-0.1 6.5-1c0.6-0.1 0.6-1.4 0-1.4q-0.6 0-1.2-0.1 0.2 0 0.4-0.1c0.1 0 0-0.2-0.1-0.2q-0.3 0-0.7-0.1c0 0-0.1 0-0.1-0.1q-1-0.2-1.9-0.4 1-0.2 2.1-0.7c0.3-0.1 0.1-0.7-0.2-0.6-2.5 0.7-5.4-0.6-7.9-2.5q2.1 0.3 4.2-0.1c0.5-0.1 0.5-0.9 0-0.9-2.4-0.1-4.6-1-6.7-2.5q1.5 0.1 2.9-0.1c2-0.1 3.9-0.6 5.6-1.6 1.1-0.2 2.3-0.7 3.4-1.4 0 0 0-0.2-0.1-0.2q-1.5-0.1-3-0.2c0-0.3-0.1-0.6-0.4-0.6-2.8 0-5.4-0.8-7.7-2.2q-0.6-0.4-1.2-0.8-0.1-0.1-0.3-0.2-0.3-0.3-0.7-0.6 2.5 0.7 5.3 0.6c0.3-0.1 0.3-0.7-0.1-0.7-2.6-0.1-5.3-1.9-7.6-4.2q1.2 0.6 2.4 0.9 0.2 0 0.4 0.1 0.3 0 0.7 0 0.5 0.1 1 0.1 0.2 0 0.3-0.1 0.5 0 0.9-0.1 0.2 0 0.4 0 0.6-0.2 1.3-0.4c0.3-0.1 0.2-0.7-0.1-0.6-2.6 0.5-5.4-1.1-7.7-3.2 1.4 0.3 2.8 0.4 4.2 0.3 0.4-0.1 0.5-0.8 0.1-0.9q-0.7-0.1-1.4-0.3-0.3-0.1-0.6-0.2-0.3-0.1-0.7-0.2-0.4-0.2-0.7-0.4-0.2-0.1-0.4-0.2-0.5-0.2-0.9-0.5-0.1 0-0.2-0.1-0.9-0.6-1.7-1.2 0 0 0 0-2-1.8-3.6-4.3-0.3-0.6-0.7-1.1-0.3-0.7-0.6-1.4c2.2 2.6 5 4.5 7.9 5.6 0.5 0.2 0.7-0.7 0.2-1-2.7-1.6-5-4.2-6.9-7.2 2.4 1.5 5.1 2.3 8 2.4q0.1 0 0.2-0.1 0 0 0 0 0-0.1 0.1-0.2 0 0 0 0 0-0.2-0.1-0.2 0-0.2-0.2-0.2 0 0 0 0-1-0.1-2-0.5 0-0.1-0.1-0.1-0.3-0.1-0.6-0.3 0 0-0.1 0-0.3-0.2-0.6-0.4 0 0 0 0-1-0.6-1.9-1.5c-2-1.7-3.7-4.1-5.2-6.2 1.1 0.9 2.2 1.6 3.3 1.9 0.1 0 0.2-0.3 0-0.3-6.7-2.3-7.8-14.1-9.1-21.3q0-0.2-0.1-0.4-0.1 0-0.1 0-0.1-0.1-0.3-0.2 0 0 0 0-0.1-0.1-0.2-0.1-0.1 0-0.3 0 0-0.5 0-1-0.1-0.3-0.2-0.4 0 0 0 0c-0.3-0.3-0.8-0.1-0.9 0.4-4.6 14.4-11.7 28.5-24.4 30.9-0.2 0-0.2 0.3-0.1 0.4 2.5 2.7 6.8 1 10.5-1.6q-0.8 0.9-1.7 1.7c-2 1.8-4.5 4.4-7.1 4.8q0 0 0 0-0.1 0-0.1 0.1-0.1 0-0.1 0 0 0 0 0.1c-0.1 0.1-0.1 0.3 0.1 0.3 0.8 0.4 1.7 0.7 2.7 0.9q0.1 0 0.2 0.1 0.9 0.1 1.8 0.2 0.2 0 0.3 0 1 0.1 2 0.1 0.1-0.1 0.2-0.1 1.1 0 2.1-0.2c-1.3 2.2-2.8 4.2-4.9 6q-0.9 0.6-1.8 1.3-0.1 0.1-0.2 0.2-0.9 0.7-1.9 1.4 0 0-0.1 0-0.5 0.4-1 0.7-0.1 0.1-0.2 0.2-0.5 0.2-0.9 0.5-0.2 0.1-0.4 0.2-0.4 0.2-0.7 0.4-0.3 0.1-0.6 0.3-0.6 0.3-1.2 0.5-1 0-1.8 0c-0.2 0.1-0.2 0.4-0.1 0.5q0.2 0.3 0.4 0.5c0 0.2 0.1 0.4 0.2 0.5q0 0 0.1 0.1 0 0 0.2 0 0.2 0 0.3 0 0.4 0.2 0.8 0.4 0.2 0.1 0.4 0.1 0.2 0.1 0.3 0.2 0.3 0.1 0.6 0.1 0.1 0.1 0.3 0.1 0.3 0.1 0.6 0.1 0.1 0 0.2 0.1 0.4 0 0.8 0 0.1 0 0.1 0 1.5 0.1 3.1-0.1c-1 1-2.1 1.9-3.2 2.4q-1.5 0.3-3.2 0.1c-0.1-0.1-0.2 0.2-0.1 0.3q0 0 0.1 0.1c-0.1 0-0.2 0.2-0.1 0.3q0.6 0.6 1.3 0.8 0.2 0.2 0.4 0.3 0 0 0 0 0.9 0.5 1.8 0.7 0 0 0 0 0.4 0.1 0.7 0.1c-2.4 1.4-5.1 2.2-7.5 2.2q-0.5 0-1-0.1-0.5-0.2-1-0.4c-0.5-0.3-0.9 0.6-0.6 1.2q0.1 0.2 0.3 0.4 0 0 0 0c1.3 2.1 3.5 3.3 5.7 3.9q0.1 0.1 0.3 0.1 0.4 0.1 0.9 0.2 0.5 0.2 1.1 0.3-0.5 0.7-1.1 1.4-0.4 0.5-0.9 1-0.2 0.2-0.3 0.3-0.4 0.3-0.7 0.7-0.3 0.2-0.5 0.4-0.3 0.3-0.6 0.6-0.3 0.2-0.6 0.5-0.2 0.1-0.4 0.3c-1 0.8-2.1 1.5-3.1 2.2q-0.1 0-0.1 0-0.6 0.4-1.1 0.7-0.1 0-0.2 0-0.5 0.3-1 0.5-0.6 0.3-1.2 0.5c-1.6 0-3.2-0.1-4.7-0.6-0.2 0-0.3 0.2-0.2 0.3 0.4 1 1.1 1.7 1.8 2.3q0.1 0.1 0.1 0.1 1 0.7 2 1 0.1 0.1 0.2 0.1 0.6 0.1 1.1 0.2-2 0.5-4 0.9c-0.3 0.1-0.2 0.4 0 0.5 2.3 0.5 5.2 0.6 8-0.1-0.8 0.7-1.6 1.3-2.3 1.8q-1.2 0.9-2.4 1.5c-1.5 0.7-3 1.1-4.6 1.3q-0.2 0-0.4 0.1-0.7 0-1.4 0-1-0.2-2-0.5c-0.1 0-0.2 0.3-0.1 0.4q0 0 0.1 0.1c-0.2 0-0.2 0.3-0.1 0.4q0.4 0.4 0.9 0.7 0.3 0.3 0.6 0.6 0 0 0 0 1.2 1.2 2.5 2 0.2 0.1 0.5 0.2 0.3 0.2 0.6 0.3 0.6 0.3 1.2 0.5c-2.2-0.1-4.5-0.1-6.4-1.4q-0.6-0.7-0.8-1.6c-0.1-0.2-0.5-0.3-0.6 0-0.2 0.9 0.1 1.9 0.6 2.8q0 0 0.1 0.1 0.2 0.4 0.5 0.8 0.1 0.1 0.1 0.1 0.1 0.1 0.2 0.2 0.1 0.2 0.3 0.4 0.1 0.2 0.2 0.3 0.2 0.2 0.4 0.4 0.1 0.1 0.2 0.2 0.2 0.2 0.4 0.4 0.3 0.2 0.6 0.4 1.1 0.8 2.3 1.7 0 0 0 0 0.7 0.5 1.4 1-0.6 0.3-1.3 0.6-0.6 0.4-1.2 0.6-0.1 0-0.1 0.1-1.3 0.5-2.7 0.9 0 0 0 0-0.8 0.3-1.6 0.4-0.1 0-0.2 0-0.7 0.2-1.5 0.2-0.1 0-0.2 0.1-0.7 0-1.4 0-0.2 0-0.3 0-0.8-0.1-1.7-0.3-0.2 0-0.4 0-0.1 0-0.1 0 0 0.1 0 0.1 0 0 0 0 0 0.1 0 0.2c2.1 1.9 5.1 2.5 7.8 2.7-2 1.1-4.3 1.8-6.7 2.5-0.1 0-0.1 0.2 0 0.2 3.3 0.2 6.5-0.6 9.4-2.3-1.2 1.2-2.6 2.3-4 3.3-2.5 1.8-5.4 3.9-8.5 3.9q-0.6-0.4-1.3-0.8c-0.2-0.2-0.5 0.1-0.3 0.4q0.3 0.4 0.6 0.8 0 0 0.1 0.1 0.2 0.3 0.5 0.5 0 0 0 0 1.1 1 2.6 1.7 0.4 0.2 0.9 0.4 0 0 0 0 0 0 0 0 0.6 0.2 1.1 0.3 0 0 0.1 0 0.5 0.2 1 0.3 0.1 0 0.1 0 1.2 0.3 2.4 0.4 0.1 0 0.2 0 0.4 0.1 0.9 0.1 0.3 0 0.6 0 0.2 0 0.4 0 0.4 0.1 0.8 0.1 0.1 0 0.1 0 1 0 1.9 0 0 0 0 0c-3.4 1.3-7 1.1-10.6 1.5-0.2 0-0.1 0.2 0 0.2q0.6 0.2 1.3 0.3 0.3 0.2 0.7 0.4 0.2 0.1 0.4 0.1 0.2 0.1 0.3 0.1 0.3 0.1 0.6 0.2 0 0 0.1 0 0.3 0.1 0.7 0.2 0 0 0 0 0 0 0 0c1.2 0.2 2.4 0.2 3.6 0.3 2.6 0.1 5.1 0 7.7-0.6q1.4 0 2.8 0-0.2-0.1-0.3-0.1-0.3-0.1-0.4-0.4 1.4-0.4 2.9-1 0 0 0.1 0 2.6 0 5.3-0.4 0.3 0 0.7 0 0.4 0 0.9 0 0.8 0 1.7-0.1-0.8 0.4-1.7 0.7-0.1 0-0.3 0.1-0.8 0.3-1.6 0.4-0.1 0-0.1 0.1-0.7 0.1-1.4 0.1-1.1 0-2-0.1c-0.5-0.1-0.5 0.7-0.2 1q0.5 0.4 1 0.7c2.3 1.7 5.1 2.3 7.9 2.2q0 0 0.1 0 0.7 0 1.4-0.1 0.1 0 0.1 0 0.7-0.1 1.4-0.3 0.1 0 0.2 0 0.6-0.1 1.2-0.3 0.1 0 0.2 0c-0.3 0.3 4.4-0.9 6.2-2.2q0.7-0.3 1.3-0.6c-0.5 7.8-1.8 16.4-1.8 16.4 9.2 3.1 13.2-0.3 13.2-0.3-0.4-3.2-0.5-9.6-0.6-15q0.3 0.7 0.7 1.3c0.1 0.2 0.3 0 0.2-0.1q-0.5-1-0.9-2.1 0-0.6 0-1.1 0.2 0.3 0.4 0.6c1.8 2.6 3.9 4.5 5.7 7q0.4 0.5 0.7 0.9 0.2 0.2 0.3 0.4 0.2 0.2 0.4 0.4 0.2 0.2 0.4 0.4 0.1 0.1 0.3 0.2c0.4 0.4 0.8 0.7 1.4 0.9 0.1 0.1 0.2-0.1 0.1-0.2-0.6-0.9-1-1.9-1.5-2.9-1-2.8-1.1-6.3-1.5-9.2q-0.1-1.2-0.2-2.5-0.1-0.4-0.1-0.7c1.5 3.6 4.1 6.5 6.4 9.2 0.1 0.1 0.2-0.1 0.1-0.2-1.1-1.5-2.2-3.2-3.2-5 1.5 1.5 3 2.8 4.7 3.8q0.7 0.5 1.4 0.8 0.2 0.1 0.4 0.2 0.6 0.3 1.2 0.5 0.3 0.1 0.5 0.2 0.6 0.2 1.1 0.4 0.4 0.1 0.7 0.1 0.4 0.1 0.7 0.2c2.5 0.6 5.1 0.8 7.6 1.1q0.2 0 0.3-0.1 0 0 0 0 0.1-0.1 0.2-0.3 0 0 0 0 0 0 0 0c0.1-0.4-0.1-0.8-0.4-1-1.1-0.4-2.2-0.8-3.3-1.1q-0.2-0.3-0.5-0.5 0 0 0 0-0.1-0.2-0.2-0.2-0.1-0.1-0.3-0.2-1-0.9-2-1.9 0.6 0.4 1.2 0.8 0 0 0 0 0.5 0.3 1.1 0.6 0.1 0.1 0.2 0.1 0.5 0.3 1.1 0.6 0.1 0 0.2 0.1 1.7 0.7 3.4 1.2 0.2 0 0.4 0.1 0.5 0.1 0.9 0.2 0.3 0 0.6 0.1 0.4 0.1 0.8 0.1 0.4 0.1 0.7 0.1 0.4 0 0.8 0.1 0.3 0 0.7 0 0.7 0 1.4-0.1 0.3 0 0.7 0 0.4-0.1 0.7-0.1 0.4-0.1 0.7-0.1 0.4-0.1 0.8-0.2 0.3-0.1 0.6-0.2 0.4-0.1 0.8-0.2 0.3-0.1 0.6-0.2 0.7-0.3 1.5-0.7 0.2-0.1 0.4-0.2 0 0 0 0 0.6-0.4 1.2-0.8 0.2-0.1 0.4-0.2 0.7-0.5 1.3-1.1 0.1-0.1 0.2-0.2 0-0.1 0-0.2 0 0 0 0 0 0 0 0c-0.1-0.2-0.2-0.4-0.4-0.3q-0.4 0.2-0.9 0.4-0.1-0.1-0.1-0.1c-2.8-0.3-5.5-1.1-8-2.6q-0.2-0.1-0.3-0.1-0.4-0.3-0.8-0.6-0.5-0.4-1-0.8 0.9 0.3 1.8 0.7c0.3 0.1 0.4-0.6 0.1-0.7-1.8-0.9-3.7-1.9-5.4-3.3 2.2 0.8 4.4 1.2 6.1 1.2q0.6 0 1.2 0.1 0 0 0.1 0 0.6 0 1.2-0.1 0.1 0 0.1 0 0.7 0 1.4 0 0 0 0 0c2-0.2 4-0.7 5.5-1.8q0-0.1 0-0.1 0.5-0.4 1-0.9 0 0 0 0 0-0.1 0-0.1 0.4-0.5 0.7-1.1c0.2-0.4-0.2-0.8-0.5-0.6z"/>
			</g>
			<g id="Clip-Path" clip-path="url(#cp9)">
				<path class="s9" d="m85.7 137.9c-0.6 0.4-1.2 0.8-1.9 1.1 0-0.3-0.2-0.6-0.6-0.7-4.2-0.4-8.7-4.8-12.2-8.7q-0.7-0.8-1.4-1.6-0.6-0.6-1.2-1.3-1.1-1.4-2.2-2.8 0 0 0.1 0c2.4 1.1 4.9 1.7 7.3 2.7 0.3 0.1 0.5-0.5 0.2-0.7-1.6-1.1-3.2-1.7-4.9-2.5 2.5-0.3 4.9-1.2 6.2-3.4 0.3-0.5-0.1-1.1-0.5-0.8-0.6 0.4-1.3 0.7-1.9 1 0-0.3-0.2-0.7-0.6-0.8q-0.6-0.1-1.2-0.3c2.6-0.3 5.1-0.8 7.5-1.8 0.7-0.2 0.5-1.6-0.2-1.5q-0.7 0-1.4 0c0-0.3-0.2-0.5-0.5-0.5-5-0.5-9.6-3-13.9-6.5q-0.7-0.5-1.4-1.1c4.5 0.5 9.1-0.3 13.1-3.4 0.5-0.3 0.2-1.2-0.3-1.1 0-0.4-0.2-0.7-0.5-0.7-4.4 0.4-8.2-1-11.6-3.4 2.5 0 4.9-0.4 7.2-1 0.7-0.2 0.6-1.6-0.1-1.6q-0.6-0.1-1.3-0.1 0.2 0 0.4-0.1c0.2 0 0.1-0.2 0-0.2q-0.4-0.1-0.8-0.1c0-0.1-0.1-0.1-0.1-0.1q-1.1-0.3-2.1-0.6c0.8-0.1 1.5-0.3 2.3-0.7 0.3-0.1 0.2-0.8-0.2-0.7-2.8 0.9-6-0.7-8.7-2.8q2.3 0.4 4.7 0c0.4-0.1 0.4-1-0.1-1-2.6-0.2-5.1-1.2-7.4-2.8q1.6 0.1 3.2-0.1c2.2-0.1 4.3-0.7 6.2-1.8 1.2-0.2 2.5-0.7 3.7-1.5 0.1-0.1 0.1-0.2 0-0.2q-1.7-0.2-3.3-0.2c0-0.3-0.2-0.7-0.5-0.7-3.1 0-5.9-0.9-8.5-2.4q-0.7-0.5-1.4-0.9-0.1-0.2-0.3-0.3-0.4-0.3-0.8-0.6 2.8 0.8 5.8 0.6c0.4 0 0.4-0.8 0-0.8-2.9 0-5.8-2-8.4-4.5q1.3 0.6 2.7 0.9 0.2 0 0.4 0.1 0.3 0 0.7 0.1 0.6 0 1.1 0 0.2 0 0.4 0 0.5 0 1-0.1 0.2-0.1 0.4-0.1 0.7-0.2 1.4-0.4c0.4-0.1 0.3-0.8-0.1-0.7-2.8 0.6-5.9-1.2-8.4-3.6 1.4 0.4 3 0.6 4.6 0.4 0.5 0 0.5-0.9 0-1q-0.7-0.1-1.5-0.3-0.3-0.1-0.6-0.2-0.4-0.2-0.8-0.3-0.4-0.2-0.8-0.4-0.2-0.1-0.5-0.2-0.4-0.3-0.9-0.5-0.1-0.1-0.3-0.2-0.9-0.6-1.8-1.3 0 0 0 0c-1.5-1.3-2.8-2.9-4-4.7q-0.3-0.7-0.7-1.3-0.4-0.8-0.8-1.6c2.5 3 5.6 5 8.8 6.2 0.5 0.3 0.8-0.7 0.3-1-3-1.8-5.6-4.7-7.7-8 2.7 1.7 5.6 2.6 8.9 2.7q0.1 0 0.2-0.1 0-0.1 0-0.1 0-0.1 0-0.2 0.1 0 0.1 0 0-0.2-0.1-0.3-0.1-0.1-0.2-0.1 0 0-0.1 0-1.1-0.1-2.1-0.6-0.1 0-0.2-0.1-0.3-0.1-0.6-0.3-0.1 0-0.1 0-0.3-0.2-0.7-0.4 0-0.1 0-0.1-1.1-0.7-2.1-1.6c-2.2-2-4.2-4.5-5.7-6.9 1.1 1.1 2.3 1.8 3.5 2.1 0.2 0 0.3-0.3 0.1-0.3-7.4-2.5-8.7-15.6-10-23.5q-0.1-0.3-0.2-0.5-0.1 0-0.1 0-0.1-0.2-0.3-0.2 0 0 0 0-0.1-0.1-0.3-0.1-0.1 0-0.2 0-0.1-0.5-0.1-1.1 0-0.3-0.2-0.5 0 0 0 0c-0.3-0.3-0.9-0.1-1 0.4-5.1 16-12.9 31.6-27 34.2-0.2 0.1-0.2 0.4-0.1 0.5 2.7 3 7.6 1.1 11.7-1.8q-0.9 1-1.9 1.8c-2.3 2-5.1 5-7.8 5.4q-0.1 0-0.1 0-0.1 0-0.1 0-0.1 0.1-0.1 0.1 0 0 0 0.1c-0.1 0.1-0.1 0.3 0.1 0.4 0.8 0.4 1.9 0.7 3 1q0.1 0 0.2 0 1 0.2 2 0.3 0.2 0 0.4 0 1 0.1 2.1 0 0.2 0 0.3 0 1.1-0.1 2.3-0.3c-1.4 2.5-3.1 4.7-5.5 6.6q-0.9 0.8-1.9 1.5-0.1 0.1-0.3 0.2-1 0.8-2 1.5-0.1 0.1-0.1 0.1-0.6 0.4-1.1 0.8-0.2 0.1-0.3 0.2-0.5 0.2-1 0.5-0.2 0.2-0.5 0.3-0.3 0.2-0.7 0.4-0.3 0.1-0.7 0.3-0.6 0.3-1.3 0.6-1.1 0-1.9 0c-0.3 0-0.4 0.4-0.2 0.6q0.2 0.2 0.5 0.4c0 0.3 0 0.6 0.2 0.7q0 0 0 0 0.1 0.1 0.3 0.1 0.2-0.1 0.4-0.1 0.4 0.3 0.8 0.5 0.2 0.1 0.4 0.1 0.2 0.1 0.4 0.2 0.3 0.1 0.6 0.2 0.2 0 0.3 0 0.4 0.1 0.8 0.2 0.1 0 0.2 0 0.4 0.1 0.9 0.1 0 0 0 0 1.7 0.1 3.5-0.1c-1.1 1.1-2.3 2-3.5 2.6-1.1 0.3-2.3 0.3-3.5 0.1-0.2 0-0.3 0.2-0.2 0.3q0.1 0.1 0.1 0.2c-0.1-0.1-0.2 0.2-0.1 0.3q0.7 0.7 1.4 0.9 0.3 0.2 0.5 0.3 0 0 0 0 1 0.6 2 0.8 0 0 0 0 0.4 0.1 0.8 0.2c-2.7 1.4-5.7 2.3-8.4 2.4q-0.5-0.1-1-0.2-0.6-0.2-1.1-0.5c-0.7-0.3-1 0.8-0.7 1.4q0.1 0.2 0.3 0.4 0 0.1 0 0.1c1.5 2.3 3.9 3.6 6.4 4.3q0.1 0 0.2 0.1 0.5 0.1 1 0.2 0.6 0.2 1.3 0.3-0.6 0.8-1.3 1.6-0.4 0.5-1 1.1-0.1 0.1-0.3 0.3-0.4 0.4-0.8 0.8-0.2 0.2-0.5 0.4-0.3 0.3-0.7 0.6-0.3 0.3-0.7 0.6-0.2 0.2-0.4 0.3c-1.1 0.9-2.3 1.8-3.5 2.5q0 0 0 0-0.6 0.4-1.2 0.7-0.1 0.1-0.2 0.1-0.6 0.3-1.2 0.6-0.6 0.3-1.3 0.5c-1.8 0-3.6-0.2-5.2-0.7-0.2 0-0.4 0.2-0.3 0.4 0.6 1.1 1.3 1.9 2.1 2.5q0.1 0.1 0.2 0.1 1 0.8 2.1 1.1 0.1 0.1 0.3 0.1 0.5 0.2 1.1 0.3-2.2 0.5-4.4 1c-0.3 0-0.2 0.4 0 0.5 2.5 0.6 5.7 0.6 8.8-0.1-0.8 0.8-1.7 1.4-2.5 2q-1.2 1-2.6 1.6c-1.7 0.8-3.4 1.3-5.1 1.5q-0.2 0-0.4 0-0.8 0.1-1.6 0.1-1.1-0.3-2.2-0.5c-0.2-0.1-0.2 0.2-0.1 0.4q0 0 0 0.1c-0.1 0-0.1 0.3 0 0.4q0.5 0.4 1 0.8 0.3 0.3 0.6 0.7 0 0 0.1 0 1.2 1.3 2.7 2.1 0.3 0.2 0.5 0.3 0.3 0.2 0.7 0.3 0.7 0.3 1.3 0.5c-2.4 0-5-0.1-7.1-1.4q-0.6-0.9-0.9-1.8c0-0.3-0.5-0.4-0.6 0-0.2 1 0.1 2 0.7 3q0 0.1 0.1 0.2 0.2 0.4 0.6 0.9 0 0 0 0.1 0.1 0.1 0.2 0.2 0.2 0.2 0.4 0.5 0.1 0.1 0.3 0.2 0.2 0.3 0.4 0.5 0.1 0.1 0.2 0.2 0.2 0.2 0.5 0.4 0.3 0.3 0.6 0.5 1.2 0.9 2.5 1.9 0 0 0 0 0.8 0.5 1.6 1-0.7 0.4-1.4 0.8-0.7 0.3-1.4 0.6 0 0.1-0.1 0.1-1.4 0.6-2.9 1-0.1 0-0.1 0-0.9 0.3-1.8 0.5-0.1 0-0.1 0-0.9 0.2-1.7 0.2-0.1 0-0.3 0-0.7 0.1-1.5 0.1-0.2 0-0.4 0-0.9-0.1-1.8-0.3c-0.1 0-0.3 0-0.4 0q-0.1 0-0.2 0 0 0 0 0.1 0 0 0 0 0 0.1 0.1 0.2c2.3 2.1 5.5 2.7 8.6 3-2.3 1.2-4.7 2-7.4 2.7-0.1 0.1-0.1 0.3 0 0.3 3.6 0.2 7.2-0.7 10.3-2.6-1.3 1.4-2.9 2.6-4.4 3.7-2.7 2-6 4.2-9.3 4.2q-0.8-0.3-1.5-0.9c-0.3-0.2-0.6 0.3-0.4 0.6q0.3 0.4 0.7 0.8 0.1 0.1 0.1 0.1 0.3 0.3 0.6 0.6 0 0 0 0 1.3 1.1 2.8 1.8 0.5 0.3 1.1 0.5 0 0 0 0 0 0 0 0 0.6 0.2 1.2 0.4 0 0 0.1 0 0.6 0.1 1.1 0.3 0.1 0 0.1 0 1.3 0.3 2.7 0.4 0.1 0 0.2 0 0.5 0.1 1 0.1 0.3 0 0.6 0.1 0.3 0 0.5 0 0.4 0 0.9 0 0 0 0.1 0 1 0 2 0 0.1 0 0.1 0c-3.8 1.5-7.7 1.3-11.8 1.7-0.1 0-0.1 0.2 0.1 0.3q0.7 0.1 1.4 0.2 0.4 0.3 0.7 0.4 0.3 0.2 0.5 0.2 0.2 0.1 0.3 0.1 0.4 0.2 0.7 0.2 0 0.1 0.1 0.1 0.4 0.1 0.7 0.1 0.1 0 0.1 0 0 0 0 0c1.3 0.2 2.7 0.3 4 0.3 2.8 0.2 5.6 0 8.4-0.6q1.6 0 3.1 0-0.1 0-0.3-0.1-0.3-0.1-0.4-0.5 1.6-0.4 3.2-1 0 0 0.1-0.1 2.9 0 5.9-0.4 0.3 0 0.7 0 0.5 0.1 1.1 0 0.9 0 1.8-0.1-0.9 0.4-1.8 0.8-0.2 0-0.4 0.1-0.8 0.3-1.8 0.5 0 0-0.1 0-0.7 0.1-1.5 0.2-1.2-0.1-2.2-0.2c-0.5-0.1-0.6 0.8-0.2 1.1q0.5 0.5 1 0.9c2.6 1.8 5.7 2.5 8.8 2.3q0 0 0.1 0 0.8 0 1.6-0.1 0 0 0.1 0 0.7-0.1 1.5-0.2 0.1-0.1 0.2-0.1 0.7-0.1 1.4-0.3 0.1 0 0.2 0c-0.3 0.3 4.8-1.1 6.8-2.5q0.8-0.3 1.5-0.7c-0.5 8.7-2 18.2-2 18.2 10.2 3.4 14.6-0.3 14.6-0.3-0.5-3.6-0.6-10.6-0.7-16.5q0.4 0.7 0.8 1.4c0.1 0.1 0.3 0 0.2-0.2q-0.6-1.1-1-2.3 0-0.6 0-1.2 0.2 0.4 0.5 0.7c1.9 2.9 4.3 5 6.3 7.7q0.4 0.5 0.8 1 0.1 0.2 0.3 0.4 0.2 0.2 0.4 0.5 0.2 0.2 0.4 0.4 0.2 0.1 0.4 0.3c0.4 0.4 0.9 0.7 1.5 1 0.2 0 0.2-0.2 0.1-0.3-0.6-1-1.1-2.1-1.6-3.2-1.1-3.1-1.2-6.9-1.7-10.2q-0.1-1.3-0.2-2.8-0.1-0.3-0.1-0.7c1.7 3.9 4.5 7.1 7 10.2 0.1 0.1 0.3-0.1 0.2-0.2-1.3-1.7-2.4-3.6-3.5-5.6 1.6 1.7 3.3 3.1 5.1 4.2q0.8 0.5 1.6 0.9 0.2 0.1 0.4 0.2 0.7 0.4 1.4 0.6 0.2 0.1 0.5 0.2 0.6 0.2 1.3 0.4 0.3 0.1 0.7 0.2 0.4 0.1 0.8 0.2c2.8 0.6 5.6 0.9 8.4 1.2q0.2 0 0.3-0.1 0 0 0 0 0.1-0.2 0.2-0.4 0 0 0 0 0 0 0 0c0.1-0.4 0-0.9-0.4-1-1.2-0.5-2.4-0.9-3.6-1.3q-0.3-0.3-0.6-0.5 0 0 0 0-0.1-0.2-0.2-0.3-0.2 0-0.3-0.1-1.2-1-2.3-2.1 0.7 0.4 1.3 0.8 0 0 0 0 0.6 0.4 1.2 0.7 0.2 0.1 0.3 0.1 0.6 0.3 1.2 0.6 0.1 0.1 0.2 0.1 1.9 0.8 3.7 1.4 0.3 0 0.5 0.1 0.5 0.1 1 0.2 0.3 0.1 0.7 0.1 0.4 0.1 0.9 0.2 0.4 0 0.7 0 0.5 0.1 0.9 0.1 0.4 0 0.8 0 0.7 0 1.5 0 0.4 0 0.8-0.1 0.4 0 0.8-0.1 0.4 0 0.8-0.1 0.4-0.1 0.8-0.2 0.4-0.1 0.7-0.2 0.5-0.1 0.9-0.2 0.3-0.2 0.6-0.3 0.9-0.3 1.7-0.7 0.2-0.2 0.5-0.3 0 0 0 0 0.6-0.4 1.3-0.8 0.2-0.1 0.4-0.3 0.8-0.5 1.5-1.2 0.1-0.1 0.1-0.2 0.1-0.1 0-0.2 0 0 0 0 0 0 0 0c0-0.2-0.1-0.4-0.3-0.3q-0.5 0.2-1 0.4-0.1-0.1-0.2-0.1c-3-0.3-6.1-1.2-8.8-2.8q-0.2-0.1-0.4-0.3-0.4-0.2-0.8-0.5-0.6-0.5-1.1-0.9 0.9 0.3 1.9 0.7c0.4 0.2 0.5-0.6 0.2-0.8-2-1-4.1-2-6-3.6 2.5 0.8 4.9 1.3 6.8 1.4q0.6 0 1.2 0 0.1 0 0.1 0 0.7 0 1.4 0 0.1 0 0.2 0 0.7 0 1.5-0.1 0 0 0 0c2.2-0.2 4.4-0.8 6-2q0 0 0 0 0.6-0.5 1.1-1.1 0 0 0.1 0 0 0 0-0.1 0.4-0.5 0.7-1.1c0.3-0.5-0.2-1-0.5-0.7z"/>
			</g>
		</g>
	</g>
</svg>